<svg width="48" height="48" viewBox="0 0 48 48" fill="none" xmlns="http://www.w3.org/2000/svg">
<circle cx="24" cy="24" r="24" fill="#EFF7F3"/>
<path d="M23.9998 9.66675C16.0958 9.66675 9.6665 16.0974 9.6665 24.0001C9.6665 31.9027 16.0958 38.3334 23.9998 38.3334C31.9038 38.3334 38.3332 31.9027 38.3332 24.0001C38.3332 16.0974 31.9038 9.66675 23.9998 9.66675ZM11.6665 24.0001C11.6665 22.5787 11.9198 21.2187 12.3652 19.9467C13.1918 25.9601 18.4665 26.4681 18.6945 27.4268C18.9478 28.5068 18.6945 28.8268 18.7878 30.6801C18.8812 32.5334 21.4411 32.5601 22.4278 34.0267C22.7185 34.4534 22.8865 35.3667 22.8145 36.2734C16.5679 35.6747 11.6665 30.4001 11.6665 24.0001ZM27.3465 35.8601C28.2545 33.0161 30.9811 32.0521 31.2585 30.4081C31.4811 29.0894 29.7478 28.4147 28.1918 28.2227C26.6505 28.0454 26.8732 26.4308 25.7772 25.2894C24.6812 24.1481 23.9638 24.2134 22.4238 24.4054C20.8678 24.5827 19.5638 24.4721 19.1331 23.5241C18.7185 22.5761 19.2518 22.1227 18.1185 20.9481C17.1745 19.9694 18.1878 19.0921 18.6918 18.9734C19.4918 18.7814 20.9145 20.1801 21.7478 20.0094C24.2585 19.4921 21.2505 14.5787 25.0212 13.3427C25.6812 13.1267 26.2985 12.6014 26.6091 11.9508C28.7638 12.4174 30.7025 13.4521 32.2785 14.8841C32.7118 16.1174 33.0131 17.5334 32.7612 18.2841C32.2572 19.8401 30.9919 20.9587 32.3732 23.5054C33.8145 26.1641 34.7038 26.5254 35.3518 25.7948C35.6091 25.5041 35.9438 25.2988 36.2772 25.1748C35.7878 30.2908 32.1612 34.4987 27.3465 35.8601Z" fill="#D8ECDD" fill-opacity="0.7"/>
<path d="M22.5228 28L21.5148 25.328H17.4028L16.3948 28H14.2188L18.3468 16.976H20.5548L24.6828 28H22.5228ZM19.4508 19.328L18.0908 23.536H20.8428L19.4508 19.328ZM30.3835 18.8H28.1115V22.256H30.3195C30.8208 22.256 31.2048 22.0853 31.4715 21.744C31.7382 21.4027 31.8715 21.0027 31.8715 20.544C31.8715 20.096 31.7435 19.696 31.4875 19.344C31.2315 18.9813 30.8635 18.8 30.3835 18.8ZM31.1995 24L34.0155 28H31.5515L28.9595 24.08H28.1115V28H26.0635V16.976H30.4795C31.6208 16.976 32.4902 17.328 33.0875 18.032C33.6955 18.7253 33.9995 19.5627 33.9995 20.544C33.9995 21.3973 33.7595 22.1493 33.2795 22.8C32.8102 23.4507 32.1168 23.8507 31.1995 24Z" fill="url(#paint0_linear_1842_1069)"/>
<defs>
<linearGradient id="paint0_linear_1842_1069" x1="14" y1="23.2659" x2="35.0039" y2="23.4093" gradientUnits="userSpaceOnUse">
<stop offset="0.270833" stop-color="#7EC287"/>
<stop offset="1" stop-color="#308BC4"/>
</linearGradient>
</defs>
</svg>
