<svg width="48" height="48" viewBox="0 0 48 48" fill="none" xmlns="http://www.w3.org/2000/svg">
<circle cx="24" cy="24" r="24" fill="#EFF7F3"/>
<path d="M23.9998 9.66675C16.0958 9.66675 9.6665 16.0974 9.6665 24.0001C9.6665 31.9027 16.0958 38.3334 23.9998 38.3334C31.9038 38.3334 38.3332 31.9027 38.3332 24.0001C38.3332 16.0974 31.9038 9.66675 23.9998 9.66675ZM11.6665 24.0001C11.6665 22.5787 11.9198 21.2187 12.3652 19.9467C13.1918 25.9601 18.4665 26.4681 18.6945 27.4268C18.9478 28.5068 18.6945 28.8268 18.7878 30.6801C18.8812 32.5334 21.4411 32.5601 22.4278 34.0267C22.7185 34.4534 22.8865 35.3667 22.8145 36.2734C16.5679 35.6747 11.6665 30.4001 11.6665 24.0001ZM27.3465 35.8601C28.2545 33.0161 30.9811 32.0521 31.2585 30.4081C31.4811 29.0894 29.7478 28.4147 28.1918 28.2227C26.6505 28.0454 26.8732 26.4308 25.7772 25.2894C24.6812 24.1481 23.9638 24.2134 22.4238 24.4054C20.8678 24.5827 19.5638 24.4721 19.1331 23.5241C18.7185 22.5761 19.2518 22.1227 18.1185 20.9481C17.1745 19.9694 18.1878 19.0921 18.6918 18.9734C19.4918 18.7814 20.9145 20.1801 21.7478 20.0094C24.2585 19.4921 21.2505 14.5787 25.0212 13.3427C25.6812 13.1267 26.2985 12.6014 26.6091 11.9508C28.7638 12.4174 30.7025 13.4521 32.2785 14.8841C32.7118 16.1174 33.0131 17.5334 32.7612 18.2841C32.2572 19.8401 30.9919 20.9587 32.3732 23.5054C33.8145 26.1641 34.7038 26.5254 35.3518 25.7948C35.6091 25.5041 35.9438 25.2988 36.2772 25.1748C35.7878 30.2908 32.1612 34.4987 27.3465 35.8601Z" fill="#D8ECDD" fill-opacity="0.7"/>
<path d="M20.7979 28V16.976H27.6139V18.8H22.8299V21.664H27.0219V23.472H22.8299V26.176H27.7739V28H20.7979Z" fill="url(#paint0_linear_1831_2403)"/>
<defs>
<linearGradient id="paint0_linear_1831_2403" x1="19" y1="23.4127" x2="29.0022" y2="23.4534" gradientUnits="userSpaceOnUse">
<stop offset="0.270833" stop-color="#7EC287"/>
<stop offset="1" stop-color="#308BC4"/>
</linearGradient>
</defs>
</svg>
