<svg width="88" height="30" viewBox="0 0 88 30" fill="none" xmlns="http://www.w3.org/2000/svg">
<path d="M86.3364 4.896H84.1528V12.8567H86.3364V4.896Z" fill="white"/>
<path d="M85.0235 1.76325C85.024 1.65476 85.0674 1.55088 85.1442 1.47421C85.221 1.39753 85.3249 1.35426 85.4334 1.35379C85.5782 1.35379 85.682 1.4126 85.7698 1.54404L85.9079 1.75122L87.1314 1.1524L86.9531 0.882396C86.5682 0.296942 86.0554 0.0002046 85.4334 0.0002046C85.2015 -0.00338418 84.9713 0.0402723 84.7568 0.128515C84.5423 0.216757 84.3481 0.347738 84.1858 0.51348C84.0197 0.675896 83.8884 0.870505 83.8001 1.0854C83.7118 1.30029 83.6682 1.53095 83.6721 1.76325V2.18964H83.4912V3.5263H86.8516V2.18964H85.0248L85.0235 1.76325Z" fill="white"/>
<path d="M68.6986 22.9812H68.5168V22.962H65.2371L65.2514 21.3014C65.2514 21.0992 65.3743 20.8728 65.6002 20.6394C65.6746 20.5667 65.9019 20.4888 66.3256 20.4937L68.245 20.5106C68.2504 20.5106 68.2553 20.5106 68.2611 20.5106H68.5961C68.7824 20.5101 68.9608 20.4359 69.0925 20.3043C69.2241 20.1726 69.2983 19.9942 69.2988 19.808V19.0296C69.298 18.8609 69.2367 18.6982 69.1259 18.571C69.0152 18.4438 68.8624 18.3607 68.6955 18.3368C68.6626 18.3312 68.6295 18.3279 68.5961 18.3269H68.2611C68.2415 18.3269 68.2237 18.331 68.2045 18.3327L66.3537 18.3163C65.418 18.3105 64.6294 18.5751 64.0065 19.1102C63.3604 19.6654 63.0263 20.4549 63.0196 21.4569L62.975 26.7768C62.9661 27.7793 63.2842 28.5742 63.9205 29.1382C64.5331 29.6845 65.3182 29.9656 66.2525 29.9737L68.1787 29.9906C68.2009 29.9933 68.2232 29.9982 68.2455 29.999H68.4308H68.5997C68.6193 29.999 68.6371 29.995 68.6558 29.9933C68.8203 29.9799 68.9748 29.9095 69.0927 29.794C69.2106 29.6786 69.2843 29.5256 69.301 29.3615C69.301 29.3379 69.3081 29.3169 69.3081 29.2911V28.5096C69.3071 28.4838 69.3047 28.458 69.301 28.4325C69.2841 28.2851 69.2212 28.1467 69.1213 28.0371C69.0213 27.9274 68.8893 27.852 68.7441 27.8216C68.7294 27.8185 68.7151 27.8136 68.6995 27.8114L68.2045 27.8069C68.1858 27.8069 68.1684 27.8136 68.1501 27.8167L66.2628 27.7998C65.7183 27.7949 65.5646 27.6661 65.5499 27.6528C65.3182 27.4059 65.2015 27.1792 65.2033 26.9787L65.2193 25.163H68.1822C68.203 25.1668 68.224 25.1695 68.245 25.1711H68.4304H68.5993C68.7744 25.1703 68.943 25.1046 69.0725 24.9868C69.202 24.8689 69.2833 24.7073 69.3006 24.533C69.3006 24.5094 69.3077 24.4885 69.3077 24.4626V23.6794C69.3067 23.6536 69.3043 23.6278 69.3006 23.6023C69.2829 23.4468 69.2143 23.3016 69.1054 23.1892C68.9965 23.0768 68.8535 23.0037 68.6986 22.9812Z" fill="white"/>
<path d="M39.979 18.1604C38.7798 18.1617 37.6301 18.6387 36.7821 19.4867C35.9341 20.3346 35.4571 21.4844 35.4558 22.6836V29.0225C35.4673 29.1663 35.5225 29.3031 35.614 29.4146C35.7055 29.5261 35.8289 29.607 35.9677 29.6462C36.0097 29.6586 36.0526 29.6671 36.0961 29.6716H37.0317C37.1796 29.6548 37.3183 29.5917 37.4283 29.4915C37.5383 29.3913 37.6139 29.259 37.6444 29.1134V28.9271H37.6484V26.2209H42.3088V28.8496V29.0229C42.3222 29.1873 42.3927 29.3418 42.5081 29.4597C42.6235 29.5775 42.7765 29.6512 42.9406 29.6681H43.8798C44.0272 29.6512 44.1655 29.5883 44.2751 29.4883C44.3846 29.3883 44.4599 29.2563 44.4902 29.1111L44.4929 28.7944H44.5018V22.6836C44.5005 21.4845 44.0236 20.3348 43.1757 19.4868C42.3278 18.6388 41.1782 18.1618 39.979 18.1604ZM42.3088 24.0274H37.6493V22.6836C37.6493 22.0657 37.8947 21.4731 38.3316 21.0362C38.7686 20.5993 39.3611 20.3538 39.979 20.3538C40.5969 20.3538 41.1895 20.5993 41.6265 21.0362C42.0634 21.4731 42.3088 22.0657 42.3088 22.6836V24.0274Z" fill="white"/>
<path d="M57.0882 18.1604C56.4374 18.1608 55.7944 18.302 55.2034 18.5744C54.6124 18.8467 54.0872 19.2437 53.6641 19.7381C53.0629 19.0371 52.2614 18.5372 51.3674 18.3057C50.4735 18.0742 49.53 18.1221 48.6642 18.4431C47.7983 18.7642 47.0516 19.3428 46.5246 20.1011C45.9977 20.8595 45.7157 21.7611 45.7168 22.6845V29.0225C45.7281 29.1663 45.7832 29.3031 45.8746 29.4146C45.9661 29.5262 46.0895 29.607 46.2283 29.6462C46.2702 29.6586 46.3132 29.6671 46.3566 29.6716H47.2923C47.44 29.6547 47.5787 29.5917 47.6886 29.4915C47.7985 29.3913 47.874 29.259 47.9045 29.1134V28.9271H47.908V22.6836C47.9083 22.07 48.1507 21.4813 48.5826 21.0454C49.0145 20.6095 49.601 20.3617 50.2146 20.3558C50.8282 20.35 51.4194 20.5865 51.8595 21.014C52.2997 21.4416 52.5534 22.0256 52.5654 22.6391C52.5654 22.6533 52.5654 22.6676 52.5654 22.6836V29.0225H52.5716C52.5849 29.1874 52.6556 29.3424 52.7713 29.4606C52.8871 29.5788 53.0406 29.6527 53.2052 29.6694H54.1408C54.2886 29.6525 54.4273 29.5895 54.5372 29.4893C54.6471 29.389 54.7226 29.2567 54.753 29.1111V28.9249H54.7566V28.7912H54.761V22.6836C54.761 22.6694 54.7588 22.6551 54.7588 22.6391C54.7708 22.0256 55.0245 21.4416 55.4646 21.014C55.9048 20.5865 56.4959 20.35 57.1096 20.3558C57.7232 20.3617 58.3096 20.6095 58.7416 21.0454C59.1735 21.4813 59.4159 22.07 59.4162 22.6836V28.8492H59.4242V28.9178V29.0225C59.4339 29.1309 59.4685 29.2357 59.5253 29.3286C59.5932 29.4469 59.6957 29.5415 59.8189 29.5999C59.8935 29.6362 59.9739 29.6591 60.0564 29.6676H60.989C61.1112 29.6535 61.2276 29.6075 61.3266 29.5342C61.4255 29.4609 61.5034 29.363 61.5526 29.2502C61.573 29.2054 61.5888 29.1586 61.5998 29.1107L61.6025 28.7939H61.6114V22.6836C61.6101 21.4844 61.1331 20.3346 60.2851 19.4867C59.4371 18.6387 58.2874 18.1617 57.0882 18.1604Z" fill="white"/>
<path d="M76.3409 22.9812H76.1591V22.962H72.8794L72.8941 21.3014C72.8941 21.0992 73.0167 20.8728 73.2425 20.6394C73.317 20.5667 73.5442 20.4888 73.9679 20.4937L75.8873 20.5106C75.8927 20.5106 75.898 20.5106 75.9034 20.5106H76.2389C76.4255 20.5108 76.6047 20.437 76.7369 20.3052C76.8691 20.1735 76.9437 19.9946 76.9442 19.808V19.0296C76.9434 18.8609 76.8821 18.6982 76.7713 18.571C76.6606 18.4438 76.5078 18.3607 76.3409 18.3368C76.3082 18.3312 76.2751 18.3279 76.242 18.3269H75.9065C75.8873 18.3269 75.8691 18.331 75.8503 18.3327L73.9991 18.3163C73.0634 18.3105 72.2748 18.5751 71.6524 19.1102C71.0063 19.6654 70.6722 20.4549 70.665 21.4569L70.6174 26.7777C70.6085 27.7802 70.9266 28.5751 71.5628 29.1391C72.1759 29.6854 72.9605 29.9665 73.8953 29.9745L75.8209 29.9915C75.8432 29.9942 75.8655 29.9991 75.8882 29.9999H76.0736H76.2424C76.2616 29.9999 76.2798 29.9959 76.2986 29.9942C76.4627 29.9811 76.6171 29.9111 76.735 29.7962C76.8529 29.6813 76.9269 29.5288 76.9442 29.365C76.948 29.3417 76.9506 29.3182 76.9517 29.2946V28.5096C76.9508 28.4837 76.9483 28.458 76.9442 28.4325C76.9274 28.2851 76.8646 28.1467 76.7647 28.037C76.6648 27.9274 76.5329 27.852 76.3877 27.8216C76.3725 27.8185 76.3587 27.8136 76.3431 27.8114L75.8481 27.8069C75.83 27.8093 75.812 27.8126 75.7942 27.8167L73.9064 27.7998C73.3619 27.7949 73.2087 27.6661 73.1935 27.6528C72.9618 27.4059 72.8451 27.1792 72.8469 26.9787L72.8629 25.163H75.8263C75.8471 25.1669 75.868 25.1695 75.8891 25.1711H76.0745H76.2433C76.4181 25.1702 76.5863 25.1047 76.7157 24.9873C76.8451 24.8698 76.9265 24.7087 76.9442 24.5348C76.948 24.5115 76.9506 24.488 76.9517 24.4644V23.6794C76.9508 23.6535 76.9483 23.6278 76.9442 23.6023C76.9265 23.4466 76.8577 23.3011 76.7485 23.1888C76.6394 23.0764 76.496 23.0034 76.3409 22.9812Z" fill="white"/>
<path d="M82.7888 18.1604C81.5896 18.1617 80.4399 18.6387 79.5919 19.4867C78.7439 20.3346 78.2669 21.4844 78.2656 22.6836V29.0225C78.2771 29.1663 78.3323 29.3031 78.4238 29.4146C78.5153 29.5261 78.6388 29.607 78.7776 29.6462C78.8195 29.6586 78.8624 29.6671 78.9059 29.6716H79.8415C79.9893 29.6547 80.1279 29.5916 80.2378 29.4914C80.3477 29.3912 80.4232 29.2589 80.4537 29.1134V28.9271H80.4573V22.6836C80.4573 22.0657 80.7027 21.4731 81.1396 21.0362C81.5766 20.5993 82.1691 20.3538 82.787 20.3538C83.4049 20.3538 83.9975 20.5993 84.4344 21.0362C84.8714 21.4731 85.1168 22.0657 85.1168 22.6836V28.8492V29.0225C85.1302 29.1869 85.2007 29.3414 85.3161 29.4592C85.4315 29.5771 85.5845 29.6508 85.7486 29.6676H86.6878C86.8352 29.6507 86.9735 29.5878 87.083 29.4878C87.1926 29.3879 87.2679 29.2559 87.2982 29.1107L87.3009 28.7939H87.3098V22.6836C87.3085 21.4848 86.8318 20.3354 85.9843 19.4874C85.1368 18.6395 83.9877 18.1623 82.7888 18.1604Z" fill="white"/>
<path d="M65.1314 5.85255L65.1283 5.12719C65.1283 4.79392 64.7794 4.52213 64.3388 4.4856H63.7378C63.3105 4.51277 62.9701 4.76095 62.9282 5.07283L62.9322 5.93497C62.9768 6.21567 63.2633 6.43978 63.6353 6.49592H64.3825C64.8057 6.44424 65.1332 6.17691 65.1314 5.85255Z" fill="white"/>
<path d="M86.3377 5.5588L86.3346 4.83345C86.3346 4.49973 85.9884 4.22839 85.5504 4.19141H84.9538C84.5297 4.21858 84.1915 4.46676 84.1519 4.77909L84.1559 5.64078C84.2004 5.92148 84.4847 6.14604 84.854 6.20173H85.5959C86.0147 6.14916 86.3395 5.88183 86.3377 5.5588Z" fill="white"/>
<path d="M86.3377 11.4561L86.3346 10.7307C86.3346 10.3974 85.9884 10.1256 85.5504 10.0891H84.9538C84.5297 10.1158 84.1915 10.3645 84.1519 10.6763L84.1559 11.538C84.2004 11.8192 84.4847 12.0433 84.854 12.0994H85.5959C86.0147 12.0478 86.3395 11.7804 86.3377 11.4561Z" fill="white"/>
<path d="M86.3135 3.54224H86.8424C87.0856 3.54224 87.2839 3.32793 87.3106 3.05793V2.68946C87.291 2.42747 87.1101 2.21851 86.8829 2.19312L86.2547 2.19579C86.0497 2.22297 85.8862 2.39941 85.8452 2.62753V3.08555C85.8826 3.34219 86.0782 3.54358 86.3135 3.54224Z" fill="white"/>
<path d="M83.5046 3.54224H84.0335C84.2767 3.54224 84.4746 3.32793 84.5018 3.05793V2.68946C84.4821 2.42747 84.3013 2.21851 84.074 2.19312L83.4454 2.19579C83.2408 2.22297 83.0769 2.39941 83.0359 2.62753V3.08555C83.0738 3.34219 83.268 3.54358 83.5046 3.54224Z" fill="white"/>
<path d="M25.5486 9.43685C25.2675 9.15593 24.8863 8.99813 24.4889 8.99813C24.0914 8.99813 23.7103 9.15593 23.4291 9.43685L16.6167 16.2507L9.80239 9.43685C9.6632 9.29766 9.49795 9.18724 9.31608 9.11191C9.13421 9.03658 8.93928 8.9978 8.74243 8.9978C8.54557 8.9978 8.35065 9.03658 8.16878 9.11191C7.98691 9.18724 7.82166 9.29766 7.68246 9.43685C7.54326 9.57605 7.43285 9.7413 7.35751 9.92317C7.28218 10.105 7.24341 10.3 7.24341 10.4968C7.24341 10.6937 7.28218 10.8886 7.35751 11.0705C7.43285 11.2523 7.54326 11.4176 7.68246 11.5568L15.4172 19.2924C15.4553 19.346 15.497 19.3969 15.542 19.4448C15.681 19.5842 15.8461 19.6948 16.0279 19.7702C16.2097 19.8456 16.4047 19.8843 16.6015 19.8841C16.6064 19.8841 16.6109 19.8841 16.6158 19.8841H16.6296C16.8265 19.8843 17.0215 19.8457 17.2034 19.7703C17.3853 19.6949 17.5505 19.5843 17.6895 19.4448C17.7343 19.3967 17.776 19.3458 17.8143 19.2924L25.5486 11.5577C25.688 11.4185 25.7985 11.2532 25.8739 11.0712C25.9494 10.8893 25.9882 10.6942 25.9882 10.4973C25.9882 10.3003 25.9494 10.1053 25.8739 9.92331C25.7985 9.74136 25.688 9.57606 25.5486 9.43685Z" fill="white" stroke="white" stroke-miterlimit="10"/>
<path d="M28.7165 3.63158C25.7629 1.97546 22.7399 1.94739 19.9627 3.54247L21.9526 5.53185C23.0932 5.0667 24.314 4.97491 25.5892 5.26452C27.2025 5.63166 28.2339 6.31691 28.8354 7.4201C29.5608 8.7514 29.7756 10.2061 29.4739 11.7419C29.162 13.333 28.3079 14.7543 26.7053 16.3498C26.6888 16.3659 26.6718 16.3824 26.6558 16.3988C26.6369 16.4245 26.6167 16.4492 26.5952 16.4728L17.2832 25.7848C17.1214 25.9456 16.9044 26.0386 16.6764 26.045L16.6519 26.0686L16.6447 26.062L16.6376 26.0686L16.6131 26.045C16.3851 26.0386 16.1681 25.9456 16.0062 25.7848L6.69424 16.4728C6.67279 16.4492 6.65257 16.4245 6.63364 16.3988L6.58419 16.3498C4.9802 14.7543 4.12786 13.333 3.81553 11.7419C3.51389 10.2039 3.72642 8.74918 4.45401 7.4201C5.0555 6.31691 6.08695 5.63166 7.70029 5.26452C8.97412 4.97491 10.1918 5.06581 11.3311 5.52873L13.3209 3.5389C10.5411 1.94784 7.52029 1.97636 4.56851 3.63158C1.3708 5.42492 0.687766 9.0673 1.1146 11.8792C1.45768 14.1377 2.62636 16.2055 4.79263 18.3842C5.79066 19.388 6.8328 20.3794 7.84064 21.3378L7.92529 21.4184C8.38599 21.8568 8.8464 22.296 9.3065 22.7359L12.7577 26.0651C13.7246 26.9969 14.6919 27.9284 15.6596 28.8596C15.9648 29.1527 16.3043 29.3078 16.6425 29.3078C16.9807 29.3078 17.3202 29.1527 17.6254 28.8596C18.5931 27.9284 19.5604 26.9969 20.5273 26.0651L23.9798 22.739C24.4379 22.2979 24.8983 21.8588 25.361 21.4215L25.4457 21.3409C26.4535 20.3825 27.4952 19.3912 28.4933 18.3873C30.66 16.2068 31.8287 14.139 32.1717 11.8823C32.5972 9.06774 31.9138 5.42492 28.7165 3.63158Z" fill="white" stroke="white" stroke-miterlimit="10"/>
<path d="M81.794 4.47386C81.0165 3.69058 80.1455 3.27087 79.1857 3.22632H78.6921C77.5466 3.27087 76.5708 3.68791 75.7924 4.47386C75.014 5.25981 74.6162 6.22577 74.6162 7.34455C74.6162 8.06144 74.7463 8.69902 75.0042 9.24794H65.1299V5.40685H62.9311V9.24794H52.5329V5.78512H52.528C52.5159 5.45898 52.176 5.19432 51.7442 5.15823H51.1463C50.7212 5.18541 50.3826 5.43358 50.3412 5.74547L50.3452 6.60761C50.3452 6.61785 50.3505 6.62677 50.3528 6.63701V10.5681C50.3521 11.1773 50.1098 11.7613 49.679 12.1921C49.2483 12.6228 48.6642 12.8651 48.0551 12.8658H40.2339C39.6246 12.8652 39.0406 12.623 38.6098 12.1922C38.179 11.7614 37.9367 11.1773 37.9361 10.5681V6.62142C37.9431 6.58994 37.947 6.55786 37.9477 6.52563L37.9442 5.79982C37.9442 5.46655 37.5971 5.19521 37.1587 5.15823H36.5612C36.1361 5.18541 35.7975 5.43358 35.7556 5.74547V5.77576V10.5668C35.757 11.754 36.2293 12.8922 37.0689 13.7316C37.9084 14.5711 39.0466 15.0433 40.2339 15.0446H48.0551C49.0896 15.0432 50.0918 14.6842 50.8918 14.0284C51.6919 13.3726 52.2407 12.4604 52.4451 11.4463H79.789C79.9327 11.4407 80.075 11.4155 80.2119 11.3714C82.0422 10.7575 82.9707 9.42305 82.9707 7.40604C82.9707 6.24627 82.5746 5.25803 81.794 4.47386ZM80.219 8.70036C79.912 9.01581 79.4424 9.19982 78.8231 9.2475C78.1641 9.19982 77.6749 9.01581 77.3626 8.69501C76.9736 8.31541 76.7833 7.87386 76.7833 7.34455C76.7833 6.899 76.9874 6.47973 77.4071 6.06938C77.8268 5.65903 78.2817 5.4563 78.7923 5.4563C79.3029 5.4563 79.7561 5.65725 80.1775 6.06938C80.599 6.48152 80.8013 6.89722 80.8013 7.34455C80.8022 7.87342 80.6133 8.31496 80.219 8.70036Z" fill="white"/>
<path d="M16.0529 5.10948L14.1437 7.01869C13.8181 7.34424 13.8181 7.87207 14.1437 8.19762L16.0529 10.1068C16.3784 10.4324 16.9063 10.4324 17.2318 10.1068L19.141 8.19762C19.4666 7.87207 19.4666 7.34424 19.141 7.01869L17.2318 5.10948C16.9063 4.78392 16.3784 4.78392 16.0529 5.10948Z" fill="white"/>
<path d="M44.1889 5.44783L43.1747 6.46198C43.0018 6.63494 43.0018 6.91535 43.1747 7.08831L44.1889 8.10246C44.3618 8.27542 44.6423 8.27542 44.8152 8.10246L45.8294 7.08831C46.0023 6.91535 46.0023 6.63494 45.8294 6.46198L44.8152 5.44783C44.6423 5.27487 44.3618 5.27487 44.1889 5.44783Z" fill="white"/>
<path d="M59.6662 12.8809L58.652 13.8951C58.4791 14.068 58.4791 14.3485 58.652 14.5214L59.6662 15.5356C59.8391 15.7085 60.1195 15.7085 60.2925 15.5356L61.3066 14.5214C61.4796 14.3485 61.4796 14.068 61.3066 13.8951L60.2925 12.8809C60.1195 12.708 59.8391 12.708 59.6662 12.8809Z" fill="white"/>
<path d="M63.717 12.8809L62.7028 13.8951C62.5299 14.068 62.5299 14.3485 62.7028 14.5214L63.717 15.5356C63.8899 15.7085 64.1703 15.7085 64.3433 15.5356L65.3574 14.5214C65.5304 14.3485 65.5304 14.068 65.3574 13.8951L64.3433 12.8809C64.1703 12.708 63.8899 12.708 63.717 12.8809Z" fill="white"/>
</svg>
