<svg width="21" height="16" viewBox="0 0 21 16" fill="none" xmlns="http://www.w3.org/2000/svg">
<path d="M0 8C0 8.88366 0.716344 9.6 1.6 9.6H19.4C20.2837 9.6 21 8.88366 21 8C21 7.11634 20.2837 6.4 19.4 6.4H1.6C0.716345 6.4 0 7.11634 0 8ZM0 14.4C0 15.2837 0.716344 16 1.6 16H19.4C20.2837 16 21 15.2837 21 14.4C21 13.5163 20.2837 12.8 19.4 12.8H1.6C0.716345 12.8 0 13.5163 0 14.4ZM0 1.6C0 2.48366 0.716344 3.2 1.6 3.2H19.4C20.2837 3.2 21 2.48366 21 1.6C21 0.716345 20.2837 0 19.4 0H1.6C0.716345 0 0 0.716345 0 1.6Z" fill="white"/>
</svg>
