<svg width="95" height="95" viewBox="0 0 95 95" fill="none" xmlns="http://www.w3.org/2000/svg">
<path d="M86.3122 24.8562C85.3237 23.8685 83.9835 23.3137 82.5862 23.3137C81.1888 23.3137 79.8486 23.8685 78.8601 24.8562L54.9076 48.8134L30.9488 24.8562C30.4593 24.3668 29.8783 23.9786 29.2389 23.7137C28.5994 23.4488 27.9141 23.3125 27.2219 23.3125C26.5298 23.3125 25.8444 23.4488 25.205 23.7137C24.5655 23.9786 23.9845 24.3668 23.4951 24.8562C23.0057 25.3456 22.6175 25.9266 22.3526 26.5661C22.0877 27.2055 21.9514 27.8909 21.9514 28.583C21.9514 29.2752 22.0877 29.9605 22.3526 30.6C22.6175 31.2394 23.0057 31.8204 23.4951 32.3098L50.6904 59.5083C50.8242 59.6967 50.9707 59.8757 51.1291 60.044C51.6177 60.5341 52.1983 60.9229 52.8376 61.188C53.4769 61.453 54.1622 61.5892 54.8543 61.5886C54.8715 61.5886 54.8872 61.5886 54.9044 61.5886H54.953C55.6453 61.5894 56.331 61.4533 56.9706 61.1883C57.6101 60.9232 58.191 60.5343 58.6798 60.044C58.8372 59.8749 58.9837 59.6959 59.1185 59.5083L86.3122 32.313C86.8022 31.8235 87.1909 31.2423 87.456 30.6026C87.7212 29.9629 87.8577 29.2771 87.8577 28.5846C87.8577 27.8921 87.7212 27.2063 87.456 26.5666C87.1909 25.9268 86.8022 25.3456 86.3122 24.8562Z" fill="white" fill-opacity="0.1"/>
<path d="M97.4506 4.44471C87.066 -1.37815 76.4369 -1.47684 66.6726 4.1314L73.6689 11.126C77.6792 9.49057 81.9716 9.16786 86.455 10.1861C92.1275 11.477 95.7541 13.8863 97.8689 17.7651C100.419 22.4459 101.174 27.5607 100.114 32.9606C99.0172 38.5548 96.0141 43.552 90.3792 49.1619C90.3213 49.2183 90.2617 49.2762 90.2053 49.3342C90.1388 49.4244 90.0677 49.5112 89.9923 49.5942L57.2514 82.3351C56.6824 82.9003 55.9195 83.2274 55.1178 83.25L55.0316 83.333L55.0066 83.3095L54.9815 83.333L54.8953 83.25C54.0937 83.2274 53.3307 82.9003 52.7617 82.3351L20.0208 49.5942C19.9454 49.5112 19.8743 49.4244 19.8078 49.3342L19.6339 49.1619C13.9943 43.552 10.9975 38.5548 9.89936 32.9606C8.83881 27.5529 9.58605 22.4381 12.1442 17.7651C14.2591 13.8863 17.8856 11.477 23.5581 10.1861C28.0369 9.16786 32.3182 9.48743 36.3239 11.1151L43.3201 4.11887C33.5464 -1.47528 22.9252 -1.37502 12.5468 4.44471C1.30371 10.7501 -1.09781 23.5566 0.402944 33.4431C1.60919 41.3839 5.71824 48.6543 13.3348 56.3147C16.8439 59.8442 20.508 63.3297 24.0516 66.6994L24.3492 66.9829C25.969 68.5244 27.5878 70.0685 29.2055 71.6152L41.34 83.3205C44.7394 86.5966 48.1404 89.8718 51.5429 93.1459C52.616 94.1766 53.8097 94.7218 54.9987 94.7218C56.1877 94.7218 57.3814 94.1766 58.4545 93.1459C61.8571 89.8718 65.258 86.5966 68.6575 83.3205L80.7967 71.6262C82.4071 70.0753 84.0258 68.5312 85.653 66.9939L85.9506 66.7103C89.4941 63.3407 93.1567 59.8551 96.6658 56.3257C104.284 48.659 108.393 41.3886 109.599 33.4541C111.095 23.5582 108.692 10.7501 97.4506 4.44471Z" fill="white" fill-opacity="0.1"/>
<path d="M52.9259 9.64094L46.2132 16.3537C45.0685 17.4984 45.0685 19.3542 46.2132 20.4988L52.9259 27.2116C54.0706 28.3562 55.9264 28.3562 57.071 27.2116L63.7838 20.4988C64.9284 19.3542 64.9284 17.4984 63.7838 16.3537L57.071 9.64094C55.9264 8.4963 54.0706 8.4963 52.9259 9.64094Z" fill="white" fill-opacity="0.1"/>
</svg>
