<svg width="125" height="48" viewBox="0 0 125 48" fill="none" xmlns="http://www.w3.org/2000/svg">
<g filter="url(#filter0_d_208_765)">
<path d="M118.782 6.52783H115.871V17.1421H118.782V6.52783Z" fill="white"/>
<path d="M117.031 2.351C117.032 2.20635 117.09 2.06784 117.192 1.96561C117.295 1.86338 117.433 1.80568 117.578 1.80505C117.771 1.80505 117.909 1.88347 118.026 2.05872L118.211 2.33496L119.842 1.53653L119.604 1.17653C119.091 0.395922 118.407 0.000272801 117.578 0.000272801C117.269 -0.00451224 116.962 0.0536964 116.676 0.171353C116.39 0.28901 116.131 0.463651 115.914 0.68464C115.693 0.901195 115.518 1.16067 115.4 1.4472C115.282 1.73372 115.224 2.04126 115.229 2.351V2.91953H114.988V4.70173H119.469V2.91953H117.033L117.031 2.351Z" fill="white"/>
<path d="M95.2647 30.6416H95.0224V30.6161H90.6494L90.6684 28.402C90.6684 28.1323 90.8324 27.8305 91.1336 27.5192C91.2328 27.4224 91.5358 27.3184 92.1007 27.325L94.66 27.3475C94.6671 27.3475 94.6736 27.3475 94.6814 27.3475H95.1281C95.3764 27.3469 95.6143 27.248 95.7899 27.0725C95.9654 26.8969 96.0643 26.659 96.065 26.4107V25.3729C96.064 25.148 95.9822 24.931 95.8345 24.7614C95.6869 24.5919 95.4832 24.481 95.2606 24.4491C95.2168 24.4417 95.1725 24.4373 95.1281 24.436H94.6814C94.6552 24.436 94.6315 24.4414 94.6059 24.4437L92.1381 24.4218C90.8906 24.414 89.8391 24.7669 89.0086 25.4804C88.1472 26.2206 87.7016 27.2733 87.6927 28.6093L87.6333 35.7025C87.6214 37.0392 88.0456 38.099 88.8939 38.8511C89.7108 39.5794 90.7575 39.9543 92.0033 39.965L94.5715 39.9875C94.6012 39.9911 94.6309 39.9976 94.6606 39.9988H94.9077H95.1329C95.159 39.9988 95.1828 39.9935 95.2077 39.9911C95.4269 39.9733 95.633 39.8794 95.7902 39.7255C95.9473 39.5716 96.0456 39.3675 96.0679 39.1487C96.0679 39.1172 96.0774 39.0893 96.0774 39.0548V38.0128C96.0761 37.9784 96.0729 37.9441 96.0679 37.9101C96.0454 37.7135 95.9615 37.529 95.8282 37.3828C95.695 37.2366 95.519 37.1361 95.3253 37.0956C95.3057 37.0914 95.2867 37.0849 95.2659 37.0819L94.6059 37.076C94.581 37.076 94.5578 37.0849 94.5334 37.0891L92.017 37.0665C91.291 37.06 91.086 36.8883 91.0664 36.8705C90.7575 36.5413 90.6019 36.239 90.6043 35.9716L90.6256 33.5508H94.5762C94.6039 33.5559 94.6319 33.5594 94.66 33.5615H94.9071H95.1323C95.3657 33.5604 95.5905 33.4729 95.7632 33.3158C95.9359 33.1587 96.0443 32.9431 96.0673 32.7108C96.0673 32.6793 96.0768 32.6514 96.0768 32.6169V31.5726C96.0755 31.5382 96.0723 31.5038 96.0673 31.4698C96.0438 31.2625 95.9523 31.0688 95.8071 30.919C95.6619 30.7692 95.4712 30.6717 95.2647 30.6416Z" fill="white"/>
<path d="M56.9721 24.2141C55.3732 24.2158 53.8402 24.8518 52.7095 25.9825C51.5789 27.1131 50.9429 28.6461 50.9412 30.2451V38.6969C50.9564 38.8886 51.03 39.0711 51.1521 39.2197C51.2741 39.3684 51.4387 39.4762 51.6237 39.5286C51.6796 39.545 51.7369 39.5564 51.7948 39.5624H53.0424C53.2395 39.5399 53.4245 39.4559 53.5711 39.3223C53.7178 39.1887 53.8186 39.0122 53.8592 38.8181V38.5697H53.8646V34.9614H60.0785V38.4664V38.6975C60.0964 38.9167 60.1904 39.1227 60.3443 39.2798C60.4981 39.4369 60.7021 39.5352 60.9209 39.5577H62.1732C62.3697 39.5351 62.5541 39.4513 62.7002 39.318C62.8463 39.1846 62.9467 39.0087 62.9871 38.8151L62.9906 38.3927H63.0025V30.2451C63.0008 28.6462 62.3649 27.1133 61.2344 25.9827C60.1039 24.852 58.571 24.216 56.9721 24.2141ZM60.0785 32.0368H53.8658V30.2451C53.8658 29.4212 54.193 28.6311 54.7756 28.0485C55.3582 27.466 56.1483 27.1387 56.9721 27.1387C57.796 27.1387 58.5861 27.466 59.1687 28.0485C59.7512 28.6311 60.0785 29.4212 60.0785 30.2451V32.0368Z" fill="white"/>
<path d="M79.7844 24.2141C78.9167 24.2147 78.0594 24.403 77.2714 24.7661C76.4833 25.1292 75.7832 25.6585 75.219 26.3177C74.4174 25.3831 73.3487 24.7165 72.1567 24.4078C70.9648 24.0991 69.7069 24.1631 68.5524 24.5911C67.3979 25.0191 66.4023 25.7906 65.6997 26.8017C64.997 27.8129 64.6211 29.015 64.6226 30.2463V38.6969C64.6376 38.8886 64.7111 39.0711 64.833 39.2198C64.955 39.3685 65.1195 39.4762 65.3046 39.5286C65.3604 39.545 65.4177 39.5564 65.4756 39.5624H66.7232C66.9202 39.5399 67.1051 39.4558 67.2517 39.3222C67.3982 39.1886 67.4989 39.0122 67.5394 38.8181V38.5697H67.5442V30.2451C67.5445 29.4269 67.8678 28.6419 68.4437 28.0608C69.0196 27.4796 69.8015 27.1492 70.6197 27.1414C71.4378 27.1335 72.226 27.4489 72.8129 28.019C73.3998 28.589 73.738 29.3677 73.754 30.1857C73.754 30.2047 73.754 30.2237 73.754 30.2451V38.6969H73.7623C73.7801 38.9167 73.8743 39.1234 74.0286 39.281C74.183 39.4386 74.3876 39.5371 74.6071 39.5595H75.8546C76.0516 39.5369 76.2366 39.4529 76.3831 39.3193C76.5296 39.1856 76.6303 39.0092 76.6709 38.8151V38.5668H76.6756V38.3886H76.6816V30.2451C76.6816 30.2261 76.6786 30.2071 76.6786 30.1857C76.6946 29.3677 77.0328 28.589 77.6197 28.019C78.2066 27.4489 78.9948 27.1335 79.8129 27.1414C80.631 27.1492 81.413 27.4796 81.9889 28.0608C82.5648 28.6419 82.888 29.4269 82.8884 30.2451V38.4658H82.8991V38.5573V38.6969C82.9121 38.8415 82.9582 38.9811 83.0339 39.105C83.1245 39.2627 83.2611 39.389 83.4254 39.4668C83.5249 39.5152 83.632 39.5457 83.7421 39.5571H84.9855C85.1485 39.5382 85.3037 39.4769 85.4356 39.3792C85.5675 39.2815 85.6714 39.1509 85.737 39.0004C85.7641 38.9407 85.7852 38.8784 85.7999 38.8145L85.8035 38.3921H85.8154V30.2451C85.8136 28.6461 85.1777 27.1131 84.047 25.9825C82.9164 24.8518 81.3834 24.2158 79.7844 24.2141Z" fill="white"/>
<path d="M105.455 30.6416H105.212V30.6161H100.839L100.859 28.402C100.859 28.1323 101.022 27.8305 101.323 27.5192C101.423 27.4224 101.726 27.3184 102.291 27.325L104.85 27.3475C104.857 27.3475 104.864 27.3475 104.871 27.3475H105.319C105.567 27.3479 105.806 27.2494 105.983 27.0737C106.159 26.8981 106.258 26.6596 106.259 26.4107V25.3729C106.258 25.148 106.176 24.931 106.029 24.7614C105.881 24.5919 105.677 24.481 105.455 24.4491C105.411 24.4417 105.367 24.4373 105.323 24.436H104.875C104.85 24.436 104.825 24.4414 104.801 24.4437L102.332 24.4218C101.085 24.414 100.033 24.7669 99.2033 25.4804C98.3419 26.2206 97.8963 27.2733 97.8868 28.6093L97.8232 35.7037C97.8114 37.0404 98.2355 38.1002 99.0838 38.8523C99.9013 39.5806 100.947 39.9554 102.194 39.9661L104.761 39.9887C104.791 39.9923 104.821 39.9988 104.851 40H105.098H105.323C105.349 40 105.373 39.9947 105.398 39.9923C105.617 39.9749 105.823 39.8815 105.98 39.7283C106.137 39.5751 106.236 39.3718 106.259 39.1535C106.264 39.1224 106.267 39.091 106.269 39.0596V38.0128C106.268 37.9784 106.264 37.9441 106.259 37.9101C106.237 37.7135 106.153 37.529 106.02 37.3828C105.887 37.2366 105.711 37.1361 105.517 37.0956C105.497 37.0914 105.478 37.0849 105.458 37.0819L104.798 37.076C104.773 37.0791 104.749 37.0835 104.726 37.0891L102.209 37.0665C101.483 37.06 101.278 36.8883 101.258 36.8705C100.949 36.5413 100.794 36.239 100.796 35.9716L100.817 33.5508H104.768C104.796 33.5559 104.824 33.5595 104.852 33.5615H105.099H105.325C105.557 33.5603 105.782 33.4731 105.954 33.3165C106.127 33.1598 106.235 32.945 106.259 32.7132C106.264 32.6821 106.267 32.6508 106.269 32.6193V31.5726C106.268 31.5381 106.264 31.5038 106.259 31.4698C106.235 31.2622 106.144 31.0683 105.998 30.9184C105.853 30.7686 105.661 30.6712 105.455 30.6416Z" fill="white"/>
<path d="M114.052 24.2141C112.453 24.2158 110.92 24.8518 109.789 25.9825C108.659 27.1131 108.023 28.6461 108.021 30.2451V38.6969C108.036 38.8886 108.11 39.0711 108.232 39.2197C108.354 39.3684 108.519 39.4762 108.704 39.5286C108.759 39.545 108.817 39.5564 108.875 39.5624H110.122C110.319 39.5398 110.504 39.4557 110.651 39.3221C110.797 39.1885 110.898 39.0121 110.938 38.8181V38.5697H110.943V30.2451C110.943 29.4212 111.27 28.6311 111.853 28.0485C112.436 27.466 113.226 27.1387 114.05 27.1387C114.873 27.1387 115.664 27.466 116.246 28.0485C116.829 28.6311 117.156 29.4212 117.156 30.2451V38.4658V38.6969C117.174 38.9161 117.268 39.1221 117.422 39.2792C117.576 39.4363 117.78 39.5346 117.998 39.5571H119.251C119.447 39.5345 119.631 39.4507 119.778 39.3174C119.924 39.1841 120.024 39.0081 120.064 38.8145L120.068 38.3921H120.08V30.2451C120.078 28.6466 119.443 27.1141 118.313 25.9835C117.183 24.8529 115.65 24.2166 114.052 24.2141Z" fill="white"/>
<path d="M90.5086 7.80331L90.5045 6.83617C90.5045 6.39181 90.0393 6.02943 89.4518 5.98071H88.6504C88.0807 6.01695 87.6269 6.34785 87.571 6.76369L87.5764 7.91322C87.6358 8.28748 88.0178 8.5863 88.5138 8.66115H89.51C90.0744 8.59224 90.511 8.2358 90.5086 7.80331Z" fill="white"/>
<path d="M118.784 7.41157L118.78 6.44443C118.78 5.99947 118.318 5.63769 117.734 5.58838H116.939C116.373 5.62462 115.922 5.95551 115.869 6.37196L115.875 7.52088C115.934 7.89515 116.313 8.19456 116.806 8.26882H117.795C118.353 8.19871 118.786 7.84227 118.784 7.41157Z" fill="white"/>
<path d="M118.784 15.275L118.78 14.3079C118.78 13.8635 118.318 13.5011 117.734 13.4524H116.939C116.373 13.488 115.922 13.8195 115.869 14.2354L115.875 15.3843C115.934 15.7592 116.313 16.058 116.806 16.1328H117.795C118.353 16.0639 118.786 15.7075 118.784 15.275Z" fill="white"/>
<path d="M118.751 4.72291H119.456C119.781 4.72291 120.045 4.43716 120.081 4.07716V3.58586C120.055 3.23655 119.814 2.95793 119.511 2.92407L118.673 2.92764C118.4 2.96387 118.182 3.19913 118.127 3.50329V4.11399C118.177 4.45617 118.438 4.72469 118.751 4.72291Z" fill="white"/>
<path d="M115.006 4.72291H115.711C116.036 4.72291 116.3 4.43716 116.336 4.07716V3.58586C116.31 3.23655 116.069 2.95793 115.766 2.92407L114.927 2.92764C114.655 2.96387 114.436 3.19913 114.381 3.50329V4.11399C114.432 4.45617 114.691 4.72469 115.006 4.72291Z" fill="white"/>
<path d="M37.7314 12.5827C37.3566 12.2082 36.8483 11.9978 36.3184 11.9978C35.7885 11.9978 35.2803 12.2082 34.9054 12.5827L25.8221 21.6678L16.7364 12.5827C16.5508 12.3971 16.3305 12.2499 16.088 12.1495C15.8455 12.049 15.5856 11.9973 15.3232 11.9973C15.0607 11.9973 14.8008 12.049 14.5583 12.1495C14.3158 12.2499 14.0955 12.3971 13.9099 12.5827C13.7243 12.7683 13.577 12.9886 13.4766 13.2311C13.3762 13.4736 13.3245 13.7335 13.3245 13.996C13.3245 14.2585 13.3762 14.5184 13.4766 14.7609C13.577 15.0034 13.7243 15.2237 13.9099 15.4093L24.2229 25.7235C24.2736 25.795 24.3292 25.8628 24.3892 25.9267C24.5745 26.1125 24.7947 26.26 25.0371 26.3605C25.2796 26.461 25.5395 26.5126 25.8019 26.5124C25.8085 26.5124 25.8144 26.5124 25.8209 26.5124H25.8394C26.1019 26.5127 26.3619 26.4611 26.6045 26.3606C26.847 26.2601 27.0673 26.1126 27.2526 25.9267C27.3123 25.8625 27.3679 25.7947 27.419 25.7235L37.7314 15.4105C37.9172 15.2249 38.0646 15.0045 38.1652 14.7619C38.2657 14.5193 38.3175 14.2592 38.3175 13.9966C38.3175 13.734 38.2657 13.4739 38.1652 13.2313C38.0646 12.9887 37.9172 12.7683 37.7314 12.5827Z" fill="white" stroke="white" stroke-miterlimit="10"/>
<path d="M41.9553 4.84202C38.0172 2.63387 33.9865 2.59644 30.2837 4.72321L32.9368 7.37572C34.4576 6.75552 36.0853 6.63314 37.7855 7.01928C39.9367 7.50879 41.3119 8.42247 42.1139 9.89338C43.0811 11.6685 43.3674 13.6081 42.9652 15.6558C42.5494 17.7773 41.4105 19.6723 39.2737 21.7997C39.2517 21.8211 39.2291 21.8431 39.2077 21.865C39.1825 21.8993 39.1555 21.9322 39.127 21.9637L26.7109 34.3797C26.4952 34.594 26.2058 34.7181 25.9018 34.7266L25.8691 34.7581L25.8596 34.7492L25.8501 34.7581L25.8175 34.7266C25.5134 34.7181 25.2241 34.594 25.0083 34.3797L12.5923 21.9637C12.5637 21.9322 12.5368 21.8993 12.5115 21.865L12.4456 21.7997C10.3069 19.6723 9.17049 17.7773 8.75404 15.6558C8.35186 13.6051 8.63523 11.6655 9.60534 9.89338C10.4073 8.42247 11.7826 7.50879 13.9337 7.01928C15.6322 6.63314 17.2557 6.75433 18.7748 7.37156L21.4279 4.71846C17.7215 2.59704 13.6937 2.63506 9.75802 4.84202C5.49439 7.23315 4.58369 12.0897 5.1528 15.8388C5.61024 18.8501 7.16848 21.6072 10.0568 24.5122C11.3875 25.8506 12.7771 27.1724 14.1209 28.4503L14.2337 28.5578C14.848 29.1424 15.4619 29.7279 16.0753 30.3145L20.677 34.7533C21.9661 35.9957 23.2558 37.2377 24.5461 38.4793C24.9531 38.8702 25.4058 39.077 25.8567 39.077C26.3076 39.077 26.7602 38.8702 27.1672 38.4793C28.4575 37.2377 29.7472 35.9957 31.0363 34.7533L35.6398 30.3186C36.2505 29.7305 36.8643 29.145 37.4814 28.562L37.5943 28.4544C38.938 27.1766 40.327 25.8548 41.6577 24.5164C44.5466 21.609 46.1049 18.8519 46.5623 15.843C47.1296 12.0902 46.2183 7.23315 41.9553 4.84202Z" fill="white" stroke="white" stroke-miterlimit="10"/>
<path d="M112.725 5.96539C111.689 4.92102 110.527 4.36141 109.248 4.302H108.589C107.062 4.36141 105.761 4.91746 104.723 5.96539C103.685 7.01333 103.155 8.30127 103.155 9.79298C103.155 10.7488 103.328 11.5989 103.672 12.3308H90.5066V7.20937H87.5749V12.3308H73.7105V7.71374H73.7039C73.6879 7.27888 73.2346 6.926 72.659 6.87788H71.8617C71.295 6.91412 70.8435 7.24502 70.7883 7.66087L70.7936 8.81039C70.7936 8.82405 70.8007 8.83593 70.8037 8.8496V14.0911C70.8028 14.9033 70.4797 15.682 69.9053 16.2563C69.331 16.8307 68.5523 17.1537 67.7401 17.1547H57.3118C56.4995 17.1539 55.7207 16.8309 55.1464 16.2565C54.572 15.6821 54.249 14.9033 54.2482 14.0911V8.8288C54.2575 8.78684 54.2627 8.74406 54.2636 8.70108L54.2589 7.73334C54.2589 7.28898 53.7961 6.92719 53.2115 6.87788H52.4149C51.8482 6.91412 51.3967 7.24502 51.3408 7.66087V7.70126V14.0893C51.3427 15.6722 51.9724 17.1898 53.0918 18.3091C54.2112 19.4284 55.7288 20.0579 57.3118 20.0597H67.7401C69.1194 20.0578 70.4557 19.5791 71.5224 18.7048C72.5892 17.8304 73.3209 16.6141 73.5934 15.262H110.052C110.244 15.2545 110.433 15.2209 110.616 15.1622C113.056 14.3435 114.294 12.5643 114.294 9.87496C114.294 8.3286 113.766 7.01095 112.725 5.96539ZM110.625 11.6007C110.216 12.0213 109.59 12.2667 108.764 12.3302C107.885 12.2667 107.233 12.0213 106.817 11.5936C106.298 11.0875 106.044 10.4987 106.044 9.79298C106.044 9.19891 106.317 8.63989 106.876 8.09275C107.436 7.54562 108.042 7.27531 108.723 7.27531C109.404 7.27531 110.008 7.54324 110.57 8.09275C111.132 8.64227 111.402 9.19653 111.402 9.79298C111.403 10.4981 111.151 11.0869 110.625 11.6007Z" fill="white"/>
<path d="M25.0706 6.81272L22.525 9.35834C22.0909 9.79241 22.0909 10.4962 22.525 10.9302L25.0706 13.4759C25.5047 13.9099 26.2084 13.9099 26.6425 13.4759L29.1881 10.9302C29.6222 10.4962 29.6222 9.79241 29.1881 9.35834L26.6425 6.81272C26.2084 6.37865 25.5047 6.37865 25.0706 6.81272Z" fill="white"/>
<path d="M62.5852 7.26369L61.233 8.6159C61.0024 8.8465 61.0024 9.22039 61.233 9.451L62.5852 10.8032C62.8158 11.0338 63.1897 11.0338 63.4203 10.8032L64.7725 9.451C65.0031 9.22039 65.0031 8.8465 64.7725 8.6159L63.4203 7.26369C63.1897 7.03308 62.8158 7.03308 62.5852 7.26369Z" fill="white"/>
<path d="M83.2214 17.1746L81.8692 18.5268C81.6386 18.7574 81.6386 19.1313 81.8692 19.3619L83.2214 20.7141C83.452 20.9447 83.8259 20.9447 84.0565 20.7141L85.4087 19.3619C85.6393 19.1313 85.6393 18.7574 85.4087 18.5268L84.0565 17.1746C83.8259 16.944 83.452 16.944 83.2214 17.1746Z" fill="white"/>
<path d="M88.6228 17.1746L87.2706 18.5268C87.04 18.7574 87.04 19.1313 87.2706 19.3619L88.6228 20.7141C88.8534 20.9447 89.2273 20.9447 89.4579 20.7141L90.8101 19.3619C91.0407 19.1313 91.0407 18.7574 90.8101 18.5268L89.4579 17.1746C89.2273 16.944 88.8534 16.944 88.6228 17.1746Z" fill="white"/>
</g>
<defs>
<filter id="filter0_d_208_765" x="0.500732" y="0" width="123.58" height="48" filterUnits="userSpaceOnUse" color-interpolation-filters="sRGB">
<feFlood flood-opacity="0" result="BackgroundImageFix"/>
<feColorMatrix in="SourceAlpha" type="matrix" values="0 0 0 0 0 0 0 0 0 0 0 0 0 0 0 0 0 0 127 0" result="hardAlpha"/>
<feOffset dy="4"/>
<feGaussianBlur stdDeviation="2"/>
<feComposite in2="hardAlpha" operator="out"/>
<feColorMatrix type="matrix" values="0 0 0 0 0 0 0 0 0 0 0 0 0 0 0 0 0 0 0.1 0"/>
<feBlend mode="normal" in2="BackgroundImageFix" result="effect1_dropShadow_208_765"/>
<feBlend mode="normal" in="SourceGraphic" in2="effect1_dropShadow_208_765" result="shape"/>
</filter>
</defs>
</svg>
