<svg width="40" height="40" viewBox="0 0 40 40" fill="none" xmlns="http://www.w3.org/2000/svg">
<circle cx="20" cy="20" r="20" fill="#F1F1F1" fill-opacity="0.1"/>
<circle cx="20" cy="20" r="20" fill="url(#paint0_linear_1115_7902)"/>
<path fill-rule="evenodd" clip-rule="evenodd" d="M15.6497 25.7371V26.5521V27.3672H15.2929V27.1693C15.1797 27.3161 15.008 27.4082 14.7746 27.4082C14.3144 27.4082 13.9537 27.0502 13.9537 26.5521C13.9537 26.0544 14.3144 25.6961 14.7746 25.6961C15.008 25.6961 15.1797 25.7882 15.2929 25.935V25.7371H15.6497ZM14.819 26.0302C14.5101 26.0302 14.3211 26.2656 14.3211 26.5521C14.3211 26.8387 14.5101 27.074 14.819 27.074C15.1141 27.074 15.3133 26.8488 15.3133 26.5521C15.3133 26.2555 15.1141 26.0302 14.819 26.0302ZM27.7075 26.5521C27.7075 26.2656 27.8965 26.0302 28.2054 26.0302C28.5009 26.0302 28.6997 26.2555 28.6997 26.5521C28.6997 26.8488 28.5009 27.074 28.2054 27.074C27.8965 27.074 27.7075 26.8387 27.7075 26.5521ZM29.0365 25.0824V26.5521V27.3672H28.6793V27.1693C28.5661 27.3161 28.3944 27.4082 28.1609 27.4082C27.7008 27.4082 27.34 27.0502 27.34 26.5521C27.34 26.0544 27.7008 25.6961 28.1609 25.6961C28.3944 25.6961 28.5661 25.7882 28.6793 25.935V25.0824H29.0365ZM20.0788 26.0134C20.3087 26.0134 20.4565 26.1567 20.4942 26.4089H19.6426C19.6807 26.1735 19.8246 26.0134 20.0788 26.0134ZM19.2685 26.5521C19.2685 26.0439 19.6049 25.6961 20.0859 25.6961C20.5457 25.6961 20.8616 26.0439 20.8651 26.5521C20.8651 26.5998 20.8616 26.6443 20.8581 26.6884H19.6395C19.691 26.9819 19.9004 27.0877 20.1303 27.0877C20.2949 27.0877 20.4702 27.026 20.6077 26.9171L20.7826 27.1798C20.5834 27.3469 20.357 27.4082 20.1099 27.4082C19.6186 27.4082 19.2685 27.0705 19.2685 26.5521ZM24.3944 26.5521C24.3944 26.2656 24.5834 26.0302 24.8923 26.0302C25.1874 26.0302 25.3866 26.2555 25.3866 26.5521C25.3866 26.8488 25.1874 27.074 24.8923 27.074C24.5834 27.074 24.3944 26.8387 24.3944 26.5521ZM25.723 25.7371V26.5521V27.3672L25.3662 27.3672V27.1693C25.2526 27.3161 25.0813 27.4082 24.8479 27.4082C24.3877 27.4082 24.027 27.0502 24.027 26.5521C24.027 26.0544 24.3877 25.6961 24.8479 25.6961C25.0813 25.6961 25.2526 25.7882 25.3662 25.935V25.7371H25.723ZM22.3792 26.5521C22.3792 27.0467 22.7258 27.4082 23.2547 27.4082C23.5019 27.4082 23.6666 27.3535 23.845 27.2138L23.6736 26.9273C23.5396 27.0229 23.399 27.074 23.2441 27.074C22.9592 27.0705 22.7498 26.866 22.7498 26.5521C22.7498 26.2383 22.9592 26.0337 23.2441 26.0302C23.399 26.0302 23.5396 26.0814 23.6736 26.177L23.845 25.8905C23.6666 25.7507 23.5019 25.6961 23.2547 25.6961C22.7258 25.6961 22.3792 26.0575 22.3792 26.5521ZM26.547 25.935C26.6397 25.7917 26.7737 25.6961 26.9796 25.6961C27.0519 25.6961 27.1549 25.7097 27.2339 25.7406L27.1238 26.0747C27.0484 26.0439 26.973 26.0337 26.9006 26.0337C26.6672 26.0337 26.5505 26.1836 26.5505 26.4534V27.3672H26.1933V25.7371L26.547 25.7371V25.935ZM17.4145 25.8667C17.2427 25.7542 17.0062 25.6961 16.7453 25.6961C16.3295 25.6961 16.0619 25.894 16.0619 26.218C16.0619 26.4838 16.2611 26.6478 16.6281 26.6989L16.7967 26.7227C16.9924 26.75 17.0848 26.8012 17.0848 26.8933C17.0848 27.0194 16.9543 27.0912 16.7107 27.0912C16.4635 27.0912 16.2851 27.0128 16.1648 26.9206L15.9967 27.1966C16.1924 27.3399 16.4395 27.4082 16.7071 27.4082C17.1811 27.4082 17.4557 27.1865 17.4557 26.8761C17.4557 26.5896 17.2396 26.4397 16.8824 26.3886L16.7142 26.3644C16.5598 26.3441 16.436 26.3136 16.436 26.2043C16.436 26.0849 16.5527 26.0134 16.7484 26.0134C16.9578 26.0134 17.1606 26.0919 17.26 26.1532L17.4145 25.8667ZM21.5862 25.935C21.6786 25.7917 21.8126 25.6961 22.0185 25.6961C22.0908 25.6961 22.1938 25.7097 22.2727 25.7406L22.1627 26.0747C22.0873 26.0439 22.0118 26.0337 21.9395 26.0337C21.7061 26.0337 21.5894 26.1836 21.5894 26.4534V27.3672H21.2326V25.7371H21.5862V25.935ZM18.9733 25.7371H18.3898V25.2425H18.029V25.7371H17.6962V26.0611H18.029V26.8047C18.029 27.183 18.1768 27.4082 18.5988 27.4082C18.7537 27.4082 18.9321 27.3606 19.0452 27.2821L18.9423 26.9784C18.8358 27.0397 18.7191 27.0705 18.6263 27.0705C18.4479 27.0705 18.3898 26.9612 18.3898 26.7977V26.0611H18.9733V25.7371ZM13.6381 26.3441V27.3672H13.2773V26.46C13.2773 26.1836 13.1606 26.0302 12.917 26.0302C12.68 26.0302 12.5154 26.1805 12.5154 26.4635V27.3672H12.1546V26.46C12.1546 26.1836 12.0348 26.0302 11.7978 26.0302C11.5538 26.0302 11.3958 26.1805 11.3958 26.4635V27.3672H11.0355V25.7371H11.3927V25.9381C11.5267 25.7472 11.698 25.6961 11.8733 25.6961C12.124 25.6961 12.3024 25.8054 12.4156 25.9861C12.5669 25.7574 12.783 25.6926 12.9924 25.6961C13.3909 25.6996 13.6381 25.9588 13.6381 26.3441Z" fill="#231F20"/>
<path d="M22.7042 22.967H17.2962V13.3125H22.7042V22.967Z" fill="#FF5F00"/>
<path d="M17.6393 18.1402C17.6393 16.1818 18.5623 14.4373 19.9998 13.313C18.9486 12.4909 17.622 12.0002 16.1802 12.0002C12.7669 12.0002 10 14.7492 10 18.1402C10 21.5313 12.7669 24.2803 16.1802 24.2803C17.622 24.2803 18.9486 23.7896 19.9998 22.9675C18.5623 21.8432 17.6393 20.0987 17.6393 18.1402" fill="#EB001B"/>
<path d="M30 18.1402C30 21.5313 27.2331 24.2803 23.8198 24.2803C22.378 24.2803 21.0514 23.7896 19.9998 22.9675C21.4377 21.8432 22.3608 20.0987 22.3608 18.1402C22.3608 16.1818 21.4377 14.4373 19.9998 13.313C21.0514 12.4909 22.378 12.0002 23.8198 12.0002C27.2331 12.0002 30 14.7492 30 18.1402" fill="#F79E1B"/>
<defs>
<linearGradient id="paint0_linear_1115_7902" x1="20" y1="0" x2="20" y2="40" gradientUnits="userSpaceOnUse">
<stop stop-color="white" stop-opacity="0.7"/>
<stop offset="1" stop-color="white" stop-opacity="0.1"/>
</linearGradient>
</defs>
</svg>
