<svg width="40" height="40" viewBox="0 0 40 40" fill="none" xmlns="http://www.w3.org/2000/svg">
<circle cx="20" cy="20" r="20" fill="#F1F1F1" fill-opacity="0.1"/>
<circle cx="20" cy="20" r="20" fill="url(#paint0_linear_1115_7903)"/>
<path fill-rule="evenodd" clip-rule="evenodd" d="M14.0003 23.8235H11.9232L10.3657 17.7066C10.2917 17.4252 10.1348 17.1765 9.90388 17.0592C9.32765 16.7646 8.69269 16.5301 8 16.4119V16.1764H11.346C11.8078 16.1764 12.1541 16.5301 12.2118 16.941L13.02 21.3533L15.096 16.1764H17.1153L14.0003 23.8235ZM18.2698 23.8235H16.3082L17.9235 16.1764H19.8851L18.2698 23.8235ZM22.4229 18.2948C22.4806 17.883 22.827 17.6475 23.231 17.6475C23.866 17.5883 24.5577 17.7066 25.1349 18.0002L25.4812 16.3538C24.904 16.1183 24.269 16 23.6928 16C21.7889 16 20.4036 17.0592 20.4036 18.5293C20.4036 19.6477 21.3849 20.2349 22.0776 20.5887C22.827 20.9414 23.1156 21.1769 23.0578 21.5296C23.0578 22.0587 22.4806 22.2942 21.9044 22.2942C21.2117 22.2942 20.519 22.1179 19.8851 21.8232L19.5387 23.4707C20.2314 23.7643 20.9808 23.8826 21.6735 23.8826C23.8083 23.9407 25.1349 22.8825 25.1349 21.2941C25.1349 19.2939 22.4229 19.1767 22.4229 18.2948ZM32 23.8235L30.4425 16.1764H28.7695C28.4231 16.1764 28.0768 16.4119 27.9613 16.7646L25.0772 23.8235H27.0965L27.4996 22.7061H29.9807L30.2116 23.8235H32ZM29.0581 18.2357L29.6343 21.1178H28.0191L29.0581 18.2357Z" fill="#172B85"/>
<defs>
<linearGradient id="paint0_linear_1115_7903" x1="20" y1="0" x2="20" y2="40" gradientUnits="userSpaceOnUse">
<stop stop-color="white" stop-opacity="0.7"/>
<stop offset="1" stop-color="white" stop-opacity="0.1"/>
</linearGradient>
</defs>
</svg>
