<svg width="100" height="100" viewBox="0 0 100 100" fill="none" xmlns="http://www.w3.org/2000/svg">
<circle opacity="0.2" cx="50" cy="50" r="50" fill="#308BC4"/>
<g clip-path="url(#clip0_208_871)">
<path d="M54.3954 41.3856C54.9733 41.3856 55.4418 40.9171 55.4418 40.3393V40.0268C55.4418 39.4489 54.9733 38.9805 54.3954 38.9805C53.8176 38.9805 53.3491 39.4489 53.3491 40.0268V40.3393C53.3491 40.9173 53.8176 41.3856 54.3954 41.3856Z" fill="#1A2E35"/>
<path d="M81.3929 51.7298C82.3204 50.3617 82.8629 48.7118 82.8629 46.9377C82.8629 42.1746 78.9543 38.3077 74.1784 38.3804C69.6699 38.449 65.9454 42.0771 65.7619 46.5822C65.6846 48.4823 66.2305 50.2538 67.2113 51.7091C66.051 52.38 64.8533 53.4072 63.8045 55.2378C61.6421 54.2515 59.0945 53.7148 56.9249 53.258C56.4076 53.1492 55.9084 53.044 55.4417 52.9387V52.0561C57.7538 50.6686 59.4556 48.5891 59.4556 46.6332C59.4556 46.4034 59.4358 46.1958 59.3992 46.0073C59.4939 45.7919 59.5811 45.5765 59.6608 45.3615C61.9348 45.1256 63.5683 43.8452 63.5683 42.2024L63.5762 39.8847C63.5762 38.7167 62.6442 37.802 61.4543 37.802H60.2912L60.294 35.3134C60.2982 32.484 59.1722 30.0967 57.0379 28.4095C55.1952 26.9528 52.7202 26.1343 50.0688 26.1048C50.061 26.1047 50.0534 26.1047 50.0455 26.1048C47.3942 26.1343 44.9192 26.9528 43.0765 28.4095C40.9422 30.0967 39.8162 32.484 39.8204 35.3119V37.802H38.656C37.4662 37.802 36.5341 38.7169 36.5341 39.8883L36.5421 42.2022C36.5472 43.8454 38.1803 45.1237 40.4493 45.3608C40.5292 45.5767 40.6168 45.7926 40.7118 46.0089C40.6753 46.1972 40.6548 46.4037 40.6548 46.6333C40.6548 48.5888 42.3565 50.6678 44.6687 52.0553V52.9388C44.2021 53.0442 43.7029 53.1493 43.1856 53.2582C40.9865 53.7212 38.3993 54.2662 36.2184 55.2785C35.1625 53.4228 33.9556 52.3872 32.7875 51.7109C33.7692 50.2549 34.3156 48.4822 34.2379 46.581C34.0538 42.0746 30.3267 38.4466 25.817 38.3804C21.0408 38.3101 17.133 42.176 17.133 46.9376C17.133 48.7124 17.6763 50.3626 18.6047 51.7311C15.9443 53.3714 14.2856 56.2784 14.2856 59.4575V64.1609C14.2856 65.9119 15.7051 67.3314 17.4561 67.3314H26.8671C27.4401 67.3314 27.9397 66.89 27.9568 66.3173C27.9747 65.7248 27.4995 65.2388 26.9109 65.2388H17.4556C16.8606 65.2388 16.3783 64.7565 16.3783 64.1615V59.4575C16.3783 56.8917 17.7848 54.5564 20.0125 53.3335C20.4307 53.7054 20.8857 54.0363 21.371 54.3215L24.8936 61.7644C25.0668 62.1301 25.4351 62.3632 25.8394 62.3632H25.8437C26.2487 62.3632 26.6168 62.128 26.7869 61.7605L30.3219 54.1272C30.6947 53.8861 31.0478 53.6175 31.3779 53.3232C32.3707 53.825 33.4331 54.6079 34.4017 56.3158C32.9179 57.3673 31.8387 58.7852 31.5628 60.7636L30.0575 70.2287C30.0489 70.2827 30.0446 70.3374 30.0446 70.3921V75.1424C30.0446 76.6644 31.2806 77.9019 32.7999 77.9019H41.0881C42.1205 77.9019 43.0691 77.5335 43.8085 76.9197L48.7192 81.7872C49.0638 82.1318 49.521 82.4524 50.0259 82.4662C50.5363 82.4801 51.0546 82.1465 51.395 81.7872L56.2137 77.009C56.9363 77.5684 57.8417 77.9019 58.8253 77.9019H67.1093C68.63 77.9019 69.8688 76.6644 69.8688 75.1424V70.3921C69.8688 70.383 69.8636 70.2869 69.8583 70.2484L68.5495 60.7748C68.2713 58.7552 67.1572 57.3187 65.6297 56.2598C66.5878 54.5902 67.638 53.8176 68.6205 53.3216C68.951 53.6167 69.3048 53.8857 69.6781 54.1272L73.2131 61.7605C73.3833 62.128 73.7515 62.3632 74.1563 62.3632H74.1606C74.5649 62.3632 74.9334 62.1302 75.1064 61.7644L78.6297 54.32C79.1142 54.0351 79.5683 53.7042 79.9858 53.3327C82.2143 54.5553 83.6216 56.891 83.6216 59.4575V64.1609C83.6216 64.7552 83.1365 65.2388 82.5404 65.2388H73.1288C72.5559 65.2388 72.0563 65.6802 72.0391 66.2529C72.0213 66.8453 72.4964 67.3314 73.085 67.3314H82.5404C84.2904 67.3314 85.7142 65.9091 85.7142 64.1609V59.4575C85.7142 56.2774 84.0546 53.3699 81.3929 51.7298ZM60.2901 42.0246V39.8945H61.4544C61.4673 39.8945 61.477 39.8964 61.4836 39.8986L61.4758 42.1986C61.4758 42.4974 61.0038 42.8991 60.2191 43.128C60.2661 42.7577 60.2901 42.3897 60.2901 42.0246ZM38.6347 42.1951L38.6269 39.8986C38.6334 39.8964 38.6432 39.8945 38.656 39.8945H39.8204V42.0246C39.8204 42.3892 39.8442 42.7568 39.8911 43.1265C39.1078 42.8966 38.6357 42.4945 38.6347 42.1951ZM25.829 58.8491L24.1774 55.3594C24.6685 55.4475 25.1731 55.4959 25.689 55.4959C26.2992 55.4959 26.8942 55.4305 27.4687 55.3084L25.829 58.8491ZM32.126 47.5294C31.8502 50.6159 29.3654 53.1018 26.2789 53.3769C22.2517 53.736 18.8921 50.3745 19.2522 46.3458C19.528 43.2593 22.0126 40.7734 25.0993 40.4981C29.1263 40.1392 32.4861 43.5006 32.126 47.5294ZM41.9132 35.3101C41.906 30.4902 46.1276 28.2453 50.0573 28.1973C53.987 28.2453 58.2085 30.4902 58.2014 35.3105L58.2001 36.4028C56.2121 35.0729 53.2914 34.2812 50.0758 34.2812C50.0633 34.2812 50.051 34.2812 50.0386 34.2812C46.8226 34.2812 43.9013 35.0723 41.913 36.4013L41.9132 35.3101ZM42.2783 44.2427C42.2577 44.1785 42.239 44.1139 42.2194 44.0495C42.0174 43.3593 41.9132 42.6818 41.9132 42.0246V39.1832C43.2243 37.4895 46.4323 36.3702 50.0563 36.3738C50.0626 36.3737 50.0693 36.3738 50.076 36.3738C53.6865 36.3738 56.8885 37.4923 58.1975 39.1832V42.0246C58.1975 42.743 58.0737 43.4853 57.8325 44.2423C57.507 44.0965 57.1703 43.9769 56.8366 43.8516C53.9526 42.7515 51.9897 42.2996 50.0616 42.2915H50.0529C48.122 42.2995 46.158 42.7515 43.2766 43.8507C42.9419 43.9762 42.6046 44.0965 42.2783 44.2427ZM42.7476 46.633V46.6265C42.7481 46.4406 42.8562 46.2724 43.0225 46.1898C43.3935 46.0054 44.0199 45.8068 44.0199 45.8068C46.6488 44.8041 48.3984 44.3918 50.0574 44.3843C51.7137 44.3918 53.4621 44.8042 56.0935 45.8078C56.4081 45.926 56.7317 46.0349 57.0246 46.2014C57.1941 46.2976 57.3632 46.4208 57.3632 46.633C57.3632 48.4305 53.7543 51.5507 50.0574 51.5797C46.3583 51.5507 42.7476 48.4305 42.7476 46.633ZM53.3491 53.0517V53.7653C53.3491 54.6943 53.0384 55.4224 52.4258 55.9293C51.8629 56.3953 51.0723 56.6519 50.2 56.6519C48.8177 56.6519 46.7614 55.8832 46.7614 53.7653V53.0508C47.8317 53.4373 48.9539 53.6648 50.0502 53.6722H50.0573H50.0644C51.1592 53.6648 52.2801 53.4376 53.3491 53.0517ZM43.6168 55.3057C44.0352 55.2177 44.442 55.132 44.8331 55.046C45.4731 57.457 47.8978 58.7445 50.2001 58.7445C51.5585 58.7445 52.8229 58.3173 53.7603 57.5414C54.5425 56.894 55.0609 56.0461 55.2961 55.0499C55.6816 55.1346 56.082 55.219 56.4939 55.3056C56.7915 55.3682 57.0945 55.4323 57.4005 55.4978L52.0482 62.6309C51.3216 62.9773 50.6439 63.4282 50.0559 63.9561C49.4671 63.4282 48.7893 62.9775 48.0627 62.6311L42.7103 55.498C43.0161 55.4323 43.3191 55.3684 43.6168 55.3057ZM33.6311 61.0817C33.6322 61.0744 33.6333 61.0673 33.6343 61.0601C34.0281 58.201 37.1542 56.8772 40.483 56.0165L44.8825 61.8795C43.4116 61.8834 41.9572 62.3995 40.7743 63.6241C39.2649 65.1894 38.5882 67.296 38.7445 69.3453H32.3169L33.6311 61.0817ZM42.3088 75.4335C41.96 75.6707 41.5401 75.8088 41.0881 75.8088H32.7999C32.4344 75.8088 32.1372 75.5103 32.1372 75.1419V71.438H41.0881C41.243 71.438 41.3936 71.4547 41.5387 71.4854C42.4637 71.6807 43.1752 72.4648 43.2603 73.4288C43.2658 73.493 43.2686 73.5571 43.2686 73.6227C43.2686 74.376 42.8878 75.0401 42.3088 75.4335ZM54.5482 73.5748C54.5412 74.2061 54.6717 74.8088 54.912 75.3512L50.0571 80.1671L45.0557 75.2103C45.2524 74.7192 45.3613 74.1835 45.3613 73.6227C45.3613 71.2636 43.4444 69.3453 41.0881 69.3453H40.8384C40.6765 67.8247 41.1579 66.2427 42.2795 65.0778C44.0638 63.2307 46.9042 63.931 48.6746 65.5298C48.7946 65.6358 48.8894 65.7279 48.969 65.8018C49.2605 66.078 49.5605 66.3626 50.0571 66.3626C50.5491 66.3626 50.8458 66.0817 51.1335 65.8092L51.1369 65.806C51.2164 65.7307 51.3141 65.6386 51.4383 65.527C53.2072 63.931 56.0476 63.2307 57.8306 65.0764C58.9536 66.2413 59.4349 67.8233 59.2731 69.3453H58.9134C56.555 69.3453 54.574 71.2167 54.5482 73.5748ZM67.7762 75.1419C67.7762 75.5087 67.4761 75.8088 67.1093 75.8088H58.8253C58.4235 75.8088 58.0482 75.7 57.7245 75.5103C57.08 75.1336 56.6461 74.4346 56.6406 73.6366V73.6227C56.6406 72.4955 57.4957 71.5663 58.5923 71.4505C58.669 71.4422 58.7471 71.438 58.8253 71.438H67.7762V75.1419ZM66.4765 61.0605L67.6212 69.3455H61.3671C61.522 67.2961 60.8454 65.1895 59.3359 63.6242C58.1533 62.3993 56.6989 61.8834 55.2283 61.8795L59.6276 56.0167C62.9564 56.8772 66.0825 58.201 66.4765 61.0605ZM74.1708 58.8491L72.5312 55.3084C73.1055 55.4305 73.7007 55.4959 74.3109 55.4959C74.8269 55.4959 75.3315 55.4473 75.8226 55.3593L74.1708 58.8491ZM74.3108 53.4032C70.5835 53.4032 67.5831 50.231 67.8657 46.4437C68.1016 43.2838 70.6499 40.7308 73.8096 40.491C77.5968 40.2036 80.7703 43.2067 80.7703 46.9377C80.7703 50.5029 77.8726 53.4032 74.3108 53.4032Z" fill="#1A2E35"/>
<path d="M54.5482 73.5748C54.5412 74.2061 54.6717 74.8088 54.912 75.3512L50.0571 80.1671L45.0557 75.2103C45.2524 74.7192 45.3613 74.1835 45.3613 73.6227C45.3613 71.2636 43.4444 69.3453 41.0881 69.3453H40.8384C40.6765 67.8247 41.1579 66.2427 42.2795 65.0778C44.0638 63.2307 46.9042 63.931 48.6746 65.5298C48.7946 65.6358 48.8894 65.7279 48.969 65.8018C49.2605 66.078 49.5605 66.3626 50.0571 66.3626C50.5491 66.3626 50.8458 66.0817 51.1335 65.8092L51.1369 65.806C51.2164 65.7307 51.3141 65.6386 51.4383 65.527C53.2072 63.931 56.0476 63.2307 57.8306 65.0764C58.9536 66.2413 59.4349 67.8233 59.2731 69.3453H58.9134C56.555 69.3453 54.574 71.2167 54.5482 73.5748Z" fill="url(#paint0_linear_208_871)"/>
<path d="M45.7153 41.3856C46.2931 41.3856 46.7616 40.9171 46.7616 40.3393V40.0268C46.7616 39.4489 46.2931 38.9805 45.7153 38.9805C45.1374 38.9805 44.6689 39.4489 44.6689 40.0268V40.3393C44.6689 40.9173 45.1374 41.3856 45.7153 41.3856Z" fill="#1A2E35"/>
</g>
<defs>
<linearGradient id="paint0_linear_208_871" x1="14.2856" y1="52.2169" x2="85.726" y2="52.8057" gradientUnits="userSpaceOnUse">
<stop stop-color="#308BC4"/>
<stop offset="1" stop-color="#7EC287"/>
</linearGradient>
<clipPath id="clip0_208_871">
<rect width="71.4286" height="71.4286" fill="white" transform="translate(14.2856 14.2854)"/>
</clipPath>
</defs>
</svg>
