<svg width="100" height="100" viewBox="0 0 100 100" fill="none" xmlns="http://www.w3.org/2000/svg">
<circle opacity="0.2" cx="50" cy="50" r="50" fill="#7EC287"/>
<path d="M25.8929 77.6784H33.0366C33.2821 77.6784 33.5179 77.5775 33.6866 77.3981C33.8554 77.2195 33.9429 76.9784 33.9286 76.7338L33.8786 75.8927H36.608C36.8554 75.8927 37.0929 75.79 37.2607 75.6088C37.4295 75.4275 37.5161 75.1838 37.4982 74.9365L37.4643 74.465L38.4321 74.1418C41.6571 73.0668 45.1571 72.9775 48.4866 73.6427C50.0223 73.9508 51.5982 74.107 53.1696 74.107C58.2491 74.107 63.1616 72.2749 67.0018 68.9481L73.8455 63.015C74.5795 62.3802 75.0009 61.4588 75.0009 60.4874C75.0009 58.7159 73.6125 57.2766 71.8696 57.1641C73.917 53.6409 75.0009 49.6659 75.0009 45.5356C75.0009 32.7347 64.5875 22.3213 51.7866 22.3213C38.9857 22.3213 28.5723 32.7347 28.5723 45.5356C28.5723 51.5409 30.9161 57.3008 35.0473 61.607H33.0384L33.0357 61.5543C33.0071 61.0829 32.6161 60.7141 32.1437 60.7141H25.8937C25.4 60.7141 25.0009 61.1133 25.0009 61.607L25 76.7856C25 77.0231 25.0938 77.2499 25.2616 77.4168C25.4295 77.5838 25.6554 77.6784 25.8929 77.6784ZM73.2152 60.4874C73.2152 60.94 73.0187 61.3686 72.6759 61.665L65.8312 67.5981C62.317 70.6436 57.8205 72.3213 53.1696 72.3213C51.7161 72.3213 50.258 72.1766 48.8366 71.8927C45.2045 71.165 41.3857 71.2749 37.867 72.4481L37.333 72.6258L36.6937 63.6767L38.0911 62.2793C39.6768 60.6945 41.7839 59.8213 44.0259 59.8213C45.5062 59.8213 46.9545 60.0999 48.3304 60.6508C49.9179 61.2856 51.5893 61.607 53.2973 61.607H57.1437C58.8036 61.607 60.1893 62.749 60.5884 64.2856H51.7866V66.0713H61.608C61.8116 66.0713 62.0071 66.0025 62.1661 65.8758L70.4214 59.2704C70.6973 59.0499 71.0429 58.9284 71.3964 58.9284H71.6562C72.5161 58.9284 73.2152 59.6275 73.2152 60.4874ZM33.975 44.6427C34.1866 40.3936 35.883 36.5383 38.5643 33.5758L40.4214 35.4329L41.6839 34.1704L39.8268 32.3133C42.7893 29.6311 46.6437 27.9356 50.8937 27.724V30.357H52.6795V27.724C56.9286 27.9356 60.7839 29.6311 63.7455 32.3133L61.8875 34.1713L63.15 35.4338L65.008 33.5758C67.6902 36.5374 69.3866 40.3927 69.5982 44.6427H66.9652V46.4284H69.6134C69.4062 50.6097 67.7607 54.5034 65.0304 57.5168L63.1509 55.6374L61.8884 56.8999L63.7652 58.7766C62.8027 59.6463 61.7357 60.4159 60.5777 61.0713C59.6473 60.2918 58.45 59.8213 57.1446 59.8213H53.2982C51.8179 59.8213 50.3696 59.5427 48.9937 58.9918C47.9018 58.5552 46.7687 58.2784 45.6125 58.14L51.3125 48.1659C51.4661 48.1936 51.6241 48.2141 51.7866 48.2141C53.2634 48.2141 54.4652 47.0124 54.4652 45.5356C54.4652 44.3731 53.7161 43.3909 52.6795 43.0213V34.8204H50.8937V43.0213C49.8571 43.3909 49.108 44.3731 49.108 45.5356C49.108 46.2016 49.3616 46.8043 49.7652 47.2731L43.8687 57.5927L44.7 58.0677C44.475 58.0561 44.2518 58.0356 44.0259 58.0356C42.5964 58.0356 41.2152 58.3356 39.9437 58.8927C39.8991 58.8534 39.8536 58.8141 39.8098 58.7749L41.6848 56.8999L40.4223 55.6374L38.5482 57.5115C35.7902 54.4659 34.1598 50.5677 33.9545 46.4284H36.608V44.6427H33.975ZM51.7866 44.6427C52.2795 44.6427 52.6795 45.0427 52.6795 45.5356C52.6795 46.0284 52.2795 46.4284 51.7866 46.4284C51.2937 46.4284 50.8937 46.0284 50.8937 45.5356C50.8937 45.0427 51.2937 44.6427 51.7866 44.6427ZM51.7866 24.107C63.6018 24.107 73.2152 33.7204 73.2152 45.5356C73.2152 49.9927 71.858 54.2588 69.2964 57.8829L62.2384 63.5302C62.1161 63.1516 61.9491 62.7936 61.75 62.457C67.7429 58.9293 71.4295 52.5409 71.4295 45.5356C71.4295 34.7043 62.6179 25.8927 51.7866 25.8927C40.9554 25.8927 32.1437 34.7043 32.1437 45.5356C32.1437 50.9677 34.3714 56.0999 38.2929 59.8061C37.8027 60.1418 37.3393 60.5222 36.9062 60.9463C32.7375 56.9186 30.358 51.3516 30.358 45.5356C30.358 33.7204 39.9714 24.107 51.7866 24.107ZM34.8839 63.3927L35.6482 74.107H33.7723L33.1429 63.3927H34.8839ZM26.7866 62.4999H31.3018L32.0902 75.8927H26.7857L26.7866 62.4999Z" fill="#1A2E35"/>
<path d="M33.975 44.6427C34.1866 40.3936 35.883 36.5383 38.5643 33.5758L40.4214 35.4329L41.6839 34.1704L39.8268 32.3133C42.7893 29.6311 46.6437 27.9356 50.8937 27.724V30.357H52.6795V27.724C56.9286 27.9356 60.7839 29.6311 63.7455 32.3133L61.8875 34.1713L63.15 35.4338L65.008 33.5758C67.6902 36.5374 69.3866 40.3927 69.5982 44.6427H66.9652V46.4284H69.6134C69.4062 50.6097 67.7607 54.5034 65.0304 57.5168L63.1509 55.6374L61.8884 56.8999L63.7652 58.7766C62.8027 59.6463 61.7357 60.4159 60.5777 61.0713C59.6473 60.2918 58.45 59.8213 57.1446 59.8213H53.2982C51.8179 59.8213 50.3696 59.5427 48.9937 58.9918C47.9018 58.5552 46.7687 58.2784 45.6125 58.14L51.3125 48.1659C51.4661 48.1936 51.6241 48.2141 51.7866 48.2141C53.2634 48.2141 54.4652 47.0124 54.4652 45.5356C54.4652 44.3731 53.7161 43.3909 52.6795 43.0213V34.8204H50.8937V43.0213C49.8571 43.3909 49.108 44.3731 49.108 45.5356C49.108 46.2016 49.3616 46.8043 49.7652 47.2731L43.8687 57.5927L44.7 58.0677C44.475 58.0561 44.2518 58.0356 44.0259 58.0356C42.5964 58.0356 41.2152 58.3356 39.9437 58.8927C39.8991 58.8534 39.8536 58.8141 39.8098 58.7749L41.6848 56.8999L40.4223 55.6374L38.5482 57.5115C35.7902 54.4659 34.1598 50.5677 33.9545 46.4284H36.608V44.6427H33.975Z" fill="url(#paint0_linear_208_881)"/>
<defs>
<linearGradient id="paint0_linear_208_881" x1="25" y1="47.968" x2="75.0108" y2="48.2618" gradientUnits="userSpaceOnUse">
<stop offset="0.270833" stop-color="#7EC287"/>
<stop offset="1" stop-color="#308BC4"/>
</linearGradient>
</defs>
</svg>
