<svg width="100" height="100" viewBox="0 0 100 100" fill="none" xmlns="http://www.w3.org/2000/svg">
<circle opacity="0.2" cx="50" cy="50" r="50" fill="#308BC4"/>
<g clip-path="url(#clip0_208_889)">
<path d="M85.621 77.7142C85.621 77.7142 86.9755 76.3597 85.621 75.6072C85.621 75.6072 85.621 75.4567 85.4705 75.4567H82.3101C82.1596 75.4567 82.1596 75.3062 82.1596 75.3062C83.2131 74.4033 83.815 73.1993 84.2665 71.3933C84.5675 70.1894 84.417 69.1359 84.2665 67.9319C84.116 66.5774 83.9655 65.223 84.417 63.2665C84.718 61.912 84.5675 60.8586 83.6645 60.1061C82.7616 59.3536 81.2566 59.2031 79.1497 59.9556C78.5477 60.2566 77.9457 60.5576 77.3437 61.0091C76.2902 60.7081 74.9357 60.5576 73.7318 60.7081C71.3238 61.0091 69.2169 62.3635 67.7119 64.4705H67.5614C66.0564 63.5675 64.401 62.815 62.4445 62.213C61.8425 62.0625 61.2406 62.3635 61.0901 62.9655C60.9396 63.5675 61.2406 64.1695 61.8425 64.32C63.6485 64.7715 65.304 65.524 66.6584 66.4269C66.6584 66.5774 66.6584 66.5774 66.5079 66.7279C66.2069 67.7814 66.0564 68.9854 66.0564 70.0389C66.2069 72.1458 67.1099 73.9518 68.4644 75.3062C68.4644 75.3062 68.4644 75.4567 68.3139 75.4567H57.9296C57.9296 75.4567 57.7791 75.4567 57.7791 75.3062V72.1458C57.7791 72.1458 57.7791 71.9953 57.9296 71.9953H60.7891C61.3911 71.9953 61.8425 71.5438 61.8425 70.9418C61.8425 70.3399 61.3911 69.8884 60.7891 69.8884H48.1474C48.1474 69.8884 47.9969 69.8884 47.9969 69.7379V65.6745C48.1474 65.6745 48.2979 65.524 48.4484 65.524C50.5553 64.32 53.7157 63.5675 56.8762 63.5675C57.4781 63.5675 57.9296 63.116 57.9296 62.514C57.9296 61.912 57.4781 61.4606 56.8762 61.4606C55.6722 61.4606 54.4682 61.4606 53.2642 61.611C53.2642 61.611 53.1137 61.6111 53.1137 61.4606V55.7417C53.1137 55.7417 53.1137 55.7417 53.1137 55.5912C54.0167 54.8387 54.9197 53.9357 55.6722 52.7318C56.7257 50.9258 56.7257 49.8723 56.8762 48.0664C56.8762 47.7654 56.8762 47.4644 56.8762 47.1634V44.6049C56.8762 41.294 54.1672 38.7356 51.0068 38.7356C50.8563 38.7356 50.8563 38.5851 50.8563 38.5851C52.3613 36.9296 53.4147 34.8227 53.4147 33.0167V30.7593C53.4147 27.8998 52.5118 25.4919 50.8563 23.8364C49.3513 22.3314 47.2444 21.4285 44.9869 21.4285C42.7295 21.4285 40.6225 22.3314 39.1176 23.8364C37.4621 25.4919 36.4086 28.0503 36.4086 30.7593V33.0167C36.4086 34.9732 37.4621 37.0801 39.1176 38.7356H38.6661C35.8066 38.7356 34.4522 40.5415 33.5492 41.7455L27.2283 51.9793C27.2283 52.1298 27.0778 52.1298 27.0778 51.9793C26.3254 50.6248 24.5194 48.0664 22.563 47.9159C21.961 47.9159 21.2085 47.9159 20.757 48.3674C20.3055 48.9693 20.3055 49.7218 20.456 50.1733L21.961 59.0526C22.1115 59.8051 22.262 60.4071 22.7134 60.8586C23.3154 61.3101 23.9174 61.1596 24.6699 61.1596C24.8204 61.1596 24.9709 61.1596 25.1214 61.1596C28.1313 60.8586 30.5393 61.7616 31.2918 62.213C32.1947 62.6645 32.9472 63.116 33.6997 63.5675C33.6997 63.5675 33.6997 63.5675 33.6997 63.718V69.4369C33.6997 69.4369 33.6997 69.4369 33.5492 69.5874H25.1214C23.7669 69.5874 23.7669 69.5874 23.6164 69.1359C23.4659 68.6844 21.359 64.621 18.8005 64.4705C18.1986 64.4705 17.4461 64.4705 16.9946 64.922C16.5431 65.524 16.5431 66.1259 16.6936 66.7279L18.1986 75.3062C18.1986 75.3062 18.1986 75.4567 18.0481 75.4567H15.0381C15.0381 75.4567 15.0381 75.6072 14.8876 75.6072C13.5332 76.5102 14.8876 77.5637 14.8876 77.5637C14.8876 77.5637 14.8876 77.7142 15.0381 77.7142H19.553H85.621ZM24.8204 75.4567H20.3055L18.8005 66.5774C19.7035 66.8784 20.9075 68.5339 21.5095 69.8884C22.262 71.3933 23.4659 71.5438 24.6699 71.5438V75.4567H24.8204ZM47.3949 63.718C47.2444 63.5675 47.0939 63.417 46.9434 63.2665C46.7929 62.9655 46.4919 62.815 46.3414 62.3635C45.7394 61.611 44.9869 60.8586 44.084 60.1061L50.1038 57.6981C50.4048 57.5476 50.7058 57.3972 51.1573 57.2467V62.213C49.6523 62.514 48.4484 62.9655 47.3949 63.718ZM41.5255 58.6011C41.2245 58.7516 40.773 58.7516 40.472 58.6011C40.171 58.4506 39.8701 58.1496 39.7196 57.8486C39.5691 57.5476 39.5691 57.0962 39.7196 56.7952C39.8701 56.4942 40.171 56.1932 40.472 56.0427L46.0404 53.6347L47.3949 56.1932L41.5255 58.6011ZM45.1374 23.5354C47.8464 23.5354 50.8563 25.4919 51.3078 29.4048C48.8998 28.9533 43.9335 27.8998 43.482 27.7493C43.181 27.5988 42.88 27.5988 42.579 27.5988C41.5255 27.5988 40.773 28.0503 40.171 28.5018C39.7196 28.8028 39.4186 28.9533 38.9671 29.2543C39.4186 25.4919 42.4285 23.5354 45.1374 23.5354ZM38.8166 33.0167V31.6622C40.0206 31.3612 40.773 30.9098 41.375 30.4583C42.1275 30.0068 42.278 29.8563 42.88 30.0068C43.3315 30.1573 49.0503 31.2107 51.4583 31.6622V33.0167C51.4583 34.9732 49.6523 37.6821 47.0939 38.8861C47.0939 38.8861 47.0939 38.8861 46.9434 38.8861C46.7929 38.8861 46.6424 39.0366 46.4919 39.0366C45.8899 39.1871 45.4384 39.3376 44.9869 39.3376C44.5354 39.3376 44.084 39.1871 43.482 39.0366C43.3315 39.0366 43.181 38.8861 43.0305 38.8861C43.0305 38.8861 43.0305 38.8861 42.88 38.8861C40.773 37.6821 38.8166 35.1237 38.8166 33.0167ZM47.6959 40.993V41.294C47.6959 42.9495 46.4919 44.1535 45.1374 44.1535C43.783 44.1535 42.579 42.799 42.579 41.294V40.993C42.7295 40.993 42.7295 41.1435 42.88 41.1435C43.6325 41.4445 44.3849 41.595 45.1374 41.595C45.8899 41.595 46.4919 41.4445 47.3949 41.1435C47.5454 41.1435 47.5454 41.1435 47.6959 40.993ZM35.8066 42.9495C36.7096 41.4445 37.6126 40.993 38.9671 40.993H40.3215V41.294C40.3215 44.1535 42.4285 46.4109 45.1374 46.4109C47.6959 46.4109 49.9533 44.1535 49.9533 41.294V40.993H51.3078C53.2642 40.993 54.9197 42.6485 54.9197 44.6049V47.3139C54.9197 47.6149 54.9197 47.9159 54.9197 48.2169C54.9197 50.0228 54.7692 50.4743 54.0167 51.8288C53.1138 53.3337 51.7593 54.3872 49.5018 55.4407L48.1474 52.7318C48.5989 52.4308 49.0503 52.1298 49.5018 51.6783L49.6523 51.5278L51.0068 49.2703C51.3078 48.8188 51.1573 48.0664 50.7058 47.7654C50.2543 47.4644 49.5018 47.6149 49.2008 48.0664L47.9969 50.1733C47.5454 50.6248 47.3949 50.7753 46.7929 50.9258L39.8701 53.9357C39.2681 54.2367 38.6661 54.5377 38.3651 55.1397C37.3116 54.5377 36.2581 54.2367 35.2047 53.9357L37.4621 50.3238C37.7631 49.8723 37.6126 49.1198 37.1611 48.8188C36.7096 48.5179 35.9571 48.6683 35.6562 49.1198L32.6462 53.4842C31.5927 53.3337 30.5393 53.1832 29.4858 53.1832L35.8066 42.9495ZM28.5828 59.2031C27.5293 59.0526 26.4759 59.0526 25.2719 59.2031C25.1214 59.2031 24.6699 59.2031 24.5194 59.2031C24.5194 59.0526 23.0144 50.3238 23.0144 50.3238C23.9174 50.6248 25.2719 52.4308 25.8739 53.9357C26.1749 54.6882 26.6264 55.1397 27.2283 55.2902C27.9808 55.4407 28.4323 55.2902 28.5828 55.4407C28.8838 55.4407 29.1848 55.4407 29.4858 55.4407L28.5828 59.2031ZM42.7295 75.4567H27.0778V71.6943H34.0007C38.2146 71.6943 39.7196 71.3933 40.6225 70.6408C40.9235 70.3399 41.2245 69.8884 41.074 69.1359C40.9235 67.0289 38.0641 62.815 32.4957 60.2566C32.0442 60.1061 31.4422 59.8051 30.6898 59.5041L31.7432 55.5912C33.6997 55.8922 35.8066 56.3437 37.3116 57.3971C37.3116 57.8486 37.4621 58.3001 37.6126 58.7516C37.9136 59.6546 38.6661 60.2566 39.5691 60.7081C40.0206 60.8586 40.472 61.0091 40.9235 61.0091C41.074 61.0091 41.375 61.0091 41.5255 61.0091C42.579 61.912 43.783 62.9655 44.3849 63.8685C44.6859 64.1695 44.8364 64.4705 44.9869 64.621C45.2879 64.922 45.4384 65.223 45.7394 65.524V70.0389C43.783 70.1894 42.1275 71.8448 42.1275 73.9518C42.278 74.4033 42.4285 75.0052 42.7295 75.4567ZM36.2581 69.4369V65.3735C37.9136 67.0289 38.6661 68.5339 38.8166 69.1359C38.5156 69.2864 37.7631 69.4369 36.2581 69.4369ZM55.6722 75.4567H46.0404C45.1374 75.3062 44.5354 74.7043 44.5354 73.8013C44.5354 72.8983 45.2879 72.1458 46.1909 72.1458H55.6722V75.4567ZM72.5278 75.4567C70.2704 74.5538 68.6149 72.4468 68.3139 69.8884C68.1634 69.1359 68.3139 68.3834 68.6149 67.4804C69.3674 65.3735 71.1733 63.2665 73.8823 62.9655C74.6348 62.815 75.5377 62.9655 76.2902 63.116C75.5377 65.0725 75.6882 67.4804 76.8922 70.0389C77.7952 72.2963 73.7318 74.7043 72.5278 75.4567ZM76.5912 75.3062C79.6011 72.5973 79.4506 70.3399 78.8487 68.9854C77.9457 67.0289 77.7952 65.223 78.3972 63.8685C78.6982 62.9655 79.3001 62.514 80.2031 62.213C81.1061 61.912 81.7081 61.7616 82.0091 61.7616C82.3101 61.7616 82.4606 61.7616 82.4606 61.912C82.4606 61.912 82.6111 62.213 82.4606 62.9655C82.0091 65.223 82.1596 66.8784 82.3101 68.3834C82.4606 69.4369 82.4606 70.3399 82.3101 71.0923C81.7081 73.6508 80.0526 74.8548 76.5912 75.3062Z" fill="#1A2E35"/>
<path d="M35.8065 42.9491C36.7094 41.4442 37.6124 40.9927 38.9669 40.9927H40.3213V41.2937C40.3213 44.1531 42.4283 46.4105 45.1372 46.4105C47.6957 46.4105 49.9531 44.1531 49.9531 41.2937V40.9927H51.3076C53.2641 40.9927 54.9195 42.6481 54.9195 44.6046V47.3135C54.9195 47.6145 54.9195 47.9155 54.9195 48.2165C54.9195 50.0225 54.769 50.474 54.0165 51.8284C53.1136 53.3334 51.7591 54.3869 49.5016 55.4403L48.1472 52.7314C48.5987 52.4304 49.0501 52.1294 49.5016 51.6779L49.6521 51.5274L51.0066 49.27C51.3076 48.8185 51.1571 48.066 50.7056 47.765C50.2541 47.464 49.5016 47.6145 49.2006 48.066L47.9967 50.173C47.5452 50.6244 47.3947 50.7749 46.7927 50.9254L39.8699 53.9354C39.2679 54.2364 38.6659 54.5374 38.3649 55.1393C37.3114 54.5374 36.2579 54.2364 35.2045 53.9354L37.4619 50.3235C37.7629 49.872 37.6124 49.1195 37.1609 48.8185C36.7094 48.5175 35.9569 48.668 35.656 49.1195L32.646 53.4839C31.5925 53.3334 30.5391 53.1829 29.4856 53.1829L35.8065 42.9491Z" fill="url(#paint0_linear_208_889)"/>
<path d="M51.0068 62.213C49.6524 62.514 48.4484 63.1159 47.3949 63.7179C47.2444 63.5674 47.0939 63.4169 46.9434 63.2664C46.7929 62.9654 46.4919 62.8149 46.3414 62.3635C45.7394 61.611 44.987 60.8585 44.084 60.106L50.1038 57.6981C50.4048 57.5476 50.7058 57.3971 51.1573 57.2466L51.0068 62.213Z" fill="url(#paint1_linear_208_889)"/>
</g>
<defs>
<linearGradient id="paint0_linear_208_889" x1="29.4856" y1="47.6862" x2="54.9221" y2="47.9774" gradientUnits="userSpaceOnUse">
<stop offset="0.239583" stop-color="#7EC287"/>
<stop offset="1" stop-color="#308BC4"/>
</linearGradient>
<linearGradient id="paint1_linear_208_889" x1="44.084" y1="60.2447" x2="51.1586" y2="60.295" gradientUnits="userSpaceOnUse">
<stop offset="0.239583" stop-color="#7EC287"/>
<stop offset="1" stop-color="#308BC4"/>
</linearGradient>
<clipPath id="clip0_208_889">
<rect width="71.4286" height="71.4286" fill="white" transform="translate(14.2856 14.2856)"/>
</clipPath>
</defs>
</svg>
