<svg width="100" height="100" viewBox="0 0 100 100" fill="none" xmlns="http://www.w3.org/2000/svg">
<circle opacity="0.2" cx="50" cy="50" r="50" fill="#7EC287"/>
<g clip-path="url(#clip0_208_899)">
<path d="M35.7197 44.5151C35.7197 52.3972 42.1092 58.7866 49.9912 58.7866C57.8733 58.7866 64.2627 52.3972 64.2627 44.5151C64.2627 36.6331 57.8733 30.2437 49.9912 30.2437C42.113 30.2523 35.7289 36.6369 35.7197 44.5151ZM49.9912 32.212C56.7862 32.212 62.2943 37.7201 62.2943 44.5151C62.2943 51.3101 56.7862 56.8182 49.9912 56.8182C43.1962 56.8182 37.6881 51.3101 37.6881 44.5151C37.6958 37.7235 43.1995 32.2197 49.9912 32.212Z" fill="#1A2E35"/>
<path d="M49.9912 32.212C56.7862 32.212 62.2943 37.7201 62.2943 44.5151C62.2943 51.3101 56.7862 56.8182 49.9912 56.8182C43.1962 56.8182 37.6881 51.3101 37.6881 44.5151C37.6958 37.7235 43.1995 32.2197 49.9912 32.212Z" fill="url(#paint0_linear_208_899)"/>
<path d="M50.0731 49.8883C49.962 49.8642 49.8482 49.8599 49.7357 49.8767C48.6088 49.7455 47.7587 48.7921 47.7568 47.658C47.7568 47.1145 47.3161 46.6738 46.7726 46.6738C46.2291 46.6738 45.7884 47.1145 45.7884 47.658C45.7913 49.5519 47.0581 51.2107 48.8842 51.712V52.6961C48.8842 53.2396 49.3248 53.6803 49.8683 53.6803C50.4118 53.6803 50.8525 53.2396 50.8525 52.6961V51.7715C52.9602 51.3304 54.3927 49.3673 54.1712 47.2255C53.9492 45.0837 52.1447 43.456 49.9914 43.4556C48.7573 43.4556 47.7568 42.4551 47.7568 41.221C47.7568 39.9869 48.7573 38.9864 49.9914 38.9864C51.2254 38.9864 52.2259 39.9869 52.2259 41.221C52.2259 41.7645 52.6666 42.2052 53.2101 42.2052C53.7536 42.2052 54.1943 41.7645 54.1943 41.221C54.1914 39.2325 52.7983 37.5174 50.8525 37.107V36.2112C50.8525 35.6677 50.4118 35.2271 49.8683 35.2271C49.3248 35.2271 48.8842 35.6677 48.8842 36.2112V37.167C46.8533 37.7216 45.5462 39.6933 45.8259 41.7799C46.1056 43.8664 47.886 45.4239 49.9914 45.4234C51.2091 45.4234 52.2024 46.3985 52.2245 47.6157C52.2471 48.833 51.2898 49.844 50.0731 49.8883Z" fill="#1A2E35"/>
<path d="M69.1144 61.213L61.4049 64.8556C60.3404 62.8757 58.2986 61.6157 56.0515 61.5522L48.9345 61.3566C47.8076 61.3245 46.7019 61.039 45.6999 60.5214L44.9757 60.1461C41.2678 58.2133 36.8481 58.2182 33.144 60.1586L33.1892 58.518C33.2041 57.9745 32.7759 57.5218 32.2324 57.5069L24.4282 57.2921C23.8847 57.2772 23.4325 57.7054 23.4176 58.2489L22.9462 75.3749C22.9313 75.9184 23.3595 76.3711 23.903 76.386L31.7071 76.6008H31.7341C32.2675 76.6008 32.7038 76.1764 32.7182 75.6435L32.7408 74.8242L34.7683 73.7386C35.5641 73.3104 36.4944 73.2085 37.3637 73.4546L49.4708 76.8526C49.4919 76.8588 49.5131 76.8636 49.5347 76.8684C50.4098 77.0515 51.3017 77.1433 52.1955 77.1428C54.0889 77.1438 55.9602 76.7358 57.6811 75.9458C57.7233 75.9266 57.7642 75.904 57.8031 75.8785L75.3573 64.524C75.7946 64.2409 75.9358 63.6667 75.6797 63.213C74.3764 60.9006 71.4859 60.0197 69.1144 61.213ZM24.941 74.4455L25.3581 59.2869L31.1944 59.4474L30.7773 74.6065L24.941 74.4455ZM56.7944 74.1879C54.6565 75.1529 52.2686 75.4191 49.9706 74.9496L37.8962 71.5602C36.5372 71.1763 35.0826 71.3353 33.8394 72.0038L32.8033 72.5588L33.0806 62.4802C36.3637 60.2965 40.5743 60.0721 44.0708 61.8939L44.795 62.2692C46.0608 62.9228 47.4568 63.2832 48.8807 63.3245L55.9982 63.5201C57.9973 63.5778 59.6951 65.0012 60.1006 66.9599L49.4992 66.6672C48.9556 66.6524 48.5034 67.081 48.4881 67.624C48.4732 68.1675 48.9018 68.6202 49.4449 68.6351L61.1444 68.9571H61.1718C61.7047 68.9566 62.1406 68.5323 62.155 67.9998C62.167 67.5721 62.1353 67.144 62.0599 66.723L69.9674 62.9867C69.9751 62.9833 69.9827 62.9795 69.9904 62.9756C71.112 62.4081 72.4682 62.5979 73.3908 63.4519L56.7944 74.1879Z" fill="#1A2E35"/>
<path d="M50.9754 27.4766V18.127C50.9754 17.5835 50.5348 17.1428 49.9913 17.1428C49.4477 17.1428 49.0071 17.5835 49.0071 18.127V27.4766C49.0071 28.0201 49.4477 28.4608 49.9913 28.4608C50.5348 28.4608 50.9754 28.0201 50.9754 27.4766Z" fill="#1A2E35"/>
<path d="M58.3568 27.4767V23.0479C58.3568 22.5044 57.9161 22.0637 57.3726 22.0637C56.8291 22.0637 56.3884 22.5044 56.3884 23.0479V27.4767C56.3884 28.0202 56.8291 28.4608 57.3726 28.4608C57.9161 28.4608 58.3568 28.0202 58.3568 27.4767Z" fill="#1A2E35"/>
<path d="M43.5941 27.4767V23.0479C43.5941 22.5044 43.1534 22.0637 42.6099 22.0637C42.0664 22.0637 41.6257 22.5044 41.6257 23.0479V27.4767C41.6257 28.0202 42.0664 28.4608 42.6099 28.4608C43.1534 28.4608 43.5941 28.0202 43.5941 27.4767Z" fill="#1A2E35"/>
</g>
<defs>
<linearGradient id="paint0_linear_208_899" x1="35.7197" y1="43.4675" x2="64.2681" y2="43.6531" gradientUnits="userSpaceOnUse">
<stop stop-color="#308BC4"/>
<stop offset="1" stop-color="#7EC287"/>
</linearGradient>
<clipPath id="clip0_208_899">
<rect width="60" height="60" fill="white" transform="translate(22.8572 17.1428)"/>
</clipPath>
</defs>
</svg>
