<svg width="40" height="40" viewBox="0 0 40 40" fill="none" xmlns="http://www.w3.org/2000/svg">
<path d="M36.6667 8.4889C35.1778 5.43334 30.8889 2.93334 25.9 4.3889C23.5161 5.0775 21.4361 6.55422 20 8.57779C18.5639 6.55422 16.4839 5.0775 14.1 4.3889C9.10002 2.95557 4.82224 5.43334 3.33335 8.4889C1.24446 12.7667 2.11113 17.5778 5.91113 22.7889C8.8889 26.8667 13.1445 31 19.3222 35.8C19.5175 35.9523 19.758 36.035 20.0056 36.035C20.2532 36.035 20.4937 35.9523 20.6889 35.8C26.8556 31.0111 31.1222 26.9111 34.1 22.7889C37.8889 17.5778 38.7556 12.7667 36.6667 8.4889V8.4889Z" fill="url(#paint0_linear_208_245)"/>
<path d="M15.627 19.379C14.06 19.379 13 18.287 13 16.669C13 15.213 14.216 14 15.863 14C17.667 14 19 15.456 19 17.68C19 22.735 15.314 24.757 13 25V22.776C14.569 22.493 16.333 20.916 16.412 19.176C16.333 19.216 16.02 19.379 15.627 19.379ZM23.627 19.379C22.059 19.379 21 18.287 21 16.669C21 15.213 22.216 14 23.863 14C25.667 14 27 15.456 27 17.68C27 22.735 23.314 24.757 21 25V22.776C22.569 22.493 24.333 20.916 24.412 19.176C24.333 19.216 24.02 19.379 23.627 19.379Z" fill="white"/>
<defs>
<linearGradient id="paint0_linear_208_245" x1="2.2251" y1="18.8218" x2="37.7819" y2="19.0781" gradientUnits="userSpaceOnUse">
<stop stop-color="#308BC4"/>
<stop offset="1" stop-color="#7EC287"/>
</linearGradient>
</defs>
</svg>
