<svg width="97" height="78" viewBox="0 0 97 78" fill="none" xmlns="http://www.w3.org/2000/svg">
<circle opacity="0.2" cx="35" cy="35" r="35" fill="#7EC287"/>
<g clip-path="url(#clip0_146_292)">
<path d="M96.9073 70.0481C96.9073 70.0481 98.2537 68.7018 96.9073 67.9538C96.9073 67.9538 96.9073 67.8042 96.7577 67.8042H93.6163C93.4667 67.8042 93.4667 67.6546 93.4667 67.6546C94.5138 66.757 95.1122 65.5603 95.561 63.7652C95.8602 62.5684 95.7106 61.5213 95.561 60.3245C95.4114 58.9782 95.2618 57.6318 95.7106 55.6871C96.0098 54.3408 95.8602 53.2936 94.9626 52.5457C94.0651 51.7977 92.5691 51.6481 90.4748 52.3961C89.8764 52.6952 89.2781 52.9944 88.6797 53.4432C87.6325 53.144 86.2862 52.9944 85.0894 53.144C82.6959 53.4432 80.6016 54.7896 79.1057 56.8839H78.9561C77.4602 55.9863 75.8146 55.2383 73.8699 54.64C73.2716 54.4904 72.6732 54.7896 72.5236 55.3879C72.374 55.9863 72.6732 56.5847 73.2716 56.7343C75.0667 57.1831 76.7122 57.931 78.0585 58.8286C78.0585 58.9782 78.0586 58.9782 77.909 59.1278C77.6098 60.1749 77.4602 61.3717 77.4602 62.4188C77.6098 64.5131 78.5073 66.3083 79.8537 67.6546C79.8537 67.6546 79.8537 67.8042 79.7041 67.8042H69.3821C69.3821 67.8042 69.2325 67.8042 69.2325 67.6546V64.5131C69.2325 64.5131 69.2325 64.3635 69.3821 64.3635H72.2244C72.8228 64.3635 73.2716 63.9148 73.2716 63.3164C73.2716 62.718 72.8228 62.2692 72.2244 62.2692H59.6585C59.6585 62.2692 59.509 62.2692 59.509 62.1196V58.0806C59.6585 58.0806 59.8081 57.931 59.9577 57.931C62.052 56.7343 65.1935 55.9863 68.335 55.9863C68.9333 55.9863 69.3821 55.5375 69.3821 54.9392C69.3821 54.3408 68.9333 53.892 68.335 53.892C67.1382 53.892 65.9415 53.892 64.7447 54.0416C64.7447 54.0416 64.5951 54.0416 64.5951 53.892V48.2074C64.5951 48.2074 64.5951 48.2074 64.5951 48.0578C65.4927 47.3099 66.3903 46.4123 67.1382 45.2156C68.1854 43.4204 68.1854 42.3733 68.335 40.5782C68.335 40.279 68.335 39.9798 68.335 39.6806V37.1375C68.335 33.8465 65.6423 31.3034 62.5008 31.3034C62.3512 31.3034 62.3512 31.1538 62.3512 31.1538C63.8472 29.5082 64.8943 27.4139 64.8943 25.6188V23.3749C64.8943 20.5326 63.9968 18.1391 62.3512 16.4936C60.8553 14.9977 58.761 14.1001 56.5171 14.1001C54.2732 14.1001 52.1789 14.9977 50.6829 16.4936C49.0374 18.1391 47.9902 20.6822 47.9902 23.3749V25.6188C47.9902 27.5635 49.0374 29.6578 50.6829 31.3034H50.2342C47.3919 31.3034 46.0455 33.0985 45.148 34.2952L38.865 44.4676C38.865 44.6172 38.7155 44.6172 38.7155 44.4676C37.9675 43.1213 36.1724 40.5782 34.2276 40.4286C33.6293 40.4286 32.8813 40.4286 32.4325 40.8773C31.9837 41.4757 31.9837 42.2237 32.1333 42.6725L33.6293 51.4985C33.7789 52.2465 33.9285 52.8448 34.3772 53.2936C34.9756 53.7424 35.574 53.5928 36.322 53.5928C36.4715 53.5928 36.6211 53.5928 36.7707 53.5928C39.7626 53.2936 42.1561 54.1912 42.9041 54.64C43.8016 55.0887 44.5496 55.5375 45.2976 55.9863C45.2976 55.9863 45.2976 55.9863 45.2976 56.1359V61.8205C45.2976 61.8205 45.2976 61.8205 45.148 61.97H36.7707C35.4244 61.97 35.4244 61.97 35.2748 61.5213C35.1252 61.0725 33.0309 57.0335 30.4878 56.8839C29.8894 56.8839 29.1415 56.8839 28.6927 57.3326C28.2439 57.931 28.2439 58.5294 28.3935 59.1278L29.8894 67.6546C29.8894 67.6546 29.8894 67.8042 29.7398 67.8042H26.748C26.748 67.8042 26.748 67.9538 26.5984 67.9538C25.252 68.8514 26.5984 69.8985 26.5984 69.8985C26.5984 69.8985 26.5984 70.0481 26.748 70.0481H31.2358H96.9073ZM36.4715 67.8042H31.9837L30.4878 58.9782C31.3854 59.2774 32.5821 60.9229 33.1805 62.2692C33.9285 63.7652 35.1252 63.9148 36.322 63.9148V67.8042H36.4715ZM58.9106 56.1359C58.761 55.9863 58.6114 55.8367 58.4618 55.6871C58.3122 55.3879 58.013 55.2383 57.8634 54.7896C57.265 54.0416 56.5171 53.2936 55.6195 52.5457L61.6033 50.1522C61.9025 50.0026 62.2016 49.853 62.6504 49.7034V54.64C61.1545 54.9391 59.9577 55.3879 58.9106 56.1359ZM53.0764 51.0497C52.7772 51.1993 52.3285 51.1993 52.0293 51.0497C51.7301 50.9001 51.4309 50.6009 51.2813 50.3017C51.1317 50.0026 51.1317 49.5538 51.2813 49.2546C51.4309 48.9554 51.7301 48.6562 52.0293 48.5066L57.5642 46.1131L58.9106 48.6562L53.0764 51.0497ZM56.6667 16.1944C59.3594 16.1944 62.3512 18.1391 62.8 22.0286C60.4065 21.5798 55.4699 20.5326 55.0211 20.383C54.722 20.2334 54.4228 20.2334 54.1236 20.2334C53.0764 20.2334 52.3285 20.6822 51.7301 21.131C51.2813 21.4302 50.9821 21.5798 50.5333 21.879C50.9821 18.1391 53.974 16.1944 56.6667 16.1944ZM50.3837 25.6188V24.2725C51.5805 23.9733 52.3285 23.5245 52.9268 23.0757C53.6748 22.6269 53.8244 22.4773 54.4228 22.6269C54.8716 22.7765 60.5561 23.8237 62.9496 24.2725V25.6188C62.9496 27.5635 61.1545 30.2562 58.6114 31.453C58.6114 31.453 58.6114 31.453 58.4618 31.453C58.3122 31.453 58.1626 31.6025 58.013 31.6025C57.4146 31.7521 56.9659 31.9017 56.5171 31.9017C56.0683 31.9017 55.6195 31.7521 55.0211 31.6025C54.8716 31.6025 54.722 31.453 54.5724 31.453C54.5724 31.453 54.5724 31.453 54.4228 31.453C52.3285 30.2562 50.3837 27.7131 50.3837 25.6188ZM59.2098 33.5473V33.8465C59.2098 35.492 58.013 36.6887 56.6667 36.6887C55.3203 36.6887 54.1236 35.3424 54.1236 33.8465V33.5473C54.2732 33.5473 54.2732 33.6969 54.4228 33.6969C55.1707 33.996 55.9187 34.1456 56.6667 34.1456C57.4146 34.1456 58.013 33.996 58.9106 33.6969C59.0602 33.6969 59.0602 33.6969 59.2098 33.5473ZM47.3919 35.492C48.2894 33.996 49.187 33.5473 50.5333 33.5473H51.8797V33.8465C51.8797 36.6887 53.974 38.9326 56.6667 38.9326C59.2098 38.9326 61.4537 36.6887 61.4537 33.8465V33.5473H62.8C64.7447 33.5473 66.3903 35.1928 66.3903 37.1375V39.8302C66.3903 40.1294 66.3903 40.4286 66.3903 40.7278C66.3903 42.5229 66.2407 42.9717 65.4927 44.318C64.5951 45.8139 63.2488 46.8611 61.0049 47.9082L59.6585 45.2156C60.1073 44.9164 60.5561 44.6172 61.0049 44.1684L61.1545 44.0188L62.5008 41.7749C62.8 41.3261 62.6504 40.5782 62.2016 40.279C61.7529 39.9798 61.0049 40.1294 60.7057 40.5782L59.509 42.6725C59.0602 43.1213 58.9106 43.2708 58.3122 43.4204L51.4309 46.4123C50.8325 46.7115 50.2341 47.0107 49.935 47.6091C48.8878 47.0107 47.8407 46.7115 46.7935 46.4123L49.0374 42.8221C49.3366 42.3733 49.187 41.6253 48.7382 41.3261C48.2894 41.0269 47.5415 41.1765 47.2423 41.6253L44.2504 45.9635C43.2033 45.8139 42.1561 45.6643 41.1089 45.6643L47.3919 35.492ZM40.2114 51.6481C39.1642 51.4985 38.1171 51.4985 36.9203 51.6481C36.7707 51.6481 36.322 51.6481 36.1724 51.6481C36.1724 51.4985 34.6764 42.8221 34.6764 42.8221C35.574 43.1213 36.9203 44.9164 37.5187 46.4123C37.8179 47.1603 38.2667 47.6091 38.865 47.7587C39.613 47.9082 40.0618 47.7587 40.2114 47.9082C40.5106 47.9082 40.8098 47.9082 41.1089 47.9082L40.2114 51.6481ZM54.2732 67.8042H38.7155V64.0644H45.5968C49.7854 64.0644 51.2813 63.7652 52.1789 63.0172C52.4781 62.718 52.7772 62.2692 52.6277 61.5213C52.4781 59.427 49.6358 55.2383 44.1008 52.6952C43.652 52.5457 43.0537 52.2465 42.3057 51.9473L43.3528 48.0578C45.2976 48.357 47.3919 48.8058 48.8878 49.853C48.8878 50.3017 49.0374 50.7505 49.187 51.1993C49.4862 52.0969 50.2342 52.6952 51.1317 53.144C51.5805 53.2936 52.0293 53.4432 52.4781 53.4432C52.6276 53.4432 52.9268 53.4432 53.0764 53.4432C54.1236 54.3408 55.3203 55.3879 55.9187 56.2855C56.2179 56.5847 56.3675 56.8839 56.5171 57.0335C56.8163 57.3326 56.9659 57.6318 57.2651 57.931V62.4188C55.3203 62.5684 53.6748 64.2139 53.6748 66.3083C53.8244 66.757 53.974 67.3554 54.2732 67.8042ZM47.8407 61.8205V57.7814C49.4862 59.427 50.2342 60.9229 50.3837 61.5213C50.0846 61.6709 49.3366 61.8205 47.8407 61.8205ZM67.1382 67.8042H57.5642C56.6667 67.6546 56.0683 67.0562 56.0683 66.1587C56.0683 65.2611 56.8163 64.5131 57.7138 64.5131H67.1382V67.8042ZM83.8927 67.8042C81.6488 66.9066 80.0033 64.8123 79.7041 62.2692C79.5545 61.5213 79.7041 60.7733 80.0033 59.8757C80.7512 57.7814 82.5464 55.6871 85.239 55.3879C85.987 55.2383 86.8846 55.3879 87.6325 55.5375C86.8846 57.4822 87.0342 59.8757 88.2309 62.4188C89.1285 64.6627 85.0894 67.0562 83.8927 67.8042ZM87.9317 67.6546C90.9236 64.9619 90.774 62.718 90.1756 61.3717C89.2781 59.427 89.1285 57.6318 89.7268 56.2855C90.026 55.3879 90.6244 54.9391 91.522 54.64C92.4195 54.3408 93.0179 54.1912 93.3171 54.1912C93.6163 54.1912 93.7659 54.1912 93.7659 54.3408C93.7659 54.3408 93.9155 54.64 93.7659 55.3879C93.3171 57.6318 93.4667 59.2774 93.6163 60.7733C93.7659 61.8204 93.7659 62.718 93.6163 63.466C93.0179 66.0091 91.3724 67.2058 87.9317 67.6546Z" fill="#1A2E35"/>
<path d="M47.3918 35.4918C48.2894 33.9959 49.1869 33.5471 50.5333 33.5471H51.8796V33.8463C51.8796 36.6886 53.9739 38.9325 56.6666 38.9325C59.2097 38.9325 61.4536 36.6886 61.4536 33.8463V33.5471H62.8C64.7447 33.5471 66.3902 35.1926 66.3902 37.1374V39.83C66.3902 40.1292 66.3902 40.4284 66.3902 40.7276C66.3902 42.5227 66.2406 42.9715 65.4926 44.3179C64.5951 45.8138 63.2487 46.8609 61.0048 47.9081L59.6585 45.2154C60.1073 44.9162 60.5561 44.617 61.0048 44.1683L61.1544 44.0187L62.5008 41.7748C62.8 41.326 62.6504 40.578 62.2016 40.2788C61.7528 39.9796 61.0048 40.1292 60.7056 40.578L59.5089 42.6723C59.0601 43.1211 58.9105 43.2707 58.3121 43.4203L51.4308 46.4122C50.8325 46.7114 50.2341 47.0105 49.9349 47.6089C48.8878 47.0105 47.8406 46.7114 46.7934 46.4122L49.0373 42.8219C49.3365 42.3731 49.1869 41.6252 48.7382 41.326C48.2894 41.0268 47.5414 41.1764 47.2422 41.6252L44.2504 45.9634C43.2032 45.8138 42.156 45.6642 41.1089 45.6642L47.3918 35.4918Z" fill="url(#paint0_linear_146_292)"/>
<path d="M62.5009 54.64C61.1546 54.9391 59.9578 55.5375 58.9107 56.1359C58.7611 55.9863 58.6115 55.8367 58.4619 55.6871C58.3123 55.3879 58.0131 55.2383 57.8635 54.7895C57.2652 54.0416 56.5172 53.2936 55.6196 52.5456L61.6034 50.1521C61.9026 50.0026 62.2017 49.853 62.6505 49.7034L62.5009 54.64Z" fill="url(#paint1_linear_146_292)"/>
</g>
<path d="M22.5478 26.5527H22.7038C23.0638 26.5527 23.2438 26.3607 23.2438 25.9887V19.2327C23.2438 18.8607 23.0638 18.6687 22.7038 18.6687H22.2838C22.2238 19.1847 21.8278 19.5807 21.3118 19.5807C20.9998 19.5807 20.7838 19.4727 20.6038 19.3047C20.5678 19.2807 20.2558 19.5087 20.2558 19.9167C20.2558 20.1567 20.3518 20.3727 20.5198 20.5167C20.6998 20.6607 20.9398 20.7447 21.2158 20.7447C21.5278 20.7447 21.8158 20.6247 22.0198 20.4207V25.9887C22.0198 26.3607 22.1998 26.5527 22.5478 26.5527ZM28.5743 26.6487C30.5783 26.6487 31.8143 25.2327 31.8143 22.9887V22.2087C31.8143 19.9647 30.5903 18.5727 28.5743 18.5727C26.5823 18.5727 25.3463 19.9767 25.3463 22.2207V23.0127C25.3463 25.2567 26.5583 26.6487 28.5743 26.6487ZM28.5743 25.6047C27.3263 25.6047 26.5943 24.6687 26.5943 23.0367V22.1607C26.5943 20.5287 27.3143 19.5927 28.5743 19.5927C29.8343 19.5927 30.5783 20.5527 30.5783 22.1847V23.0487C30.5783 24.6807 29.8583 25.6047 28.5743 25.6047Z" fill="#308BC4"/>
<g opacity="0.5">
<path d="M36.0338 15.0506C33.5792 13.6743 31.0669 13.6509 28.759 14.9765L30.4126 16.6298C31.3605 16.2432 32.3751 16.1669 33.4348 16.4076C34.7756 16.7127 35.6328 17.2822 36.1326 18.199C36.7355 19.3054 36.9139 20.5144 36.6633 21.7907C36.4041 23.1129 35.6942 24.2941 34.3624 25.6201C34.3487 25.6334 34.3346 25.6471 34.3213 25.6608C34.3055 25.6821 34.2887 25.7027 34.2709 25.7223L26.5322 33.461C26.3977 33.5946 26.2173 33.6719 26.0278 33.6773L26.0075 33.6969L26.0016 33.6913L25.9956 33.6969L25.9753 33.6773C25.7858 33.6719 25.6054 33.5946 25.4709 33.461L17.7322 25.7223C17.7144 25.7027 17.6976 25.6821 17.6818 25.6608L17.6407 25.6201C16.3077 24.2941 15.5994 23.1129 15.3398 21.7907C15.0892 20.5125 15.2658 19.3036 15.8705 18.199C16.3703 17.2822 17.2275 16.7127 18.5683 16.4076C19.6269 16.1669 20.6389 16.2425 21.5856 16.6272L23.2393 14.9736C20.9292 13.6513 18.4187 13.675 15.9656 15.0506C13.3081 16.5409 12.7405 19.5679 13.0952 21.9047C13.3804 23.7817 14.3516 25.5001 16.1519 27.3108C16.9813 28.145 17.8474 28.9688 18.6849 29.7653L18.7553 29.8323C19.1381 30.1967 19.5207 30.5616 19.9031 30.9272L22.7713 33.6939C23.5748 34.4683 24.3786 35.2424 25.1829 36.0163C25.4365 36.2599 25.7187 36.3888 25.9997 36.3888C26.2807 36.3888 26.5629 36.2599 26.8165 36.0163C27.6208 35.2424 28.4246 34.4683 29.2281 33.6939L32.0974 30.9298C32.478 30.5633 32.8607 30.1983 33.2452 29.8349L33.3156 29.7679C34.1532 28.9714 35.0189 28.1476 35.8483 27.3133C37.6489 25.5012 38.6202 23.7828 38.9053 21.9073C39.2589 19.5683 38.6909 16.5409 36.0338 15.0506Z" fill="url(#paint2_linear_146_292)"/>
</g>
<defs>
<linearGradient id="paint0_linear_146_292" x1="41.1089" y1="40.2005" x2="66.3928" y2="40.49" gradientUnits="userSpaceOnUse">
<stop offset="0.239583" stop-color="#7EC287"/>
<stop offset="1" stop-color="#308BC4"/>
</linearGradient>
<linearGradient id="paint1_linear_146_292" x1="55.6196" y1="52.6835" x2="62.6518" y2="52.7335" gradientUnits="userSpaceOnUse">
<stop offset="0.239583" stop-color="#7EC287"/>
<stop offset="1" stop-color="#308BC4"/>
</linearGradient>
<linearGradient id="paint2_linear_146_292" x1="13" y1="24.3726" x2="39.0046" y2="24.569" gradientUnits="userSpaceOnUse">
<stop stop-color="#308BC4"/>
<stop offset="1" stop-color="#7EC287"/>
</linearGradient>
<clipPath id="clip0_146_292">
<rect width="71" height="71" fill="white" transform="translate(26 7)"/>
</clipPath>
</defs>
</svg>
