<svg width="38" height="38" viewBox="0 0 38 38" fill="none" xmlns="http://www.w3.org/2000/svg">
<g filter="url(#filter0_d_855_531)">
<g filter="url(#filter1_bi_855_531)">
<path d="M34 15C34 23.2843 27.2843 30 19 30C10.7157 30 4 23.2843 4 15C4 6.71573 10.7157 0 19 0C27.2843 0 34 6.71573 34 15Z" fill="#F1F1F1" fill-opacity="0.1"/>
<path d="M34 15C34 23.2843 27.2843 30 19 30C10.7157 30 4 23.2843 4 15C4 6.71573 10.7157 0 19 0C27.2843 0 34 6.71573 34 15Z" fill="#78BE8D"/>
</g>
<g clip-path="url(#clip0_855_531)">
<g filter="url(#filter2_d_855_531)">
<path d="M27.6472 19.1637C25.2407 18.7677 24.1561 16.3027 24.1123 16.1981C24.1089 16.1913 24.1066 16.1846 24.1021 16.1778C23.9795 15.9281 23.9502 15.7222 24.0177 15.5658C24.1494 15.2575 24.6534 15.0978 24.9864 14.992C25.0832 14.9617 25.1743 14.9324 25.2497 14.9031C25.5782 14.7738 25.8122 14.6331 25.9675 14.4745C26.152 14.2844 26.188 14.1021 26.1857 13.984C26.1801 13.696 25.9596 13.4395 25.6074 13.3146C25.4893 13.2662 25.3532 13.2403 25.2159 13.2403C25.1225 13.2403 24.983 13.2527 24.8514 13.3146C24.5701 13.4462 24.3181 13.5182 24.101 13.5283C23.9862 13.5227 23.9052 13.498 23.8524 13.4743C23.8591 13.3618 23.8659 13.2459 23.8737 13.1267L23.8771 13.0749C23.9547 11.8565 24.0504 10.3411 23.6476 9.44102C23.372 8.82449 23.0018 8.29459 22.5462 7.86482C22.1648 7.50481 21.7215 7.21229 21.2287 6.99628C20.3726 6.61826 19.5738 6.56201 19.1733 6.56201H19.1721C19.1564 6.56201 19.1418 6.56201 19.1283 6.56201C19.0169 6.56314 18.8357 6.56539 18.8189 6.56539C18.4195 6.56539 17.6196 6.62164 16.7612 6.99966C16.2695 7.21567 15.8285 7.50706 15.4482 7.86707C14.9948 8.29684 14.6258 8.82562 14.3513 9.4399C13.9485 10.3388 14.0441 11.8543 14.1207 13.0716V13.0738C14.1285 13.2043 14.1375 13.3405 14.1454 13.4732C14.0869 13.4991 13.9913 13.5283 13.8506 13.5283C13.6234 13.5283 13.3534 13.4563 13.0485 13.3134C12.9585 13.2718 12.8561 13.2504 12.7436 13.2504C12.5625 13.2504 12.3701 13.3033 12.2047 13.4012C11.9954 13.5238 11.8604 13.696 11.8233 13.8884C11.7997 14.0144 11.8008 14.2652 12.0798 14.5195C12.2339 14.659 12.4589 14.7884 12.7503 14.9031C12.8268 14.9335 12.918 14.9617 13.0136 14.992C13.3466 15.0978 13.8518 15.2575 13.9834 15.5658C14.0498 15.7222 14.0205 15.9281 13.8979 16.1778C13.8945 16.1846 13.8911 16.1913 13.8889 16.1981C13.8574 16.2701 13.5705 16.917 12.9821 17.5999C12.648 17.988 12.2801 18.3132 11.8885 18.5652C11.4104 18.8735 10.894 19.0737 10.3528 19.1626C10.1402 19.1975 9.98833 19.3865 10.0007 19.6014C10.0041 19.6632 10.0187 19.7251 10.0446 19.7847V19.7859C10.1312 19.9873 10.3303 20.1571 10.6544 20.3068C11.0504 20.4902 11.6422 20.6443 12.4151 20.7647C12.4544 20.8389 12.4949 21.0246 12.5231 21.1517C12.5523 21.2867 12.5827 21.4262 12.6266 21.5736C12.6738 21.7333 12.7953 21.9246 13.1092 21.9246C13.2285 21.9246 13.3646 21.8976 13.5232 21.8672C13.755 21.8222 14.0723 21.7603 14.4672 21.7603C14.6866 21.7603 14.9138 21.7795 15.1422 21.8177C15.5832 21.8908 15.9635 22.1586 16.4034 22.4691C17.0469 22.9236 17.7759 23.4378 18.8898 23.4378C18.9201 23.4378 18.9505 23.4367 18.9809 23.4344C19.0169 23.4367 19.063 23.4378 19.1103 23.4378C20.2241 23.4378 20.9531 22.9236 21.5966 22.4702L21.5978 22.4691C22.0377 22.1597 22.4179 21.892 22.8589 21.8188C23.0873 21.7806 23.3146 21.7615 23.534 21.7615C23.912 21.7615 24.2113 21.8098 24.4779 21.8616C24.6523 21.8953 24.7873 21.9122 24.8919 21.9122H24.902H24.9122C25.1417 21.9122 25.3104 21.7862 25.3746 21.5668C25.4173 21.4217 25.4477 21.2867 25.4781 21.1483C25.5039 21.0291 25.5467 20.8378 25.5849 20.7635C26.3579 20.642 26.9496 20.489 27.3457 20.3056C27.6685 20.156 27.8677 19.9861 27.9543 19.7859C27.9802 19.7262 27.9959 19.6644 27.9993 19.6002C28.0117 19.3876 27.8598 19.1975 27.6472 19.1637Z" fill="white"/>
</g>
</g>
</g>
<defs>
<filter id="filter0_d_855_531" x="0" y="0" width="38" height="38" filterUnits="userSpaceOnUse" color-interpolation-filters="sRGB">
<feFlood flood-opacity="0" result="BackgroundImageFix"/>
<feColorMatrix in="SourceAlpha" type="matrix" values="0 0 0 0 0 0 0 0 0 0 0 0 0 0 0 0 0 0 127 0" result="hardAlpha"/>
<feOffset dy="4"/>
<feGaussianBlur stdDeviation="2"/>
<feComposite in2="hardAlpha" operator="out"/>
<feColorMatrix type="matrix" values="0 0 0 0 0 0 0 0 0 0 0 0 0 0 0 0 0 0 0.1 0"/>
<feBlend mode="normal" in2="BackgroundImageFix" result="effect1_dropShadow_855_531"/>
<feBlend mode="normal" in="SourceGraphic" in2="effect1_dropShadow_855_531" result="shape"/>
</filter>
<filter id="filter1_bi_855_531" x="0" y="-4" width="38" height="38" filterUnits="userSpaceOnUse" color-interpolation-filters="sRGB">
<feFlood flood-opacity="0" result="BackgroundImageFix"/>
<feGaussianBlur in="BackgroundImageFix" stdDeviation="2"/>
<feComposite in2="SourceAlpha" operator="in" result="effect1_backgroundBlur_855_531"/>
<feBlend mode="normal" in="SourceGraphic" in2="effect1_backgroundBlur_855_531" result="shape"/>
<feColorMatrix in="SourceAlpha" type="matrix" values="0 0 0 0 0 0 0 0 0 0 0 0 0 0 0 0 0 0 127 0" result="hardAlpha"/>
<feOffset dy="0.5"/>
<feGaussianBlur stdDeviation="1"/>
<feComposite in2="hardAlpha" operator="arithmetic" k2="-1" k3="1"/>
<feColorMatrix type="matrix" values="0 0 0 0 1 0 0 0 0 1 0 0 0 0 1 0 0 0 0.4 0"/>
<feBlend mode="normal" in2="shape" result="effect2_innerShadow_855_531"/>
</filter>
<filter id="filter2_d_855_531" x="6" y="6.56201" width="26" height="24.8757" filterUnits="userSpaceOnUse" color-interpolation-filters="sRGB">
<feFlood flood-opacity="0" result="BackgroundImageFix"/>
<feColorMatrix in="SourceAlpha" type="matrix" values="0 0 0 0 0 0 0 0 0 0 0 0 0 0 0 0 0 0 127 0" result="hardAlpha"/>
<feOffset dy="4"/>
<feGaussianBlur stdDeviation="2"/>
<feComposite in2="hardAlpha" operator="out"/>
<feColorMatrix type="matrix" values="0 0 0 0 0 0 0 0 0 0 0 0 0 0 0 0 0 0 0.01 0"/>
<feBlend mode="normal" in2="BackgroundImageFix" result="effect1_dropShadow_855_531"/>
<feBlend mode="normal" in="SourceGraphic" in2="effect1_dropShadow_855_531" result="shape"/>
</filter>
<clipPath id="clip0_855_531">
<rect width="18" height="18" fill="white" transform="translate(10 6)"/>
</clipPath>
</defs>
</svg>
