<?xml version="1.0" encoding="utf-8"?>
<!-- Generator: Adobe Illustrator 26.0.1, SVG Export Plug-In . SVG Version: 6.00 Build 0)  -->
<svg version="1.1" id="Layer_1" xmlns="http://www.w3.org/2000/svg" xmlns:xlink="http://www.w3.org/1999/xlink" x="0px" y="0px"
	 viewBox="0 0 50 50" style="enable-background:new 0 0 50 50;" xml:space="preserve">
<style type="text/css">
	.st0{display:none;}
	.st1{display:inline;}
	.st2{fill:#F1F1F1;fill-opacity:0.1;}
	.st3{fill:url(#SVGID_1_);fill-opacity:0.1;}
	.st4{display:inline;fill:url(#SVGID_00000131356658966931015600000001059057244292549289_);}
	.st5{fill:url(#SVGID_00000106137443880148920360000006247111101870272643_);fill-opacity:0.1;}
	.st6{display:inline;fill:url(#SVGID_00000075146696668334860040000014680123248715625407_);}
	.st7{fill:url(#SVGID_00000173146707170512495770000011014589839931062709_);fill-opacity:0.1;}
	.st8{fill:url(#SVGID_00000051357189802251716430000003448829638762254229_);}
	.st9{fill:url(#SVGID_00000111879940115227811200000011636900742011288731_);fill-opacity:0.1;}
	.st10{display:inline;fill:url(#SVGID_00000116934643365655063040000001245237541853092749_);}
	.st11{fill:url(#SVGID_00000137835687139526109860000000900982685517221505_);fill-opacity:0.1;}
	.st12{fill:url(#SVGID_00000176021897869487535270000006123348252919991956_);}
	.st13{fill:#FFFFFF;}
	.st14{display:inline;fill:#7EC188;}
</style>
<g id="Facebook" class="st0">
	<g class="st1">
		<path class="st2" d="M50,25c0,13.8-11.2,25-25,25C11.2,50,0,38.8,0,25C0,11.2,11.2,0,25,0C38.8,0,50,11.2,50,25z"/>
		
			<linearGradient id="SVGID_1_" gradientUnits="userSpaceOnUse" x1="24.862" y1="50.165" x2="24.862" y2="0.165" gradientTransform="matrix(1 0 0 -1 0.138 50.165)">
			<stop  offset="0" style="stop-color:#7EC188"/>
			<stop  offset="1" style="stop-color:#378FC1"/>
		</linearGradient>
		<path class="st3" d="M50,25c0,13.8-11.2,25-25,25C11.2,50,0,38.8,0,25C0,11.2,11.2,0,25,0C38.8,0,50,11.2,50,25z"/>
	</g>
	
		<linearGradient id="SVGID_00000120516382212647130680000010582224771610931105_" gradientUnits="userSpaceOnUse" x1="16.9305" y1="25.1824" x2="32.7373" y2="25.1269" gradientTransform="matrix(1 0 0 -1 0.138 50.165)">
		<stop  offset="0" style="stop-color:#318BC5"/>
		<stop  offset="1" style="stop-color:#7EC188"/>
	</linearGradient>
	<path style="display:inline;fill:url(#SVGID_00000120516382212647130680000010582224771610931105_);" d="M21.5,26.9
		c-0.1,0-2.5,0-3.6,0c-0.6,0-0.8-0.2-0.8-0.8c0-1.5,0-3,0-4.4c0-0.6,0.2-0.8,0.8-0.8h3.6c0-0.1,0-2.2,0-3.2c0-1.5,0.3-2.9,1-4.1
		c0.8-1.3,1.9-2.2,3.3-2.7c0.9-0.3,1.8-0.5,2.8-0.5h3.6c0.5,0,0.7,0.2,0.7,0.7v4.2c0,0.5-0.2,0.7-0.7,0.7c-1,0-2,0-3,0
		c-1,0-1.5,0.5-1.5,1.5c0,1.1,0,2.2,0,3.3h4.3c0.6,0,0.8,0.2,0.8,0.8v4.4c0,0.6-0.2,0.8-0.8,0.8c-1.3,0-4.1,0-4.3,0v12
		c0,0.6-0.2,0.8-0.8,0.8c-1.5,0-3,0-4.6,0c-0.5,0-0.8-0.2-0.8-0.8C21.5,35,21.5,27,21.5,26.9z"/>
</g>
<g id="Twitter" class="st0">
	<g class="st1">
		<path class="st2" d="M50,25c0,13.8-11.2,25-25,25C11.2,50,0,38.8,0,25C0,11.2,11.2,0,25,0C38.8,0,50,11.2,50,25z"/>
		
			<linearGradient id="SVGID_00000072281980722603244530000011355337379575362486_" gradientUnits="userSpaceOnUse" x1="24.862" y1="50.165" x2="24.862" y2="0.165" gradientTransform="matrix(1 0 0 -1 0.138 50.165)">
			<stop  offset="0" style="stop-color:#7EC188"/>
			<stop  offset="1" style="stop-color:#378FC1"/>
		</linearGradient>
		<path style="fill:url(#SVGID_00000072281980722603244530000011355337379575362486_);fill-opacity:0.1;" d="M50,25
			c0,13.8-11.2,25-25,25C11.2,50,0,38.8,0,25C0,11.2,11.2,0,25,0C38.8,0,50,11.2,50,25z"/>
	</g>
	
		<linearGradient id="SVGID_00000097502518830571718450000000067033640849745583_" gradientUnits="userSpaceOnUse" x1="9.5784" y1="25.57" x2="38.9168" y2="25.3357" gradientTransform="matrix(1 0 0 -1 0.138 50.165)">
		<stop  offset="0" style="stop-color:#318BC5"/>
		<stop  offset="1" style="stop-color:#7EC188"/>
	</linearGradient>
	<path style="display:inline;fill:url(#SVGID_00000097502518830571718450000000067033640849745583_);" d="M39.1,15.6
		c-1.1,0.5-2.2,0.8-3.4,1c1.2-0.7,2.2-1.9,2.6-3.3c-1.2,0.7-2.5,1.2-3.8,1.5c-1.1-1.2-2.7-1.9-4.4-1.9c-3.3,0-6,2.7-6,6
		c0,0.5,0,0.9,0.1,1.4c-5-0.2-9.4-2.6-12.4-6.3c-2.1,3.8,0.3,7,1.8,8c-1,0-1.9-0.3-2.7-0.7c0,3,2.1,5.4,4.8,6
		c-0.6,0.2-1.9,0.3-2.7,0.1c0.8,2.4,3,4.1,5.6,4.2c-2.1,1.6-5.1,2.9-8.9,2.5c2.7,1.7,5.8,2.7,9.2,2.7C30,36.6,36,27.5,36,19.6
		c0-0.3,0-0.5,0-0.8C37.3,17.9,38.3,16.8,39.1,15.6z"/>
</g>
<g id="Snapchat" class="st0">
	<g class="st1">
		<path class="st2" d="M50,25c0,13.8-11.2,25-25,25C11.2,50,0,38.8,0,25C0,11.2,11.2,0,25,0C38.8,0,50,11.2,50,25z"/>
		
			<linearGradient id="SVGID_00000117653893290035390310000000634002779944975009_" gradientUnits="userSpaceOnUse" x1="24.862" y1="50.165" x2="24.862" y2="0.165" gradientTransform="matrix(1 0 0 -1 0.138 50.165)">
			<stop  offset="0" style="stop-color:#7EC188"/>
			<stop  offset="1" style="stop-color:#378FC1"/>
		</linearGradient>
		<path style="fill:url(#SVGID_00000117653893290035390310000000634002779944975009_);fill-opacity:0.1;" d="M50,25
			c0,13.8-11.2,25-25,25C11.2,50,0,38.8,0,25C0,11.2,11.2,0,25,0C38.8,0,50,11.2,50,25z"/>
	</g>
	<g class="st1">
		
			<linearGradient id="SVGID_00000134945795346288300660000009911009053167778216_" gradientUnits="userSpaceOnUse" x1="9.8556" y1="25.2696" x2="39.8542" y2="25.0615" gradientTransform="matrix(1 0 0 -1 0.138 50.165)">
			<stop  offset="0" style="stop-color:#318BC5"/>
			<stop  offset="1" style="stop-color:#7EC188"/>
		</linearGradient>
		<path style="fill:url(#SVGID_00000134945795346288300660000009911009053167778216_);" d="M39.4,31.9c-4-0.7-5.8-4.8-5.9-4.9
			c0,0,0,0,0,0c-0.2-0.4-0.3-0.8-0.1-1c0.2-0.5,1.1-0.8,1.6-1c0.2-0.1,0.3-0.1,0.4-0.1c0.5-0.2,0.9-0.5,1.2-0.7
			c0.3-0.3,0.4-0.6,0.4-0.8c0-0.5-0.4-0.9-1-1.1c-0.2-0.1-0.4-0.1-0.7-0.1c-0.2,0-0.4,0-0.6,0.1c-0.5,0.2-0.9,0.3-1.3,0.4
			c-0.2,0-0.3-0.1-0.4-0.1c0-0.2,0-0.4,0-0.6l0-0.1c0.1-2,0.3-4.6-0.4-6.1c-0.5-1-1.1-1.9-1.8-2.6c-0.6-0.6-1.4-1.1-2.2-1.4
			c-1.4-0.6-2.8-0.7-3.4-0.7h0c0,0-0.1,0-0.1,0c-0.2,0-0.5,0-0.5,0c-0.7,0-2,0.1-3.4,0.7c-0.8,0.4-1.6,0.8-2.2,1.4
			c-0.8,0.7-1.4,1.6-1.8,2.6c-0.7,1.5-0.5,4-0.4,6.1v0c0,0.2,0,0.4,0,0.7c-0.1,0-0.3,0.1-0.5,0.1c-0.4,0-0.8-0.1-1.3-0.4
			c-0.1-0.1-0.3-0.1-0.5-0.1c-0.3,0-0.6,0.1-0.9,0.3c-0.3,0.2-0.6,0.5-0.6,0.8c0,0.2,0,0.6,0.4,1.1c0.3,0.2,0.6,0.4,1.1,0.6
			c0.1,0.1,0.3,0.1,0.4,0.1c0.6,0.2,1.4,0.4,1.6,1c0.1,0.3,0.1,0.6-0.1,1c0,0,0,0,0,0c-0.1,0.1-0.5,1.2-1.5,2.3
			c-0.6,0.6-1.2,1.2-1.8,1.6c-0.8,0.5-1.7,0.8-2.6,1C10.2,32,10,32.3,10,32.7c0,0.1,0,0.2,0.1,0.3v0c0.1,0.3,0.5,0.6,1,0.9
			c0.7,0.3,1.6,0.6,2.9,0.8c0.1,0.1,0.1,0.4,0.2,0.6c0,0.2,0.1,0.5,0.2,0.7c0.1,0.3,0.3,0.6,0.8,0.6c0.2,0,0.4,0,0.7-0.1
			c0.4-0.1,0.9-0.2,1.6-0.2c0.4,0,0.7,0,1.1,0.1c0.7,0.1,1.4,0.6,2.1,1.1c1.1,0.8,2.3,1.6,4.1,1.6c0.1,0,0.1,0,0.2,0
			c0.1,0,0.1,0,0.2,0c1.9,0,3.1-0.9,4.1-1.6l0,0c0.7-0.5,1.4-1,2.1-1.1c0.4-0.1,0.8-0.1,1.1-0.1c0.6,0,1.1,0.1,1.6,0.2
			c0.3,0.1,0.5,0.1,0.7,0.1h0h0c0.4,0,0.7-0.2,0.8-0.6c0.1-0.2,0.1-0.5,0.2-0.7c0-0.2,0.1-0.5,0.2-0.6c1.3-0.2,2.3-0.5,2.9-0.8
			c0.5-0.2,0.9-0.5,1-0.9c0-0.1,0.1-0.2,0.1-0.3C40,32.3,39.8,32,39.4,31.9z"/>
	</g>
</g>
<g id="Instagram" class="st0">
	<g class="st1">
		<path class="st2" d="M50,25c0,13.8-11.2,25-25,25C11.2,50,0,38.8,0,25C0,11.2,11.2,0,25,0C38.8,0,50,11.2,50,25z"/>
		
			<linearGradient id="SVGID_00000170975491355230867760000005636687255975576989_" gradientUnits="userSpaceOnUse" x1="24.862" y1="50.165" x2="24.862" y2="0.165" gradientTransform="matrix(1 0 0 -1 0.138 50.165)">
			<stop  offset="0" style="stop-color:#7EC188"/>
			<stop  offset="1" style="stop-color:#378FC1"/>
		</linearGradient>
		<path style="fill:url(#SVGID_00000170975491355230867760000005636687255975576989_);fill-opacity:0.1;" d="M50,25
			c0,13.8-11.2,25-25,25C11.2,50,0,38.8,0,25C0,11.2,11.2,0,25,0C38.8,0,50,11.2,50,25z"/>
	</g>
	
		<linearGradient id="SVGID_00000090271665102496364460000017339494385590086076_" gradientUnits="userSpaceOnUse" x1="11.5229" y1="25.2518" x2="38.1947" y2="25.0783" gradientTransform="matrix(1 0 0 -1 0.138 50.165)">
		<stop  offset="0" style="stop-color:#318BC5"/>
		<stop  offset="1" style="stop-color:#7EC188"/>
	</linearGradient>
	<path style="display:inline;fill:url(#SVGID_00000090271665102496364460000017339494385590086076_);" d="M31,11.7H19
		c-4,0-7.3,3.3-7.3,7.3v12c0,4,3.3,7.3,7.3,7.3h12c4,0,7.3-3.3,7.3-7.3V19C38.3,14.9,35.1,11.7,31,11.7z M25,32.3
		c-4,0-7.3-3.3-7.3-7.3s3.3-7.3,7.3-7.3s7.3,3.3,7.3,7.3S29,32.3,25,32.3z M32.8,19.5c-1.2,0-2.2-1-2.2-2.2c0-1.2,1-2.2,2.2-2.2
		c1.2,0,2.2,1,2.2,2.2C35,18.5,34,19.5,32.8,19.5z"/>
</g>
<g id="Youtube">
	<g>
		<path shape-rendering="crispEdges" class="st2" d="M50,25c0,13.8-11.2,25-25,25S0,38.8,0,25C0,11.2,11.2,0,25,0S50,11.2,50,25z"/>
		
			<linearGradient id="SVGID_00000147222176346580710990000005471283039988283060_" gradientUnits="userSpaceOnUse" x1="24.862" y1="50.165" x2="24.862" y2="0.165" gradientTransform="matrix(1 0 0 -1 0.138 50.165)">
			<stop  offset="0" style="stop-color:#7EC188"/>
			<stop  offset="1" style="stop-color:#378FC1"/>
		</linearGradient>
		
			<path shape-rendering="crispEdges" style="fill:url(#SVGID_00000147222176346580710990000005471283039988283060_);fill-opacity:0.1;" d="
			M50,25c0,13.8-11.2,25-25,25S0,38.8,0,25C0,11.2,11.2,0,25,0S50,11.2,50,25z"/>
	</g>
	
		<linearGradient id="SVGID_00000179638326726180446650000008667403187238929082_" gradientUnits="userSpaceOnUse" x1="9.8607" y1="25.3026" x2="39.8634" y2="25.0272" gradientTransform="matrix(1 0 0 -1 0.138 50.165)">
		<stop  offset="0" style="stop-color:#318BC5"/>
		<stop  offset="1" style="stop-color:#7EC188"/>
	</linearGradient>
	<path style="fill:url(#SVGID_00000179638326726180446650000008667403187238929082_);" d="M39.6,17.9c-0.2-1.3-1.4-2.6-2.7-2.7
		c-7.9-1-15.9-1-23.8,0c-1.3,0.2-2.5,1.4-2.7,2.7c-0.6,4.8-0.6,9.5,0,14.3c0.2,1.3,1.4,2.6,2.7,2.7c7.9,1,15.9,1,23.8,0
		c1.3-0.2,2.5-1.4,2.7-2.7C40.1,27.3,40.1,22.7,39.6,17.9z M22.5,30V20l7.5,5L22.5,30z"/>
</g>
<g id="Whats_App" class="st0">
	<g class="st1">
		<circle class="st13" cx="25" cy="25" r="25"/>
	</g>
	<path class="st14" d="M10.8,39.2l1.9-7c-1.3-2.2-1.9-4.6-1.9-7.1c0-7.8,6.3-14.2,14.2-14.2c7.8,0,14.2,6.3,14.2,14.2
		c0,7.8-6.3,14.2-14.2,14.2c-2.5,0-5-0.7-7.1-1.9L10.8,39.2z M19.9,18.4c-0.2,0-0.4,0.1-0.5,0.1c-0.2,0.1-0.3,0.2-0.4,0.3
		c-0.2,0.2-0.3,0.3-0.4,0.4c-0.5,0.7-0.8,1.5-0.8,2.4c0,0.7,0.2,1.4,0.5,2c0.6,1.3,1.5,2.6,2.8,3.9c0.3,0.3,0.6,0.6,0.9,0.9
		c1.6,1.4,3.4,2.4,5.4,2.9l0.8,0.1c0.3,0,0.5,0,0.8,0c0.4,0,0.8-0.1,1.2-0.3c0.2-0.1,0.4-0.2,0.5-0.3c0,0,0.1,0,0.2-0.1
		c0.2-0.1,0.3-0.2,0.5-0.4c0.1-0.1,0.2-0.3,0.3-0.4c0.1-0.2,0.2-0.7,0.3-1c0-0.3,0-0.4,0-0.5c0-0.2-0.1-0.3-0.3-0.4l-0.8-0.4
		c0,0-1.2-0.5-2-0.9c-0.1,0-0.2-0.1-0.3-0.1c-0.1,0-0.2,0-0.3,0c-0.1,0-0.2,0.1-0.2,0.1v0c0,0-0.1,0.1-1.1,1.3
		c-0.1,0.1-0.1,0.1-0.2,0.2c-0.1,0-0.2,0-0.3,0c-0.1,0-0.2-0.1-0.3-0.1C26,28.1,25.9,28,25.8,28l0,0c-0.8-0.4-1.6-0.8-2.2-1.4
		c-0.2-0.2-0.3-0.3-0.5-0.5c-0.6-0.5-1-1.1-1.4-1.8l-0.1-0.1c-0.1-0.1-0.1-0.2-0.1-0.3c-0.1-0.2,0.1-0.4,0.1-0.4s0.3-0.4,0.5-0.6
		c0.1-0.2,0.3-0.3,0.4-0.5c0.2-0.3,0.2-0.5,0.1-0.8c-0.4-1-0.8-1.9-1.2-2.9c-0.1-0.2-0.3-0.3-0.6-0.4c-0.1,0-0.2,0-0.2,0
		C20.3,18.3,20.1,18.3,19.9,18.4L19.9,18.4z"/>
</g>
</svg>
