<svg width="56" height="22" viewBox="0 0 56 22" fill="none" xmlns="http://www.w3.org/2000/svg">
<circle cx="45" cy="11" r="5" fill="#308BC4"/>
<g filter="url(#filter0_bi_208_1623)">
<path d="M56 11C56 17.0751 51.0751 22 45 22C38.9249 22 34 17.0751 34 11C34 4.92487 38.9249 0 45 0C51.0751 0 56 4.92487 56 11Z" fill="#F1F1F1" fill-opacity="0.1"/>
<path d="M56 11C56 17.0751 51.0751 22 45 22C38.9249 22 34 17.0751 34 11C34 4.92487 38.9249 0 45 0C51.0751 0 56 4.92487 56 11Z" fill="url(#paint0_linear_208_1623)" fill-opacity="0.5"/>
</g>
<g filter="url(#filter1_bi_208_1623)">
<path d="M8 11C8 13.2091 6.20914 15 4 15C1.79086 15 0 13.2091 0 11C0 8.79086 1.79086 7 4 7C6.20914 7 8 8.79086 8 11Z" fill="#F1F1F1" fill-opacity="0.1"/>
<path d="M8 11C8 13.2091 6.20914 15 4 15C1.79086 15 0 13.2091 0 11C0 8.79086 1.79086 7 4 7C6.20914 7 8 8.79086 8 11Z" fill="url(#paint1_linear_208_1623)" fill-opacity="0.3"/>
</g>
<g filter="url(#filter2_bi_208_1623)">
<path d="M25 11C25 13.2091 23.2091 15 21 15C18.7909 15 17 13.2091 17 11C17 8.79086 18.7909 7 21 7C23.2091 7 25 8.79086 25 11Z" fill="#F1F1F1" fill-opacity="0.1"/>
<path d="M25 11C25 13.2091 23.2091 15 21 15C18.7909 15 17 13.2091 17 11C17 8.79086 18.7909 7 21 7C23.2091 7 25 8.79086 25 11Z" fill="url(#paint2_linear_208_1623)" fill-opacity="0.3"/>
</g>
<defs>
<filter id="filter0_bi_208_1623" x="32" y="-2" width="26" height="26" filterUnits="userSpaceOnUse" color-interpolation-filters="sRGB">
<feFlood flood-opacity="0" result="BackgroundImageFix"/>
<feGaussianBlur in="BackgroundImage" stdDeviation="1"/>
<feComposite in2="SourceAlpha" operator="in" result="effect1_backgroundBlur_208_1623"/>
<feBlend mode="normal" in="SourceGraphic" in2="effect1_backgroundBlur_208_1623" result="shape"/>
<feColorMatrix in="SourceAlpha" type="matrix" values="0 0 0 0 0 0 0 0 0 0 0 0 0 0 0 0 0 0 127 0" result="hardAlpha"/>
<feOffset dy="0.5"/>
<feGaussianBlur stdDeviation="1"/>
<feComposite in2="hardAlpha" operator="arithmetic" k2="-1" k3="1"/>
<feColorMatrix type="matrix" values="0 0 0 0 1 0 0 0 0 1 0 0 0 0 1 0 0 0 0.4 0"/>
<feBlend mode="normal" in2="shape" result="effect2_innerShadow_208_1623"/>
</filter>
<filter id="filter1_bi_208_1623" x="-4" y="3" width="16" height="16" filterUnits="userSpaceOnUse" color-interpolation-filters="sRGB">
<feFlood flood-opacity="0" result="BackgroundImageFix"/>
<feGaussianBlur in="BackgroundImage" stdDeviation="2"/>
<feComposite in2="SourceAlpha" operator="in" result="effect1_backgroundBlur_208_1623"/>
<feBlend mode="normal" in="SourceGraphic" in2="effect1_backgroundBlur_208_1623" result="shape"/>
<feColorMatrix in="SourceAlpha" type="matrix" values="0 0 0 0 0 0 0 0 0 0 0 0 0 0 0 0 0 0 127 0" result="hardAlpha"/>
<feOffset dy="0.5"/>
<feGaussianBlur stdDeviation="1"/>
<feComposite in2="hardAlpha" operator="arithmetic" k2="-1" k3="1"/>
<feColorMatrix type="matrix" values="0 0 0 0 1 0 0 0 0 1 0 0 0 0 1 0 0 0 0.4 0"/>
<feBlend mode="normal" in2="shape" result="effect2_innerShadow_208_1623"/>
</filter>
<filter id="filter2_bi_208_1623" x="13" y="3" width="16" height="16" filterUnits="userSpaceOnUse" color-interpolation-filters="sRGB">
<feFlood flood-opacity="0" result="BackgroundImageFix"/>
<feGaussianBlur in="BackgroundImage" stdDeviation="2"/>
<feComposite in2="SourceAlpha" operator="in" result="effect1_backgroundBlur_208_1623"/>
<feBlend mode="normal" in="SourceGraphic" in2="effect1_backgroundBlur_208_1623" result="shape"/>
<feColorMatrix in="SourceAlpha" type="matrix" values="0 0 0 0 0 0 0 0 0 0 0 0 0 0 0 0 0 0 127 0" result="hardAlpha"/>
<feOffset dy="0.5"/>
<feGaussianBlur stdDeviation="1"/>
<feComposite in2="hardAlpha" operator="arithmetic" k2="-1" k3="1"/>
<feColorMatrix type="matrix" values="0 0 0 0 1 0 0 0 0 1 0 0 0 0 1 0 0 0 0.4 0"/>
<feBlend mode="normal" in2="shape" result="effect2_innerShadow_208_1623"/>
</filter>
<linearGradient id="paint0_linear_208_1623" x1="45" y1="0" x2="45" y2="22" gradientUnits="userSpaceOnUse">
<stop stop-color="#308BC4"/>
<stop offset="1" stop-color="#308BC4" stop-opacity="0.1"/>
</linearGradient>
<linearGradient id="paint1_linear_208_1623" x1="4" y1="7" x2="4" y2="15" gradientUnits="userSpaceOnUse">
<stop stop-color="#308BC4"/>
<stop offset="1" stop-color="#308BC4" stop-opacity="0.1"/>
</linearGradient>
<linearGradient id="paint2_linear_208_1623" x1="21" y1="7" x2="21" y2="15" gradientUnits="userSpaceOnUse">
<stop stop-color="#308BC4"/>
<stop offset="1" stop-color="#308BC4" stop-opacity="0.1"/>
</linearGradient>
</defs>
</svg>
