<svg width="18" height="19" viewBox="0 0 18 19" fill="none" xmlns="http://www.w3.org/2000/svg">
<g clip-path="url(#clip0_208_850)">
<path d="M8.92764 17.3213C13.0364 17.3213 16.3672 13.9634 16.3672 9.82129C16.3672 5.67915 13.0364 2.32129 8.92764 2.32129C4.81886 2.32129 1.48804 5.67915 1.48804 9.82129C1.48804 13.9634 4.81886 17.3213 8.92764 17.3213Z" stroke="white" stroke-width="1.5" stroke-linecap="round" stroke-linejoin="round"/>
<path d="M1.48804 9.82129H16.3672" stroke="white" stroke-width="1.5" stroke-linecap="round" stroke-linejoin="round"/>
<path d="M8.9275 2.32129C10.7884 4.37505 11.8459 7.04031 11.9033 9.82129C11.8459 12.6023 10.7884 15.2675 8.9275 17.3213C7.06665 15.2675 6.00913 12.6023 5.95166 9.82129C6.00913 7.04031 7.06665 4.37505 8.9275 2.32129V2.32129Z" stroke="white" stroke-width="1.5" stroke-linecap="round" stroke-linejoin="round"/>
</g>
<defs>
<clipPath id="clip0_208_850">
<rect width="17.8551" height="18" fill="white" transform="translate(0 0.821289)"/>
</clipPath>
</defs>
</svg>
