<svg width="50" height="50" viewBox="0 0 50 50" fill="none" xmlns="http://www.w3.org/2000/svg">
<path d="M28.0769 18.97C28.4814 18.97 28.8093 18.642 28.8093 18.2376V18.0188C28.8093 17.6143 28.4814 17.2864 28.0769 17.2864C27.6724 17.2864 27.3445 17.6143 27.3445 18.0188V18.2376C27.3445 18.6421 27.6724 18.97 28.0769 18.97Z" fill="#1A2E35"/>
<path d="M46.9751 26.211C47.6243 25.2533 48.0041 24.0984 48.0041 22.8565C48.0041 19.5223 45.2681 16.8155 41.9249 16.8664C38.769 16.9144 36.1618 19.4541 36.0334 22.6077C35.9793 23.9378 36.3614 25.1778 37.048 26.1965C36.2357 26.6661 35.3974 27.3851 34.6632 28.6666C33.1495 27.9761 31.3662 27.6005 29.8475 27.2807C29.4854 27.2046 29.1359 27.1309 28.8093 27.0572V26.4394C30.4277 25.4681 31.6189 24.0125 31.6189 22.6433C31.6189 22.4825 31.6051 22.3372 31.5795 22.2052C31.6458 22.0545 31.7068 21.9037 31.7626 21.7532C33.3544 21.5881 34.4979 20.6918 34.4979 19.5418L34.5034 17.9194C34.5034 17.1018 33.851 16.4615 33.0181 16.4615H32.2039L32.2059 14.7195C32.2088 12.7389 31.4206 11.0678 29.9266 9.88679C28.6367 8.86707 26.9042 8.29412 25.0482 8.27351C25.0428 8.27341 25.0374 8.27341 25.0319 8.27351C23.176 8.29412 21.4435 8.86707 20.1536 9.88679C18.6596 11.0678 17.8714 12.7389 17.8743 14.7184V16.4615H17.0593C16.2264 16.4615 15.5739 17.1019 15.5739 17.9219L15.5795 19.5417C15.5831 20.6919 16.7263 21.5867 18.3146 21.7527C18.3705 21.9038 18.4318 22.055 18.4983 22.2063C18.4728 22.3382 18.4584 22.4827 18.4584 22.6434C18.4584 24.0123 19.6496 25.4676 21.2682 26.4388V27.0573C20.9415 27.131 20.5921 27.2047 20.23 27.2808C18.6906 27.6049 16.8796 27.9865 15.3529 28.6951C14.6138 27.3961 13.7689 26.6712 12.9513 26.1977C13.6385 25.1786 14.021 23.9377 13.9666 22.6068C13.8377 19.4523 11.2287 16.9128 8.07197 16.8664C4.72861 16.8172 1.99316 19.5233 1.99316 22.8564C1.99316 24.0988 2.37344 25.254 3.02334 26.2119C1.16104 27.3601 0 29.395 0 31.6204V34.9128C0 36.1384 0.993652 37.1321 2.21934 37.1321H8.80703C9.20811 37.1321 9.55781 36.8231 9.56982 36.4222C9.58232 36.0075 9.24971 35.6673 8.8377 35.6673H2.21895C1.80244 35.6673 1.46484 35.3297 1.46484 34.9132V31.6204C1.46484 29.8243 2.44941 28.1896 4.00879 27.3336C4.30156 27.5939 4.62002 27.8256 4.95977 28.0252L7.42559 33.2352C7.54678 33.4912 7.80459 33.6544 8.0876 33.6544H8.09062C8.37412 33.6544 8.63184 33.4897 8.75088 33.2325L11.2254 27.8891C11.4863 27.7204 11.7335 27.5324 11.9646 27.3263C12.6596 27.6776 13.4032 28.2257 14.0813 29.4212C13.0426 30.1572 12.2871 31.1498 12.094 32.5346L11.0403 39.1602C11.0343 39.198 11.0313 39.2363 11.0313 39.2746V42.5998C11.0313 43.6652 11.8965 44.5314 12.96 44.5314H18.7617C19.4844 44.5314 20.1484 44.2736 20.666 43.8439L24.1035 47.2511C24.3447 47.4924 24.6647 47.7168 25.0182 47.7264C25.3755 47.7362 25.7383 47.5027 25.9766 47.2511L29.3496 43.9064C29.8555 44.298 30.4893 44.5314 31.1777 44.5314H36.9766C38.041 44.5314 38.9082 43.6652 38.9082 42.5998V39.2746C38.9082 39.2682 38.9046 39.2009 38.9009 39.174L37.9847 32.5424C37.7899 31.1288 37.0101 30.1232 35.9408 29.382C36.6115 28.2133 37.3467 27.6724 38.0344 27.3253C38.2657 27.5318 38.5134 27.7201 38.7747 27.8891L41.2492 33.2325C41.3684 33.4897 41.6261 33.6544 41.9095 33.6544H41.9125C42.1955 33.6544 42.4534 33.4913 42.5745 33.2352L45.0408 28.0241C45.38 27.8247 45.6979 27.593 45.9901 27.333C47.5501 28.1888 48.5352 29.8238 48.5352 31.6204V34.9128C48.5352 35.3288 48.1956 35.6673 47.7783 35.6673H41.1902C40.7892 35.6673 40.4395 35.9762 40.4274 36.3771C40.4149 36.7919 40.7476 37.1321 41.1596 37.1321H47.7783C49.0033 37.1321 50 36.1365 50 34.9128V31.6204C50 29.3943 48.8383 27.3591 46.9751 26.211ZM32.2031 19.4174V17.9262H33.0182C33.0271 17.9262 33.034 17.9276 33.0386 17.9292L33.0331 19.5391C33.0331 19.7483 32.7027 20.0295 32.1534 20.1897C32.1863 19.9305 32.2031 19.6729 32.2031 19.4174ZM17.0443 19.5367L17.0389 17.9292C17.0435 17.9276 17.0503 17.9262 17.0593 17.9262H17.8743V19.4174C17.8743 19.6725 17.891 19.9299 17.9238 20.1886C17.3755 20.0277 17.045 19.7463 17.0443 19.5367ZM8.08037 31.1945L6.92422 28.7517C7.26797 28.8134 7.62119 28.8472 7.98232 28.8472C8.40947 28.8472 8.82598 28.8014 9.22813 28.716L8.08037 31.1945ZM12.4883 23.2707C12.2952 25.4312 10.5559 27.1714 8.39531 27.3639C5.57627 27.6153 3.22451 25.2623 3.47656 22.4422C3.66963 20.2816 5.40889 18.5415 7.56953 18.3488C10.3885 18.0975 12.7403 20.4506 12.4883 23.2707ZM19.3393 14.7172C19.3343 11.3432 22.2894 9.77185 25.0401 9.73826C27.7909 9.77185 30.746 11.3432 30.741 14.7175L30.7401 15.4821C29.3485 14.5511 27.304 13.9969 25.0531 13.9969C25.0443 13.9969 25.0357 13.9969 25.0271 13.9969C22.7759 13.9969 20.731 14.5508 19.3392 15.481L19.3393 14.7172ZM19.5948 20.97C19.5805 20.9251 19.5674 20.8799 19.5536 20.8347C19.4122 20.3516 19.3393 19.8774 19.3393 19.4174V17.4284C20.257 16.2427 22.5026 15.4593 25.0395 15.4618C25.0438 15.4617 25.0485 15.4618 25.0532 15.4618C27.5806 15.4618 29.822 16.2447 30.7383 17.4284V19.4174C30.7383 19.9202 30.6517 20.4398 30.4828 20.9697C30.255 20.8676 30.0192 20.784 29.7856 20.6963C27.7669 19.9261 26.3929 19.6098 25.0432 19.6042H25.0371C23.6855 19.6097 22.3106 19.9261 20.2937 20.6956C20.0594 20.7835 19.8232 20.8676 19.5948 20.97ZM19.9233 22.6432V22.6386C19.9237 22.5086 19.9994 22.3908 20.1158 22.333C20.3755 22.2039 20.814 22.0649 20.814 22.0649C22.6542 21.363 23.8789 21.0744 25.0402 21.0691C26.1996 21.0744 27.4235 21.3631 29.2655 22.0656C29.4857 22.1483 29.7122 22.2246 29.9173 22.3411C30.0359 22.4085 30.1543 22.4947 30.1543 22.6432C30.1543 23.9014 27.628 26.0856 25.0402 26.1059C22.4509 26.0856 19.9233 23.9014 19.9233 22.6432ZM27.3444 27.1363V27.6358C27.3444 28.2861 27.127 28.7958 26.6981 29.1507C26.3041 29.4768 25.7507 29.6564 25.14 29.6564C24.1725 29.6564 22.733 29.1183 22.733 27.6358V27.1357C23.4822 27.4062 24.2678 27.5655 25.0352 27.5707H25.0401H25.0451C25.8115 27.5655 26.5961 27.4064 27.3444 27.1363ZM20.5318 28.7141C20.8247 28.6525 21.1095 28.5925 21.3832 28.5323C21.8313 30.22 23.5285 31.1213 25.1401 31.1213C26.091 31.1213 26.9761 30.8222 27.6322 30.2791C28.1798 29.8259 28.5427 29.2324 28.7073 28.535C28.9772 28.5943 29.2574 28.6534 29.5458 28.714C29.7541 28.7579 29.9662 28.8027 30.1804 28.8486L26.4338 33.8418C25.9252 34.0842 25.4508 34.3999 25.0392 34.7694C24.6271 34.3999 24.1525 34.0843 23.6439 33.8419L19.8973 28.8487C20.1113 28.8027 20.3234 28.758 20.5318 28.7141ZM13.5418 32.7573C13.5426 32.7522 13.5434 32.7472 13.544 32.7422C13.8197 30.7408 16.008 29.8141 18.3382 29.2117L21.4178 33.3158C20.3882 33.3185 19.3701 33.6798 18.5421 34.537C17.4855 35.6327 17.0118 37.1073 17.1212 38.5419H12.6219L13.5418 32.7573ZM19.6162 42.8036C19.3721 42.9696 19.0781 43.0663 18.7617 43.0663H12.96C12.7041 43.0663 12.4961 42.8573 12.4961 42.5995V40.0067H18.7617C18.8701 40.0067 18.9756 40.0184 19.0771 40.0399C19.7246 40.1766 20.2227 40.7255 20.2822 41.4003C20.2861 41.4452 20.2881 41.4901 20.2881 41.536C20.2881 42.0633 20.0215 42.5282 19.6162 42.8036ZM28.1838 41.5025C28.1789 41.9444 28.2702 42.3663 28.4385 42.746L25.04 46.1171L21.5391 42.6473C21.6768 42.3036 21.7529 41.9286 21.7529 41.536C21.7529 39.8846 20.4111 38.5419 18.7617 38.5419H18.5869C18.4736 37.4774 18.8105 36.37 19.5957 35.5546C20.8447 34.2616 22.833 34.7518 24.0723 35.871C24.1563 35.9452 24.2227 36.0096 24.2783 36.0614C24.4824 36.2548 24.6924 36.454 25.04 36.454C25.3844 36.454 25.5921 36.2573 25.7935 36.0666L25.7959 36.0643C25.8516 36.0116 25.9199 35.9471 26.0068 35.869C27.2451 34.7518 29.2334 34.2616 30.4814 35.5536C31.2676 36.369 31.6045 37.4764 31.4912 38.5419H31.2395C29.5886 38.5419 28.2019 39.8518 28.1838 41.5025ZM37.4434 42.5995C37.4434 42.8562 37.2333 43.0663 36.9766 43.0663H31.1777C30.8965 43.0663 30.6338 42.9901 30.4072 42.8573C29.9561 42.5936 29.6523 42.1044 29.6484 41.5458V41.536C29.6484 40.7469 30.2471 40.0965 31.0147 40.0155C31.0684 40.0096 31.123 40.0067 31.1777 40.0067H37.4434V42.5995ZM36.5336 32.7424L37.3349 38.542H32.957C33.0654 37.1074 32.5918 35.6328 31.5352 34.5371C30.7073 33.6797 29.6893 33.3185 28.6599 33.3158L31.7394 29.2118C34.0695 29.8141 36.2578 30.7408 36.5336 32.7424ZM41.9196 31.1945L40.7719 28.716C41.1739 28.8014 41.5905 28.8472 42.0177 28.8472C42.3789 28.8472 42.7321 28.8132 43.0759 28.7516L41.9196 31.1945ZM42.0176 27.3824C39.4085 27.3824 37.3082 25.1618 37.5061 22.5107C37.6712 20.2988 39.455 18.5117 41.6668 18.3438C44.3178 18.1426 46.5393 20.2448 46.5393 22.8565C46.5393 25.3521 44.5108 27.3824 42.0176 27.3824Z" fill="#1A2E35"/>
<path d="M28.1838 41.5025C28.1789 41.9444 28.2702 42.3663 28.4385 42.746L25.04 46.1171L21.5391 42.6473C21.6768 42.3036 21.7529 41.9286 21.7529 41.536C21.7529 39.8846 20.4111 38.5419 18.7617 38.5419H18.5869C18.4736 37.4774 18.8105 36.37 19.5957 35.5546C20.8447 34.2616 22.833 34.7518 24.0723 35.871C24.1563 35.9452 24.2227 36.0096 24.2783 36.0614C24.4824 36.2548 24.6924 36.454 25.04 36.454C25.3844 36.454 25.5921 36.2573 25.7935 36.0666L25.7959 36.0643C25.8516 36.0116 25.9199 35.9471 26.0068 35.869C27.2451 34.7518 29.2334 34.2616 30.4814 35.5536C31.2676 36.369 31.6045 37.4764 31.4912 38.5419H31.2395C29.5886 38.5419 28.2019 39.8518 28.1838 41.5025Z" fill="url(#paint0_linear_208_127)"/>
<path d="M22.0007 18.97C22.4052 18.97 22.7332 18.642 22.7332 18.2376V18.0188C22.7332 17.6143 22.4052 17.2864 22.0007 17.2864C21.5962 17.2864 21.2683 17.6143 21.2683 18.0188V18.2376C21.2683 18.6421 21.5962 18.97 22.0007 18.97Z" fill="#1A2E35"/>
<defs>
<linearGradient id="paint0_linear_208_127" x1="-4.56129e-07" y1="26.552" x2="50.0083" y2="26.9641" gradientUnits="userSpaceOnUse">
<stop stop-color="#308BC4"/>
<stop offset="1" stop-color="#7EC287"/>
</linearGradient>
</defs>
</svg>
