<svg width="50" height="50" viewBox="0 0 50 50" fill="none" xmlns="http://www.w3.org/2000/svg">
<g clip-path="url(#clip0_208_133)">
<path d="M49.9347 44.4C49.9347 44.4 50.8829 43.4519 49.9347 42.9251C49.9347 42.9251 49.9347 42.8198 49.8294 42.8198H47.6171C47.5117 42.8198 47.5117 42.7144 47.5117 42.7144C48.2492 42.0824 48.6706 41.2396 48.9866 39.9754C49.1973 39.1326 49.092 38.3952 48.9866 37.5524C48.8813 36.6043 48.7759 35.6562 49.092 34.2866C49.3027 33.3385 49.1973 32.6011 48.5652 32.0743C47.9331 31.5476 46.8797 31.4423 45.4048 31.969C44.9834 32.1797 44.562 32.3904 44.1406 32.7064C43.4032 32.4957 42.4551 32.3904 41.6123 32.4957C39.9267 32.7064 38.4519 33.6546 37.3984 35.1294H37.293C36.2396 34.4973 35.0807 33.9706 33.7112 33.5492C33.2898 33.4439 32.8684 33.6546 32.7631 34.0759C32.6577 34.4973 32.8684 34.9187 33.2898 35.0241C34.554 35.3401 35.7128 35.8668 36.6609 36.4989C36.6609 36.6043 36.6609 36.6043 36.5556 36.7096C36.3449 37.4471 36.2396 38.2898 36.2396 39.0273C36.3449 40.5021 36.977 41.7663 37.9251 42.7144C37.9251 42.7144 37.9251 42.8198 37.8198 42.8198H30.5508C30.5508 42.8198 30.4454 42.8198 30.4454 42.7144V40.5021C30.4454 40.5021 30.4454 40.3968 30.5508 40.3968H32.5524C32.9738 40.3968 33.2898 40.0808 33.2898 39.6594C33.2898 39.238 32.9738 38.9219 32.5524 38.9219H23.7032C23.7032 38.9219 23.5979 38.9219 23.5979 38.8166V35.9722C23.7032 35.9722 23.8085 35.8669 23.9139 35.8669C25.3888 35.0241 27.6011 34.4973 29.8134 34.4973C30.2347 34.4973 30.5508 34.1813 30.5508 33.7599C30.5508 33.3385 30.2347 33.0225 29.8134 33.0225C28.9706 33.0225 28.1278 33.0225 27.285 33.1278C27.285 33.1278 27.1797 33.1278 27.1797 33.0225V29.0193C27.1797 29.0193 27.1797 29.0193 27.1797 28.9139C27.8118 28.3872 28.4438 27.7551 28.9706 26.9123C29.708 25.6481 29.708 24.9107 29.8134 23.6465C29.8134 23.4358 29.8134 23.2251 29.8134 23.0144V21.2235C29.8134 18.9059 27.9171 17.115 25.7048 17.115C25.5995 17.115 25.5995 17.0096 25.5995 17.0096C26.6529 15.8508 27.3904 14.3759 27.3904 13.1118V11.5316C27.3904 9.52995 26.7583 7.84439 25.5995 6.68556C24.546 5.63209 23.0711 5 21.4909 5C19.9107 5 18.4358 5.63209 17.3823 6.68556C16.2235 7.84439 15.4861 9.6353 15.4861 11.5316V13.1118C15.4861 14.4813 16.2235 15.9562 17.3823 17.115H17.0663C15.0647 17.115 14.1166 18.3791 13.4845 19.2219L9.05989 26.3856C9.05989 26.4909 8.95454 26.4909 8.95454 26.3856C8.4278 25.4374 7.16363 23.6465 5.79412 23.5412C5.37273 23.5412 4.84599 23.5412 4.52994 23.8572C4.2139 24.2786 4.2139 24.8054 4.31925 25.1214L5.37272 31.3369C5.47807 31.8636 5.58342 32.285 5.89946 32.6011C6.32085 32.9171 6.74224 32.8118 7.26898 32.8118C7.37433 32.8118 7.47968 32.8118 7.58502 32.8118C9.69197 32.6011 11.3775 33.2332 11.9043 33.5492C12.5364 33.8652 13.0631 34.1813 13.5898 34.4973C13.5898 34.4973 13.5898 34.4973 13.5898 34.6027V38.6059C13.5898 38.6059 13.5898 38.6059 13.4845 38.7112H7.58502C6.6369 38.7112 6.6369 38.7112 6.53155 38.3952C6.4262 38.0791 4.95133 35.2348 3.16043 35.1294C2.73904 35.1294 2.2123 35.1294 1.89626 35.4455C1.58021 35.8668 1.58021 36.2882 1.68556 36.7096L2.73904 42.7144C2.73904 42.7144 2.73904 42.8198 2.63369 42.8198H0.526738C0.526738 42.8198 0.526738 42.9251 0.42139 42.9251C-0.526738 43.5572 0.42139 44.2947 0.42139 44.2947C0.42139 44.2947 0.42139 44.4 0.526738 44.4H3.68716H49.9347ZM7.37433 42.8198H4.2139L3.16043 36.6043C3.79251 36.815 4.63529 37.9738 5.05668 38.9219C5.58342 39.9754 6.4262 40.0808 7.26898 40.0808V42.8198H7.37433ZM23.1765 34.6027C23.0711 34.4973 22.9658 34.392 22.8604 34.2866C22.7551 34.0759 22.5444 33.9706 22.439 33.6545C22.0176 33.1278 21.4909 32.6011 20.8588 32.0743L25.0727 30.3888C25.2834 30.2834 25.4941 30.1781 25.8101 30.0727V33.5492C24.7567 33.7599 23.9139 34.0759 23.1765 34.6027ZM19.0679 31.0209C18.8572 31.1262 18.5412 31.1262 18.3305 31.0209C18.1198 30.9155 17.9091 30.7048 17.8037 30.4941C17.6984 30.2834 17.6984 29.9674 17.8037 29.7567C17.9091 29.546 18.1198 29.3353 18.3305 29.23L22.2283 27.5444L23.1765 29.3353L19.0679 31.0209ZM21.5962 6.47487C23.4925 6.47487 25.5995 7.84439 25.9155 10.5834C24.2299 10.2674 20.7535 9.52995 20.4374 9.4246C20.2267 9.31925 20.016 9.31925 19.8053 9.31925C19.0679 9.31925 18.5412 9.6353 18.1198 9.95134C17.8037 10.162 17.593 10.2674 17.277 10.4781C17.593 7.84439 19.7 6.47487 21.5962 6.47487ZM17.1717 13.1118V12.1636C18.0144 11.9529 18.5412 11.6369 18.9626 11.3209C19.4893 11.0048 19.5946 10.8995 20.016 11.0048C20.3321 11.1102 24.3353 11.8476 26.0208 12.1636V13.1118C26.0208 14.4813 24.7567 16.3775 22.9658 17.2203C22.9658 17.2203 22.9658 17.2203 22.8604 17.2203C22.7551 17.2203 22.6497 17.3257 22.5444 17.3257C22.123 17.431 21.8069 17.5364 21.4909 17.5364C21.1749 17.5364 20.8588 17.431 20.4374 17.3257C20.3321 17.3257 20.2267 17.2203 20.1214 17.2203C20.1214 17.2203 20.1214 17.2203 20.016 17.2203C18.5412 16.3775 17.1717 14.5866 17.1717 13.1118ZM23.3872 18.6952V18.9059C23.3872 20.0647 22.5444 20.9075 21.5962 20.9075C20.6481 20.9075 19.8053 19.9594 19.8053 18.9059V18.6952C19.9107 18.6952 19.9107 18.8005 20.016 18.8005C20.5428 19.0112 21.0695 19.1166 21.5962 19.1166C22.123 19.1166 22.5444 19.0112 23.1765 18.8005C23.2818 18.8005 23.2818 18.8005 23.3872 18.6952ZM15.0647 20.0647C15.6968 19.0112 16.3289 18.6952 17.277 18.6952H18.2251V18.9059C18.2251 20.9075 19.7 22.4877 21.5962 22.4877C23.3872 22.4877 24.9674 20.9075 24.9674 18.9059V18.6952H25.9155C27.285 18.6952 28.4438 19.854 28.4438 21.2235V23.1198C28.4438 23.3305 28.4438 23.5412 28.4438 23.7519C28.4438 25.016 28.3385 25.3321 27.8118 26.2802C27.1797 27.3337 26.2315 28.0711 24.6513 28.8086L23.7032 26.9123C24.0192 26.7016 24.3353 26.4909 24.6513 26.1749L24.7567 26.0695L25.7048 24.4893C25.9155 24.1733 25.8102 23.6465 25.4941 23.4358C25.1781 23.2251 24.6513 23.3305 24.4406 23.6465L23.5979 25.1214C23.2818 25.4374 23.1765 25.5428 22.7551 25.6481L17.9091 27.7551C17.4877 27.9658 17.0663 28.1765 16.8556 28.5979C16.1182 28.1765 15.3807 27.9658 14.6433 27.7551L16.2235 25.2267C16.4342 24.9107 16.3289 24.384 16.0128 24.1733C15.6968 23.9626 15.17 24.0679 14.9594 24.384L12.8524 27.439C12.115 27.3337 11.3775 27.2283 10.6401 27.2283L15.0647 20.0647ZM10.008 31.4423C9.27058 31.3369 8.53315 31.3369 7.69037 31.4423C7.58502 31.4423 7.26898 31.4423 7.16363 31.4423C7.16363 31.3369 6.11016 25.2267 6.11016 25.2267C6.74224 25.4374 7.69037 26.7016 8.11176 27.7551C8.32246 28.2818 8.6385 28.5979 9.05989 28.7032C9.58663 28.8086 9.90267 28.7032 10.008 28.8086C10.2187 28.8086 10.4294 28.8086 10.6401 28.8086L10.008 31.4423ZM19.9107 42.8198H8.95454V40.1861H13.8005C16.7503 40.1861 17.8037 39.9754 18.4358 39.4487C18.6465 39.238 18.8572 38.9219 18.7519 38.3952C18.6465 36.9203 16.6449 33.9706 12.7471 32.1797C12.431 32.0743 12.0096 31.8636 11.4829 31.6529L12.2203 28.9139C13.5898 29.1246 15.0647 29.4406 16.1182 30.1781C16.1182 30.4941 16.2235 30.8102 16.3289 31.1262C16.5396 31.7583 17.0663 32.1797 17.6984 32.4957C18.0144 32.6011 18.3305 32.7064 18.6465 32.7064C18.7519 32.7064 18.9626 32.7064 19.0679 32.7064C19.8053 33.3385 20.6481 34.0759 21.0695 34.708C21.2802 34.9187 21.3856 35.1294 21.4909 35.2348C21.7016 35.4455 21.8069 35.6562 22.0176 35.8669V39.0273C20.6481 39.1326 19.4893 40.2914 19.4893 41.7663C19.5946 42.0824 19.7 42.5037 19.9107 42.8198ZM15.3807 38.6059V35.7615C16.5396 36.9203 17.0663 37.9738 17.1717 38.3952C16.961 38.5005 16.4342 38.6059 15.3807 38.6059ZM28.9706 42.8198H22.2283C21.5962 42.7144 21.1749 42.2931 21.1749 41.661C21.1749 41.0289 21.7016 40.5021 22.3337 40.5021H28.9706V42.8198ZM40.7695 42.8198C39.1893 42.1877 38.0305 40.7128 37.8198 38.9219C37.7144 38.3952 37.8198 37.8685 38.0305 37.2364C38.5572 35.7615 39.8214 34.2866 41.7176 34.0759C42.2444 33.9706 42.8765 34.0759 43.4032 34.1813C42.8765 35.5508 42.9818 37.2364 43.8246 39.0273C44.4567 40.6075 41.6123 42.2931 40.7695 42.8198ZM43.6139 42.7144C45.7208 40.8182 45.6155 39.238 45.1941 38.2898C44.562 36.9203 44.4567 35.6562 44.8781 34.708C45.0888 34.0759 45.5101 33.7599 46.1422 33.5492C46.7743 33.3385 47.1957 33.2332 47.4064 33.2332C47.6171 33.2332 47.7224 33.2332 47.7224 33.3385C47.7224 33.3385 47.8278 33.5492 47.7224 34.0759C47.4064 35.6562 47.5117 36.815 47.6171 37.8685C47.7224 38.6059 47.7224 39.238 47.6171 39.7647C47.1957 41.5556 46.0369 42.3984 43.6139 42.7144Z" fill="#1A2E35"/>
<path d="M15.0645 20.0646C15.6966 19.0111 16.3287 18.6951 17.2768 18.6951H18.2249V18.9058C18.2249 20.9074 19.6998 22.4876 21.596 22.4876C23.387 22.4876 24.9672 20.9074 24.9672 18.9058V18.6951H25.9153C27.2848 18.6951 28.4436 19.8539 28.4436 21.2234V23.1197C28.4436 23.3304 28.4436 23.5411 28.4436 23.7518C28.4436 25.0159 28.3383 25.332 27.8116 26.2801C27.1795 27.3336 26.2313 28.071 24.6511 28.8084L23.703 26.9122C24.019 26.7015 24.3351 26.4908 24.6511 26.1747L24.7565 26.0694L25.7046 24.4892C25.9153 24.1731 25.8099 23.6464 25.4939 23.4357C25.1779 23.225 24.6511 23.3304 24.4404 23.6464L23.5976 25.1213C23.2816 25.4373 23.1763 25.5427 22.7549 25.648L17.9089 27.755C17.4875 27.9657 17.0661 28.1763 16.8554 28.5977C16.118 28.1763 15.3805 27.9657 14.6431 27.755L16.2233 25.2266C16.434 24.9106 16.3287 24.3838 16.0126 24.1731C15.6966 23.9624 15.1698 24.0678 14.9591 24.3838L12.8522 27.4389C12.1148 27.3336 11.3773 27.2282 10.6399 27.2282L15.0645 20.0646Z" fill="url(#paint0_linear_208_133)"/>
<path d="M25.7049 33.5492C24.7567 33.7599 23.914 34.1813 23.1765 34.6027C23.0712 34.4973 22.9658 34.392 22.8605 34.2867C22.7551 34.076 22.5444 33.9706 22.4391 33.6546C22.0177 33.1278 21.491 32.6011 20.8589 32.0744L25.0728 30.3888C25.2835 30.2834 25.4942 30.1781 25.8102 30.0728L25.7049 33.5492Z" fill="url(#paint1_linear_208_133)"/>
</g>
<defs>
<linearGradient id="paint0_linear_208_133" x1="10.6399" y1="23.3805" x2="28.4455" y2="23.5844" gradientUnits="userSpaceOnUse">
<stop offset="0.239583" stop-color="#7EC287"/>
<stop offset="1" stop-color="#308BC4"/>
</linearGradient>
<linearGradient id="paint1_linear_208_133" x1="20.8589" y1="32.1715" x2="25.8111" y2="32.2067" gradientUnits="userSpaceOnUse">
<stop offset="0.239583" stop-color="#7EC287"/>
<stop offset="1" stop-color="#308BC4"/>
</linearGradient>
<clipPath id="clip0_208_133">
<rect width="50" height="50" fill="white"/>
</clipPath>
</defs>
</svg>
