<svg width="42" height="42" viewBox="0 0 42 42" fill="none" xmlns="http://www.w3.org/2000/svg">
<g clip-path="url(#clip0_208_139)">
<path d="M9.00391 19.1607C9.00391 24.6781 13.4765 29.1507 18.9939 29.1507C24.5114 29.1507 28.984 24.6781 28.984 19.1607C28.984 13.6433 24.5114 9.17065 18.9939 9.17065C13.4792 9.17671 9.0103 13.6459 9.00391 19.1607ZM18.9939 10.5485C23.7505 10.5485 27.6061 14.4042 27.6061 19.1607C27.6061 23.9172 23.7505 27.7729 18.9939 27.7729C14.2374 27.7729 10.3817 23.9172 10.3817 19.1607C10.3871 14.4065 14.2398 10.5539 18.9939 10.5485Z" fill="#1A2E35"/>
<path d="M18.9939 10.5485C23.7505 10.5485 27.6061 14.4042 27.6061 19.1607C27.6061 23.9172 23.7505 27.7729 18.9939 27.7729C14.2374 27.7729 10.3817 23.9172 10.3817 19.1607C10.3871 14.4065 14.2398 10.5539 18.9939 10.5485Z" fill="url(#paint0_linear_208_139)"/>
<path d="M19.0511 22.9218C18.9734 22.905 18.8936 22.9019 18.8149 22.9137C18.0261 22.8219 17.431 22.1545 17.4297 21.3606C17.4297 20.9801 17.1212 20.6717 16.7408 20.6717C16.3603 20.6717 16.0518 20.9801 16.0518 21.3606C16.0538 22.6863 16.9406 23.8475 18.2188 24.1984V24.8873C18.2188 25.2677 18.5273 25.5762 18.9078 25.5762C19.2882 25.5762 19.5967 25.2677 19.5967 24.8873V24.2401C21.0721 23.9313 22.0749 22.5571 21.9198 21.0579C21.7644 19.5586 20.5012 18.4192 18.9939 18.4189C18.13 18.4189 17.4297 17.7185 17.4297 16.8547C17.4297 15.9909 18.13 15.2905 18.9939 15.2905C19.8577 15.2905 20.5581 15.9909 20.5581 16.8547C20.5581 17.2351 20.8665 17.5436 21.247 17.5436C21.6275 17.5436 21.9359 17.2351 21.9359 16.8547C21.9339 15.4627 20.9587 14.2622 19.5967 13.9749V13.3479C19.5967 12.9674 19.2882 12.6589 18.9078 12.6589C18.5273 12.6589 18.2188 12.9674 18.2188 13.3479V14.0169C16.7973 14.4051 15.8823 15.7853 16.0781 17.2459C16.2738 18.7065 17.5202 19.7967 18.9939 19.7964C19.8463 19.7964 20.5416 20.4789 20.5571 21.331C20.5729 22.1831 19.9028 22.8908 19.0511 22.9218V22.9218Z" fill="#1A2E35"/>
<path d="M32.38 30.8491L26.9834 33.3989C26.2383 32.013 24.8089 31.131 23.236 31.0866L18.2541 30.9497C17.4653 30.9271 16.6912 30.7273 15.9899 30.365L15.4829 30.1023C12.8874 28.7494 9.79363 28.7527 7.20075 30.1111L7.23237 28.9626C7.2428 28.5822 6.94308 28.2653 6.56263 28.2549L1.09969 28.1045C0.71924 28.0941 0.4027 28.3938 0.392272 28.7743L0.0622758 40.7624C0.0518478 41.1429 0.351569 41.4598 0.732023 41.4702L6.19495 41.6206H6.21379C6.58718 41.6206 6.89262 41.3235 6.90271 40.9505L6.91852 40.3769L8.33774 39.617C8.8948 39.3173 9.54604 39.246 10.1546 39.4182L18.6295 41.7968C18.6443 41.8012 18.6591 41.8046 18.6743 41.8079C19.2868 41.9361 19.9111 42.0004 20.5368 42C21.8622 42.0007 23.1721 41.7151 24.3767 41.1621C24.4063 41.1486 24.4349 41.1328 24.4621 41.115L36.75 33.1668C37.0561 32.9687 37.155 32.5667 36.9757 32.2491C36.0635 30.6304 34.0401 30.0138 32.38 30.8491V30.8491ZM1.45862 40.1119L1.7506 29.5009L5.83603 29.6132L5.54404 40.2246L1.45862 40.1119ZM23.7561 39.9316C22.2595 40.607 20.588 40.7934 18.9794 40.4647L10.5273 38.0922C9.57598 37.8234 8.55774 37.9348 7.6875 38.4027L6.96225 38.7912L7.15635 31.7362C9.45455 30.2076 12.402 30.0505 14.8495 31.3258L15.3565 31.5885C16.2425 32.046 17.2197 32.2983 18.2164 32.3272L23.1987 32.4641C24.598 32.5045 25.7865 33.5008 26.0704 34.872L18.6494 34.6671C18.2689 34.6567 17.9524 34.9567 17.9416 35.3368C17.9312 35.7173 18.2312 36.0342 18.6113 36.0446L26.801 36.27H26.8202C27.1933 36.2696 27.4984 35.9726 27.5085 35.5999C27.5169 35.3005 27.4947 35.0008 27.4419 34.7061L32.9771 32.0907C32.9825 32.0884 32.9879 32.0857 32.9933 32.083C33.7784 31.6857 34.7277 31.8186 35.3735 32.4163L23.7561 39.9316Z" fill="#1A2E35"/>
<path d="M19.6828 7.23367V0.688921C19.6828 0.308467 19.3743 0 18.9939 0C18.6134 0 18.3049 0.308467 18.3049 0.688921V7.23367C18.3049 7.61412 18.6134 7.92259 18.9939 7.92259C19.3743 7.92259 19.6828 7.61412 19.6828 7.23367Z" fill="#1A2E35"/>
<path d="M24.8498 7.23365V4.1335C24.8498 3.75305 24.5413 3.44458 24.1608 3.44458C23.7804 3.44458 23.4719 3.75305 23.4719 4.1335V7.23365C23.4719 7.6141 23.7804 7.92257 24.1608 7.92257C24.5413 7.92257 24.8498 7.6141 24.8498 7.23365Z" fill="#1A2E35"/>
<path d="M14.5158 7.23365V4.1335C14.5158 3.75305 14.2073 3.44458 13.8269 3.44458C13.4464 3.44458 13.1379 3.75305 13.1379 4.1335V7.23365C13.1379 7.6141 13.4464 7.92257 13.8269 7.92257C14.2073 7.92257 14.5158 7.6141 14.5158 7.23365Z" fill="#1A2E35"/>
</g>
<defs>
<linearGradient id="paint0_linear_208_139" x1="9.00391" y1="18.4273" x2="28.9878" y2="18.5573" gradientUnits="userSpaceOnUse">
<stop stop-color="#308BC4"/>
<stop offset="1" stop-color="#7EC287"/>
</linearGradient>
<clipPath id="clip0_208_139">
<rect width="42" height="42" fill="white"/>
</clipPath>
</defs>
</svg>
