<svg width="40" height="40" viewBox="0 0 40 40" fill="none" xmlns="http://www.w3.org/2000/svg">
<path d="M3.125 39.375H8.12563C8.2975 39.375 8.4625 39.3044 8.58063 39.1788C8.69875 39.0538 8.76 38.885 8.75 38.7138L8.715 38.125H10.6256C10.7987 38.125 10.965 38.0531 11.0825 37.9262C11.2006 37.7994 11.2612 37.6287 11.2487 37.4556L11.225 37.1256L11.9025 36.8994C14.16 36.1469 16.61 36.0844 18.9406 36.55C20.0156 36.7656 21.1188 36.875 22.2188 36.875C25.7744 36.875 29.2131 35.5925 31.9013 33.2638L36.6919 29.1106C37.2056 28.6663 37.5006 28.0212 37.5006 27.3412C37.5006 26.1012 36.5287 25.0937 35.3087 25.015C36.7419 22.5487 37.5006 19.7663 37.5006 16.875C37.5006 7.91438 30.2112 0.625 21.2506 0.625C12.29 0.625 5.00063 7.91438 5.00063 16.875C5.00063 21.0788 6.64125 25.1106 9.53313 28.125H8.12688L8.125 28.0881C8.105 27.7581 7.83125 27.5 7.50063 27.5H3.12562C2.78 27.5 2.50062 27.7794 2.50062 28.125L2.5 38.75C2.5 38.9163 2.56563 39.075 2.68313 39.1919C2.80063 39.3088 2.95875 39.375 3.125 39.375ZM36.2506 27.3412C36.2506 27.6581 36.1131 27.9581 35.8731 28.1656L31.0819 32.3188C28.6219 34.4506 25.4744 35.625 22.2188 35.625C21.2013 35.625 20.1806 35.5238 19.1856 35.325C16.6431 34.8156 13.97 34.8925 11.5069 35.7137L11.1331 35.8381L10.6856 29.5738L11.6638 28.5956C12.7738 27.4862 14.2487 26.875 15.8181 26.875C16.8544 26.875 17.8681 27.07 18.8313 27.4556C19.9425 27.9 21.1125 28.125 22.3081 28.125H25.0006C26.1625 28.125 27.1325 28.9244 27.4119 30H21.2506V31.25H28.1256C28.2681 31.25 28.405 31.2019 28.5163 31.1131L34.295 26.4894C34.4881 26.335 34.73 26.25 34.9775 26.25H35.1594C35.7613 26.25 36.2506 26.7394 36.2506 27.3412ZM8.7825 16.25C8.93063 13.2756 10.1181 10.5769 11.995 8.50313L13.295 9.80313L14.1788 8.91937L12.8788 7.61937C14.9525 5.74187 17.6506 4.555 20.6256 4.40688V6.25H21.8756V4.40688C24.85 4.555 27.5488 5.74187 29.6219 7.61937L28.3212 8.92L29.205 9.80375L30.5056 8.50313C32.3831 10.5763 33.5706 13.275 33.7188 16.25H31.8756V17.5H33.7294C33.5844 20.4269 32.4325 23.1525 30.5212 25.2619L29.2056 23.9462L28.3219 24.83L29.6356 26.1438C28.9619 26.7525 28.215 27.2913 27.4044 27.75C26.7531 27.2044 25.915 26.875 25.0013 26.875H22.3087C21.2725 26.875 20.2587 26.68 19.2956 26.2944C18.5312 25.9888 17.7381 25.795 16.9288 25.6981L20.9188 18.7162C21.0263 18.7356 21.1369 18.75 21.2506 18.75C22.2844 18.75 23.1256 17.9088 23.1256 16.875C23.1256 16.0613 22.6012 15.3737 21.8756 15.115V9.37437H20.6256V15.115C19.9 15.3737 19.3756 16.0613 19.3756 16.875C19.3756 17.3413 19.5531 17.7631 19.8356 18.0912L15.7081 25.315L16.29 25.6475C16.1325 25.6394 15.9762 25.625 15.8181 25.625C14.8175 25.625 13.8506 25.835 12.9606 26.225C12.9294 26.1975 12.8975 26.17 12.8669 26.1425L14.1794 24.83L13.2956 23.9462L11.9838 25.2581C10.0531 23.1262 8.91188 20.3975 8.76813 17.5H10.6256V16.25H8.7825ZM21.2506 16.25C21.5956 16.25 21.8756 16.53 21.8756 16.875C21.8756 17.22 21.5956 17.5 21.2506 17.5C20.9056 17.5 20.6256 17.22 20.6256 16.875C20.6256 16.53 20.9056 16.25 21.2506 16.25ZM21.2506 1.875C29.5212 1.875 36.2506 8.60438 36.2506 16.875C36.2506 19.995 35.3006 22.9812 33.5075 25.5181L28.5669 29.4712C28.4813 29.2062 28.3644 28.9556 28.225 28.72C32.42 26.2506 35.0006 21.7788 35.0006 16.875C35.0006 9.29313 28.8325 3.125 21.2506 3.125C13.6687 3.125 7.50063 9.29313 7.50063 16.875C7.50063 20.6775 9.06 24.27 11.805 26.8644C11.4619 27.0994 11.1375 27.3656 10.8344 27.6625C7.91625 24.8431 6.25063 20.9463 6.25063 16.875C6.25063 8.60438 12.98 1.875 21.2506 1.875ZM9.41875 29.375L9.95375 36.875H8.64063L8.2 29.375H9.41875ZM3.75062 28.75H6.91125L7.46312 38.125H3.75L3.75062 28.75Z" fill="#1A2E35"/>
<path d="M8.7825 16.25C8.93063 13.2756 10.1181 10.5769 11.995 8.50313L13.295 9.80313L14.1788 8.91937L12.8788 7.61937C14.9525 5.74187 17.6506 4.555 20.6256 4.40688V6.25H21.8756V4.40688C24.85 4.555 27.5488 5.74187 29.6219 7.61937L28.3212 8.92L29.205 9.80375L30.5056 8.50313C32.3831 10.5763 33.5706 13.275 33.7188 16.25H31.8756V17.5H33.7294C33.5844 20.4269 32.4325 23.1525 30.5212 25.2619L29.2056 23.9462L28.3219 24.83L29.6356 26.1438C28.9619 26.7525 28.215 27.2913 27.4044 27.75C26.7531 27.2044 25.915 26.875 25.0013 26.875H22.3087C21.2725 26.875 20.2587 26.68 19.2956 26.2944C18.5312 25.9888 17.7381 25.795 16.9288 25.6981L20.9188 18.7162C21.0263 18.7356 21.1369 18.75 21.2506 18.75C22.2844 18.75 23.1256 17.9088 23.1256 16.875C23.1256 16.0613 22.6012 15.3737 21.8756 15.115V9.37437H20.6256V15.115C19.9 15.3737 19.3756 16.0613 19.3756 16.875C19.3756 17.3413 19.5531 17.7631 19.8356 18.0912L15.7081 25.315L16.29 25.6475C16.1325 25.6394 15.9762 25.625 15.8181 25.625C14.8175 25.625 13.8506 25.835 12.9606 26.225C12.9294 26.1975 12.8975 26.17 12.8669 26.1425L14.1794 24.83L13.2956 23.9462L11.9838 25.2581C10.0531 23.1262 8.91188 20.3975 8.76813 17.5H10.6256V16.25H8.7825Z" fill="url(#paint0_linear_208_147)"/>
<defs>
<linearGradient id="paint0_linear_208_147" x1="2.5" y1="18.5777" x2="37.5076" y2="18.7833" gradientUnits="userSpaceOnUse">
<stop offset="0.270833" stop-color="#7EC287"/>
<stop offset="1" stop-color="#308BC4"/>
</linearGradient>
</defs>
</svg>
