<svg width="26" height="23" viewBox="0 0 26 23" fill="none" xmlns="http://www.w3.org/2000/svg">
<path d="M9.64546 12.5527H9.80146C10.1615 12.5527 10.3415 12.3607 10.3415 11.9887V5.23268C10.3415 4.86068 10.1615 4.66868 9.80146 4.66868H9.38146C9.32146 5.18468 8.92546 5.58068 8.40946 5.58068C8.09746 5.58068 7.88146 5.47268 7.70146 5.30468C7.66546 5.28068 7.35346 5.50868 7.35346 5.91668C7.35346 6.15668 7.44946 6.37268 7.61746 6.51668C7.79746 6.66068 8.03746 6.74468 8.31346 6.74468C8.62546 6.74468 8.91346 6.62468 9.11746 6.42068V11.9887C9.11746 12.3607 9.29746 12.5527 9.64546 12.5527ZM13.092 12.4927H17.412C17.82 12.4927 18 12.3127 18 11.9887V11.9167C18 11.6047 17.82 11.4367 17.412 11.4367H13.476C13.476 11.3167 13.5 11.1967 13.524 11.0887C13.728 10.2607 14.568 9.82868 15.588 9.37268C16.764 8.83268 17.868 8.28068 17.868 6.88868C17.868 5.44868 16.848 4.57268 15.156 4.57268C14.244 4.57268 13.536 4.86068 13.068 5.24468C12.6 5.62868 12.36 6.10868 12.36 6.51668C12.36 7.16468 13.176 7.15268 13.176 7.11668C13.392 6.32468 13.932 5.62868 15.072 5.62868C16.068 5.62868 16.656 6.10868 16.656 6.91268C16.656 7.75268 15.744 8.13668 14.724 8.64068C13.56 9.21668 12.324 9.92468 12.324 11.5207V11.8207C12.324 12.3127 12.552 12.4927 13.092 12.4927Z" fill="#308BC4"/>
<g opacity="0.5">
<path d="M23.0338 1.05057C20.5792 -0.325745 18.0669 -0.349072 15.759 0.976513L17.4126 2.62979C18.3605 2.24323 19.3751 2.16695 20.4348 2.40763C21.7756 2.71273 22.6328 3.28222 23.1326 4.19902C23.7355 5.3054 23.9139 6.51435 23.6633 7.79069C23.4041 9.11294 22.6942 10.2941 21.3624 11.6201C21.3487 11.6334 21.3346 11.6471 21.3213 11.6608C21.3055 11.6821 21.2887 11.7027 21.2709 11.7223L13.5322 19.461C13.3977 19.5946 13.2173 19.6719 13.0278 19.6773L13.0075 19.6969L13.0016 19.6913L12.9956 19.6969L12.9753 19.6773C12.7858 19.6719 12.6054 19.5946 12.4709 19.461L4.7322 11.7223C4.71437 11.7027 4.69757 11.6821 4.68184 11.6608L4.64074 11.6201C3.30775 10.2941 2.59941 9.11294 2.33985 7.79069C2.08917 6.5125 2.26579 5.30355 2.87045 4.19902C3.37032 3.28222 4.22751 2.71273 5.56828 2.40763C6.62689 2.16695 7.63886 2.24248 8.58565 2.6272L10.2393 0.973551C7.92915 -0.348702 5.41869 -0.325004 2.96561 1.05057C0.30815 2.54093 -0.259482 5.56793 0.0952414 7.90473C0.380353 9.78166 1.35159 11.5001 3.15186 13.3108C3.98128 14.145 4.84735 14.9688 5.68491 15.7653L5.75527 15.8323C6.13813 16.1967 6.52075 16.5616 6.90312 16.9272L9.77127 19.6939C10.5748 20.4683 11.3786 21.2424 12.1829 22.0163C12.4365 22.2599 12.7187 22.3888 12.9997 22.3888C13.2807 22.3888 13.5629 22.2599 13.8165 22.0163C14.6208 21.2424 15.4246 20.4683 16.2281 19.6939L19.0974 16.9298C19.478 16.5633 19.8607 16.1983 20.2452 15.8349L20.3156 15.7679C21.1532 14.9714 22.0189 14.1476 22.8483 13.3133C24.6489 11.5012 25.6202 9.78277 25.9053 7.90733C26.2589 5.5683 25.6909 2.54093 23.0338 1.05057Z" fill="url(#paint0_linear_208_711)"/>
</g>
<defs>
<linearGradient id="paint0_linear_208_711" x1="-2.37187e-07" y1="10.3726" x2="26.0046" y2="10.569" gradientUnits="userSpaceOnUse">
<stop stop-color="#308BC4"/>
<stop offset="1" stop-color="#7EC287"/>
</linearGradient>
</defs>
</svg>
