<svg width="26" height="23" viewBox="0 0 26 23" fill="none" xmlns="http://www.w3.org/2000/svg">
<path d="M12.9216 12.6487C14.6016 12.6487 15.8016 11.5327 15.8016 9.99668V9.93668C15.8016 8.48468 14.7576 7.59668 13.1736 7.59668C12.2736 7.59668 11.4696 7.98068 10.9656 8.44868C10.9656 8.07668 10.9656 8.00468 10.9776 7.88468C11.0616 6.39668 11.8056 5.59268 13.0656 5.59268C13.9416 5.59268 14.4936 6.00068 14.8536 6.55268C14.8776 6.58868 15.4776 6.42068 15.4776 5.95268C15.4776 5.64068 15.2736 5.30468 14.8536 5.02868C14.4456 4.76468 13.8216 4.57268 13.0056 4.57268C11.0016 4.57268 9.74159 5.96468 9.74159 8.25668V9.04868C9.74159 11.1967 10.8576 12.6487 12.9216 12.6487ZM12.8736 11.6647C11.7576 11.6647 11.1096 10.8967 10.9896 9.57668C10.9896 9.52868 10.9776 9.46868 10.9776 9.40868C11.4336 8.90468 12.1656 8.52068 12.9096 8.52068C14.0016 8.52068 14.6136 9.06068 14.6136 10.0207V10.0927C14.6136 11.0287 13.8936 11.6647 12.8736 11.6647Z" fill="#308BC4"/>
<g opacity="0.5">
<path d="M23.0338 1.05057C20.5792 -0.325745 18.0669 -0.349072 15.759 0.976513L17.4126 2.62979C18.3605 2.24323 19.3751 2.16695 20.4348 2.40763C21.7756 2.71273 22.6328 3.28222 23.1326 4.19902C23.7355 5.3054 23.9139 6.51435 23.6633 7.79069C23.4041 9.11294 22.6942 10.2941 21.3624 11.6201C21.3487 11.6334 21.3346 11.6471 21.3213 11.6608C21.3055 11.6821 21.2887 11.7027 21.2709 11.7223L13.5322 19.461C13.3977 19.5946 13.2173 19.6719 13.0278 19.6773L13.0075 19.6969L13.0016 19.6913L12.9956 19.6969L12.9753 19.6773C12.7858 19.6719 12.6054 19.5946 12.4709 19.461L4.7322 11.7223C4.71437 11.7027 4.69757 11.6821 4.68184 11.6608L4.64074 11.6201C3.30775 10.2941 2.59941 9.11294 2.33985 7.79069C2.08917 6.5125 2.26579 5.30355 2.87045 4.19902C3.37032 3.28222 4.22751 2.71273 5.56828 2.40763C6.62689 2.16695 7.63886 2.24248 8.58565 2.6272L10.2393 0.973551C7.92915 -0.348702 5.41869 -0.325004 2.96561 1.05057C0.30815 2.54093 -0.259482 5.56793 0.0952414 7.90473C0.380353 9.78166 1.35159 11.5001 3.15186 13.3108C3.98128 14.145 4.84735 14.9688 5.68491 15.7653L5.75527 15.8323C6.13813 16.1967 6.52075 16.5616 6.90312 16.9272L9.77127 19.6939C10.5748 20.4683 11.3786 21.2424 12.1829 22.0163C12.4365 22.2599 12.7187 22.3888 12.9997 22.3888C13.2807 22.3888 13.5629 22.2599 13.8165 22.0163C14.6208 21.2424 15.4246 20.4683 16.2281 19.6939L19.0974 16.9298C19.478 16.5633 19.8607 16.1983 20.2452 15.8349L20.3156 15.7679C21.1532 14.9714 22.0189 14.1476 22.8483 13.3133C24.6489 11.5012 25.6202 9.78277 25.9053 7.90733C26.2589 5.5683 25.6909 2.54093 23.0338 1.05057Z" fill="url(#paint0_linear_208_698)"/>
</g>
<defs>
<linearGradient id="paint0_linear_208_698" x1="-2.37187e-07" y1="10.3726" x2="26.0046" y2="10.569" gradientUnits="userSpaceOnUse">
<stop stop-color="#308BC4"/>
<stop offset="1" stop-color="#7EC287"/>
</linearGradient>
</defs>
</svg>
