<?xml version="1.0" encoding="utf-8"?>
<!-- Generator: Adobe Illustrator 18.0.0, SVG Export Plug-In . SVG Version: 6.00 Build 0)  -->
<!DOCTYPE svg PUBLIC "-//W3C//DTD SVG 1.1//EN" "http://www.w3.org/Graphics/SVG/1.1/DTD/svg11.dtd">
<svg version="1.1" id="Layer_1" xmlns="http://www.w3.org/2000/svg" xmlns:xlink="http://www.w3.org/1999/xlink" x="0px" y="0px"
	 viewBox="0 0 38 38" enable-background="new 0 0 38 38" xml:space="preserve">
<g id="Snapchat">
	<g>
		<path fill="#F1F1F1" fill-opacity="0.1" d="M34,15c0,8.3-6.7,15-15,15S4,23.3,4,15S10.7,0,19,0S34,6.7,34,15z"/>
		
			<linearGradient id="SVGID_1_" gradientUnits="userSpaceOnUse" x1="-365.2982" y1="147.6299" x2="-365.2982" y2="152.4376" gradientTransform="matrix(6.24 0 0 6.24 2298.4609 -921.2104)">
			<stop  offset="0" style="stop-color:#FFFFFF;stop-opacity:0.7"/>
			<stop  offset="1" style="stop-color:#FFFFFF;stop-opacity:0.1"/>
		</linearGradient>
		<path fill="url(#SVGID_1_)" fill-opacity="0.5" d="M34,15c0,8.3-6.7,15-15,15S4,23.3,4,15S10.7,0,19,0S34,6.7,34,15z"/>
	</g>
	<g>
		<path fill="#FFFFFF" d="M27.6,19.1c-2.4-0.4-3.5-2.9-3.5-2.9l0,0C24,16,23.9,15.7,24,15.6c0.1-0.3,0.7-0.5,1-0.6
			c0.1-0.1,0.2-0.1,0.2-0.1c0.3-0.1,0.5-0.3,0.7-0.4c0.2-0.2,0.2-0.4,0.2-0.5c0-0.3-0.2-0.5-0.6-0.7c-0.1-0.1-0.2-0.1-0.4-0.1
			c-0.1,0-0.2,0-0.4,0.1c-0.3,0.1-0.5,0.2-0.8,0.2c-0.1,0-0.2-0.1-0.2-0.1c0-0.1,0-0.2,0-0.4v-0.1c0.1-1.2,0.2-2.8-0.2-3.7
			c-0.3-0.6-0.7-1.1-1.1-1.6c-0.4-0.4-0.8-0.7-1.3-0.8c-0.8-0.4-1.7-0.4-2-0.4l0,0h-0.1c-0.1,0-0.3,0-0.3,0c-0.4,0-1.2,0.1-2,0.4
			c-0.5,0.2-1,0.5-1.3,0.8c-0.5,0.4-0.8,1-1.1,1.6c-0.4,0.9-0.3,2.4-0.2,3.7l0,0c0,0.1,0,0.2,0,0.4c-0.1,0-0.2,0.1-0.3,0.1
			c-0.2,0-0.5-0.1-0.8-0.2c-0.1-0.1-0.2-0.1-0.3-0.1c-0.2,0-0.4,0.1-0.5,0.2c-0.2,0.1-0.4,0.3-0.4,0.5c0,0.1,0,0.4,0.2,0.7
			c0.2,0.1,0.4,0.2,0.7,0.4c0.1,0.1,0.2,0.1,0.2,0.1c0.4,0.1,0.8,0.2,1,0.6c0.1,0.2,0.1,0.4-0.1,0.6l0,0c-0.1,0.1-0.3,0.7-0.9,1.4
			c-0.4,0.4-0.7,0.7-1.1,1c-0.5,0.3-1,0.5-1.6,0.6c-0.2,0-0.3,0.2-0.3,0.4c0,0.1,0,0.1,0.1,0.2l0,0c0.1,0.2,0.3,0.4,0.6,0.5
			c0.4,0.2,1,0.4,1.7,0.5c0.1,0.1,0.1,0.2,0.1,0.4c0,0.1,0.1,0.3,0.1,0.4c0.1,0.2,0.2,0.4,0.5,0.4c0.1,0,0.2,0,0.4-0.1
			c0.2-0.1,0.5-0.1,1-0.1c0.2,0,0.4,0,0.7,0.1c0.4,0.1,0.8,0.4,1.3,0.7c0.7,0.5,1.4,1,2.5,1c0.1,0,0.1,0,0.1,0c0.1,0,0.1,0,0.1,0
			c1.1,0,1.9-0.5,2.5-1l0,0c0.4-0.3,0.8-0.6,1.3-0.7c0.2-0.1,0.5-0.1,0.7-0.1c0.4,0,0.7,0.1,1,0.1c0.2,0.1,0.3,0.1,0.4,0.1l0,0l0,0
			c0.2,0,0.4-0.1,0.5-0.4c0.1-0.1,0.1-0.3,0.1-0.4c0-0.1,0.1-0.3,0.1-0.4c0.8-0.1,1.4-0.3,1.7-0.5c0.3-0.1,0.5-0.3,0.6-0.5
			c0-0.1,0.1-0.1,0.1-0.2C28,19.4,27.9,19.2,27.6,19.1z"/>
	</g>
</g>
</svg>
