<svg width="190" height="38" viewBox="0 0 190 38" fill="none" xmlns="http://www.w3.org/2000/svg">
<g filter="url(#filter0_d_208_768)">
<path d="M34 15C34 23.2843 27.2843 30 19 30C10.7157 30 4 23.2843 4 15C4 6.71573 10.7157 0 19 0C27.2843 0 34 6.71573 34 15Z" fill="#F1F1F1" fill-opacity="0.1" shape-rendering="crispEdges"/>
<path d="M34 15C34 23.2843 27.2843 30 19 30C10.7157 30 4 23.2843 4 15C4 6.71573 10.7157 0 19 0C27.2843 0 34 6.71573 34 15Z" fill="url(#paint0_linear_208_768)" fill-opacity="0.5" shape-rendering="crispEdges"/>
</g>
<g filter="url(#filter1_d_208_768)">
<g filter="url(#filter2_bi_208_768)">
<path d="M186 15C186 23.2843 179.284 30 171 30C162.716 30 156 23.2843 156 15C156 6.71573 162.716 0 171 0C179.284 0 186 6.71573 186 15Z" fill="#F1F1F1" fill-opacity="0.1"/>
<path d="M186 15C186 23.2843 179.284 30 171 30C162.716 30 156 23.2843 156 15C156 6.71573 162.716 0 171 0C179.284 0 186 6.71573 186 15Z" fill="url(#paint1_linear_208_768)" fill-opacity="0.5"/>
</g>
<g clip-path="url(#clip0_208_768)">
<g filter="url(#filter3_d_208_768)">
<path d="M168.888 16.1439C168.822 16.1439 167.37 16.1439 166.71 16.1439C166.358 16.1439 166.248 16.0119 166.248 15.6819C166.248 14.8019 166.248 13.8999 166.248 13.0199C166.248 12.6679 166.38 12.5579 166.71 12.5579H168.888C168.888 12.4919 168.888 11.2159 168.888 10.6219C168.888 9.74192 169.042 8.90592 169.482 8.13592C169.944 7.34392 170.604 6.81592 171.44 6.50792C171.99 6.30992 172.54 6.22192 173.134 6.22192H175.29C175.598 6.22192 175.73 6.35392 175.73 6.66192V9.16992C175.73 9.47792 175.598 9.60992 175.29 9.60992C174.696 9.60992 174.102 9.60992 173.508 9.63192C172.914 9.63192 172.606 9.91792 172.606 10.5339C172.584 11.1939 172.606 11.8319 172.606 12.5139H175.158C175.51 12.5139 175.642 12.6459 175.642 12.9979V15.6599C175.642 16.0119 175.532 16.1219 175.158 16.1219C174.366 16.1219 172.672 16.1219 172.606 16.1219V23.2939C172.606 23.6679 172.496 23.7999 172.1 23.7999C171.176 23.7999 170.274 23.7999 169.35 23.7999C169.02 23.7999 168.888 23.6679 168.888 23.3379C168.888 21.0279 168.888 16.2099 168.888 16.1439Z" fill="white"/>
</g>
</g>
</g>
<g filter="url(#filter4_d_208_768)">
<g filter="url(#filter5_bi_208_768)">
<path d="M148 15C148 23.2843 141.284 30 133 30C124.716 30 118 23.2843 118 15C118 6.71573 124.716 0 133 0C141.284 0 148 6.71573 148 15Z" fill="#F1F1F1" fill-opacity="0.1"/>
<path d="M148 15C148 23.2843 141.284 30 133 30C124.716 30 118 23.2843 118 15C118 6.71573 124.716 0 133 0C141.284 0 148 6.71573 148 15Z" fill="url(#paint2_linear_208_768)" fill-opacity="0.5"/>
</g>
<g clip-path="url(#clip1_208_768)">
<g filter="url(#filter6_d_208_768)">
<path d="M141.433 9.36075C140.773 9.64675 140.091 9.84475 139.365 9.93275C140.113 9.49275 140.685 8.78875 140.949 7.93075C140.245 8.34875 139.475 8.63475 138.661 8.81075C138.001 8.10675 137.055 7.66675 136.021 7.66675C134.019 7.66675 132.413 9.29475 132.413 11.2747C132.413 11.5607 132.435 11.8247 132.501 12.0887C129.509 11.9567 126.869 10.5047 125.087 8.32675C123.811 10.6147 125.241 12.5067 126.187 13.1447C125.615 13.1447 125.043 12.9687 124.559 12.7047C124.559 14.4867 125.813 15.9607 127.441 16.2907C127.089 16.4007 126.297 16.4667 125.813 16.3567C126.275 17.7867 127.617 18.8427 129.179 18.8647C127.947 19.8327 126.143 20.6027 123.833 20.3607C125.439 21.3947 127.331 21.9887 129.377 21.9887C136.021 21.9887 139.629 16.4887 139.629 11.7367C139.629 11.5827 139.629 11.4287 139.607 11.2747C140.355 10.7247 140.971 10.0867 141.433 9.36075Z" fill="white"/>
</g>
</g>
</g>
<g filter="url(#filter7_d_208_768)">
<g filter="url(#filter8_bi_208_768)">
<path d="M110 15C110 23.2843 103.284 30 95 30C86.7157 30 80 23.2843 80 15C80 6.71573 86.7157 0 95 0C103.284 0 110 6.71573 110 15Z" fill="#F1F1F1" fill-opacity="0.1"/>
<path d="M110 15C110 23.2843 103.284 30 95 30C86.7157 30 80 23.2843 80 15C80 6.71573 86.7157 0 95 0C103.284 0 110 6.71573 110 15Z" fill="url(#paint3_linear_208_768)" fill-opacity="0.5"/>
</g>
<g clip-path="url(#clip2_208_768)">
<g filter="url(#filter9_d_208_768)">
<path d="M103.647 19.1637C101.241 18.7677 100.156 16.3027 100.112 16.1981C100.109 16.1913 100.107 16.1846 100.102 16.1778C99.9795 15.9281 99.9502 15.7222 100.018 15.5658C100.149 15.2575 100.653 15.0978 100.986 14.992C101.083 14.9617 101.174 14.9324 101.25 14.9031C101.578 14.7738 101.812 14.6331 101.967 14.4745C102.152 14.2844 102.188 14.1021 102.186 13.984C102.18 13.696 101.96 13.4395 101.607 13.3146C101.489 13.2662 101.353 13.2403 101.216 13.2403C101.123 13.2403 100.983 13.2527 100.851 13.3146C100.57 13.4462 100.318 13.5182 100.101 13.5283C99.9862 13.5227 99.9052 13.498 99.8524 13.4743C99.8591 13.3618 99.8659 13.2459 99.8737 13.1267L99.8771 13.0749C99.9547 11.8565 100.05 10.3411 99.6476 9.44102C99.372 8.82449 99.0018 8.29459 98.5462 7.86482C98.1648 7.50481 97.7215 7.21229 97.2287 6.99628C96.3726 6.61826 95.5738 6.56201 95.1733 6.56201H95.1721C95.1564 6.56201 95.1418 6.56201 95.1283 6.56201C95.0169 6.56314 94.8357 6.56539 94.8189 6.56539C94.4195 6.56539 93.6196 6.62164 92.7612 6.99966C92.2695 7.21567 91.8285 7.50706 91.4482 7.86707C90.9948 8.29684 90.6258 8.82562 90.3513 9.4399C89.9485 10.3388 90.0441 11.8543 90.1207 13.0716V13.0738C90.1285 13.2043 90.1375 13.3405 90.1454 13.4732C90.0869 13.4991 89.9913 13.5283 89.8506 13.5283C89.6234 13.5283 89.3534 13.4563 89.0485 13.3134C88.9585 13.2718 88.8561 13.2504 88.7436 13.2504C88.5625 13.2504 88.3701 13.3033 88.2047 13.4012C87.9954 13.5238 87.8604 13.696 87.8233 13.8884C87.7997 14.0144 87.8008 14.2652 88.0798 14.5195C88.2339 14.659 88.4589 14.7884 88.7503 14.9031C88.8268 14.9335 88.918 14.9617 89.0136 14.992C89.3466 15.0978 89.8518 15.2575 89.9834 15.5658C90.0498 15.7222 90.0205 15.9281 89.8979 16.1778C89.8945 16.1846 89.8911 16.1913 89.8889 16.1981C89.8574 16.2701 89.5705 16.917 88.9821 17.5999C88.648 17.988 88.2801 18.3132 87.8885 18.5652C87.4104 18.8735 86.894 19.0737 86.3528 19.1626C86.1402 19.1975 85.9883 19.3865 86.0007 19.6014C86.0041 19.6632 86.0187 19.7251 86.0446 19.7847V19.7859C86.1312 19.9873 86.3303 20.1571 86.6544 20.3068C87.0504 20.4902 87.6422 20.6443 88.4151 20.7647C88.4544 20.8389 88.4949 21.0246 88.5231 21.1517C88.5523 21.2867 88.5827 21.4262 88.6266 21.5736C88.6738 21.7333 88.7953 21.9246 89.1092 21.9246C89.2285 21.9246 89.3646 21.8976 89.5232 21.8672C89.755 21.8222 90.0723 21.7603 90.4672 21.7603C90.6866 21.7603 90.9138 21.7795 91.1422 21.8177C91.5832 21.8908 91.9635 22.1586 92.4034 22.4691C93.0469 22.9236 93.7759 23.4378 94.8898 23.4378C94.9201 23.4378 94.9505 23.4367 94.9809 23.4344C95.0169 23.4367 95.063 23.4378 95.1103 23.4378C96.2241 23.4378 96.9531 22.9236 97.5966 22.4702L97.5978 22.4691C98.0377 22.1597 98.4179 21.892 98.8589 21.8188C99.0873 21.7806 99.3146 21.7615 99.534 21.7615C99.912 21.7615 100.211 21.8098 100.478 21.8616C100.652 21.8953 100.787 21.9122 100.892 21.9122H100.902H100.912C101.142 21.9122 101.31 21.7862 101.375 21.5668C101.417 21.4217 101.448 21.2867 101.478 21.1483C101.504 21.0291 101.547 20.8378 101.585 20.7635C102.358 20.642 102.95 20.489 103.346 20.3056C103.669 20.156 103.868 19.9861 103.954 19.7859C103.98 19.7262 103.996 19.6644 103.999 19.6002C104.012 19.3876 103.86 19.1975 103.647 19.1637Z" fill="white"/>
</g>
</g>
</g>
<g filter="url(#filter10_d_208_768)">
<g filter="url(#filter11_bi_208_768)">
<path d="M72 15C72 23.2843 65.2843 30 57 30C48.7157 30 42 23.2843 42 15C42 6.71573 48.7157 0 57 0C65.2843 0 72 6.71573 72 15Z" fill="#F1F1F1" fill-opacity="0.1"/>
<path d="M72 15C72 23.2843 65.2843 30 57 30C48.7157 30 42 23.2843 42 15C42 6.71573 48.7157 0 57 0C65.2843 0 72 6.71573 72 15Z" fill="url(#paint4_linear_208_768)" fill-opacity="0.5"/>
</g>
<g filter="url(#filter12_d_208_768)">
<path d="M61.6509 9.96069C61.4367 9.96069 61.2625 10.135 61.2625 10.3491C61.2625 10.5633 61.4367 10.7376 61.6509 10.7376C61.8651 10.7376 62.0393 10.5633 62.0393 10.3491C62.0393 10.1349 61.8651 9.96069 61.6509 9.96069Z" fill="white"/>
<path d="M57 11.5564C55.1012 11.5564 53.5564 13.1012 53.5564 15C53.5564 16.8988 55.1012 18.4437 57 18.4437C58.8989 18.4437 60.4437 16.8989 60.4437 15.0001C60.4437 13.1012 58.8989 11.5564 57 11.5564Z" fill="white"/>
<path d="M60.6138 7H53.3862C50.9676 7 49 8.96763 49 11.3862V18.6138C49 21.0324 50.9676 23 53.3862 23H60.6138C63.0324 23 65 21.0324 65 18.6138V11.3862C65 8.96763 63.0324 7 60.6138 7ZM57 19.3885C54.5802 19.3885 52.6115 17.4198 52.6115 15C52.6115 12.5802 54.5802 10.6116 57 10.6116C59.4198 10.6116 61.3885 12.5802 61.3885 15C61.3885 17.4198 59.4198 19.3885 57 19.3885ZM61.651 11.6824C60.9158 11.6824 60.3177 11.0842 60.3177 10.3491C60.3177 9.61387 60.9158 9.01572 61.651 9.01572C62.3862 9.01572 62.9843 9.61384 62.9843 10.349C62.9843 11.0842 62.3862 11.6824 61.651 11.6824Z" fill="white"/>
</g>
</g>
<g clip-path="url(#clip3_208_768)" filter="url(#filter13_d_208_768)">
<g filter="url(#filter14_d_208_768)">
<path d="M27.7491 10.7113C27.6546 9.92318 26.9118 9.16739 26.1346 9.06614C21.3956 8.4773 16.6035 8.4773 11.866 9.06614C11.0882 9.16717 10.3454 9.92318 10.2509 10.7113C9.91636 13.6 9.91636 16.4008 10.2509 19.2888C10.3454 20.0769 11.0882 20.8334 11.866 20.934C16.6035 21.5228 21.3958 21.5228 26.1346 20.934C26.9118 20.8336 27.6546 20.0769 27.7491 19.2888C28.0837 16.4011 28.0837 13.6 27.7491 10.7113ZM17.4999 18.0006V12.0004L22 15.0006L17.4999 18.0006Z" fill="white"/>
</g>
</g>
<defs>
<filter id="filter0_d_208_768" x="0" y="0" width="38" height="38" filterUnits="userSpaceOnUse" color-interpolation-filters="sRGB">
<feFlood flood-opacity="0" result="BackgroundImageFix"/>
<feColorMatrix in="SourceAlpha" type="matrix" values="0 0 0 0 0 0 0 0 0 0 0 0 0 0 0 0 0 0 127 0" result="hardAlpha"/>
<feOffset dy="4"/>
<feGaussianBlur stdDeviation="2"/>
<feComposite in2="hardAlpha" operator="out"/>
<feColorMatrix type="matrix" values="0 0 0 0 0 0 0 0 0 0 0 0 0 0 0 0 0 0 0.1 0"/>
<feBlend mode="normal" in2="BackgroundImageFix" result="effect1_dropShadow_208_768"/>
<feBlend mode="normal" in="SourceGraphic" in2="effect1_dropShadow_208_768" result="shape"/>
</filter>
<filter id="filter1_d_208_768" x="152" y="0" width="38" height="38" filterUnits="userSpaceOnUse" color-interpolation-filters="sRGB">
<feFlood flood-opacity="0" result="BackgroundImageFix"/>
<feColorMatrix in="SourceAlpha" type="matrix" values="0 0 0 0 0 0 0 0 0 0 0 0 0 0 0 0 0 0 127 0" result="hardAlpha"/>
<feOffset dy="4"/>
<feGaussianBlur stdDeviation="2"/>
<feComposite in2="hardAlpha" operator="out"/>
<feColorMatrix type="matrix" values="0 0 0 0 0 0 0 0 0 0 0 0 0 0 0 0 0 0 0.1 0"/>
<feBlend mode="normal" in2="BackgroundImageFix" result="effect1_dropShadow_208_768"/>
<feBlend mode="normal" in="SourceGraphic" in2="effect1_dropShadow_208_768" result="shape"/>
</filter>
<filter id="filter2_bi_208_768" x="152" y="-4" width="38" height="38" filterUnits="userSpaceOnUse" color-interpolation-filters="sRGB">
<feFlood flood-opacity="0" result="BackgroundImageFix"/>
<feGaussianBlur in="BackgroundImage" stdDeviation="2"/>
<feComposite in2="SourceAlpha" operator="in" result="effect1_backgroundBlur_208_768"/>
<feBlend mode="normal" in="SourceGraphic" in2="effect1_backgroundBlur_208_768" result="shape"/>
<feColorMatrix in="SourceAlpha" type="matrix" values="0 0 0 0 0 0 0 0 0 0 0 0 0 0 0 0 0 0 127 0" result="hardAlpha"/>
<feOffset dy="0.5"/>
<feGaussianBlur stdDeviation="1"/>
<feComposite in2="hardAlpha" operator="arithmetic" k2="-1" k3="1"/>
<feColorMatrix type="matrix" values="0 0 0 0 1 0 0 0 0 1 0 0 0 0 1 0 0 0 0.4 0"/>
<feBlend mode="normal" in2="shape" result="effect2_innerShadow_208_768"/>
</filter>
<filter id="filter3_d_208_768" x="162.248" y="6.22192" width="17.4819" height="25.5779" filterUnits="userSpaceOnUse" color-interpolation-filters="sRGB">
<feFlood flood-opacity="0" result="BackgroundImageFix"/>
<feColorMatrix in="SourceAlpha" type="matrix" values="0 0 0 0 0 0 0 0 0 0 0 0 0 0 0 0 0 0 127 0" result="hardAlpha"/>
<feOffset dy="4"/>
<feGaussianBlur stdDeviation="2"/>
<feComposite in2="hardAlpha" operator="out"/>
<feColorMatrix type="matrix" values="0 0 0 0 0 0 0 0 0 0 0 0 0 0 0 0 0 0 0.1 0"/>
<feBlend mode="normal" in2="BackgroundImageFix" result="effect1_dropShadow_208_768"/>
<feBlend mode="normal" in="SourceGraphic" in2="effect1_dropShadow_208_768" result="shape"/>
</filter>
<filter id="filter4_d_208_768" x="114" y="0" width="38" height="38" filterUnits="userSpaceOnUse" color-interpolation-filters="sRGB">
<feFlood flood-opacity="0" result="BackgroundImageFix"/>
<feColorMatrix in="SourceAlpha" type="matrix" values="0 0 0 0 0 0 0 0 0 0 0 0 0 0 0 0 0 0 127 0" result="hardAlpha"/>
<feOffset dy="4"/>
<feGaussianBlur stdDeviation="2"/>
<feComposite in2="hardAlpha" operator="out"/>
<feColorMatrix type="matrix" values="0 0 0 0 0 0 0 0 0 0 0 0 0 0 0 0 0 0 0.1 0"/>
<feBlend mode="normal" in2="BackgroundImageFix" result="effect1_dropShadow_208_768"/>
<feBlend mode="normal" in="SourceGraphic" in2="effect1_dropShadow_208_768" result="shape"/>
</filter>
<filter id="filter5_bi_208_768" x="114" y="-4" width="38" height="38" filterUnits="userSpaceOnUse" color-interpolation-filters="sRGB">
<feFlood flood-opacity="0" result="BackgroundImageFix"/>
<feGaussianBlur in="BackgroundImage" stdDeviation="2"/>
<feComposite in2="SourceAlpha" operator="in" result="effect1_backgroundBlur_208_768"/>
<feBlend mode="normal" in="SourceGraphic" in2="effect1_backgroundBlur_208_768" result="shape"/>
<feColorMatrix in="SourceAlpha" type="matrix" values="0 0 0 0 0 0 0 0 0 0 0 0 0 0 0 0 0 0 127 0" result="hardAlpha"/>
<feOffset dy="0.5"/>
<feGaussianBlur stdDeviation="1"/>
<feComposite in2="hardAlpha" operator="arithmetic" k2="-1" k3="1"/>
<feColorMatrix type="matrix" values="0 0 0 0 1 0 0 0 0 1 0 0 0 0 1 0 0 0 0.4 0"/>
<feBlend mode="normal" in2="shape" result="effect2_innerShadow_208_768"/>
</filter>
<filter id="filter6_d_208_768" x="119.833" y="7.66675" width="25.6001" height="22.322" filterUnits="userSpaceOnUse" color-interpolation-filters="sRGB">
<feFlood flood-opacity="0" result="BackgroundImageFix"/>
<feColorMatrix in="SourceAlpha" type="matrix" values="0 0 0 0 0 0 0 0 0 0 0 0 0 0 0 0 0 0 127 0" result="hardAlpha"/>
<feOffset dy="4"/>
<feGaussianBlur stdDeviation="2"/>
<feComposite in2="hardAlpha" operator="out"/>
<feColorMatrix type="matrix" values="0 0 0 0 0 0 0 0 0 0 0 0 0 0 0 0 0 0 0.1 0"/>
<feBlend mode="normal" in2="BackgroundImageFix" result="effect1_dropShadow_208_768"/>
<feBlend mode="normal" in="SourceGraphic" in2="effect1_dropShadow_208_768" result="shape"/>
</filter>
<filter id="filter7_d_208_768" x="76" y="0" width="38" height="38" filterUnits="userSpaceOnUse" color-interpolation-filters="sRGB">
<feFlood flood-opacity="0" result="BackgroundImageFix"/>
<feColorMatrix in="SourceAlpha" type="matrix" values="0 0 0 0 0 0 0 0 0 0 0 0 0 0 0 0 0 0 127 0" result="hardAlpha"/>
<feOffset dy="4"/>
<feGaussianBlur stdDeviation="2"/>
<feComposite in2="hardAlpha" operator="out"/>
<feColorMatrix type="matrix" values="0 0 0 0 0 0 0 0 0 0 0 0 0 0 0 0 0 0 0.1 0"/>
<feBlend mode="normal" in2="BackgroundImageFix" result="effect1_dropShadow_208_768"/>
<feBlend mode="normal" in="SourceGraphic" in2="effect1_dropShadow_208_768" result="shape"/>
</filter>
<filter id="filter8_bi_208_768" x="76" y="-4" width="38" height="38" filterUnits="userSpaceOnUse" color-interpolation-filters="sRGB">
<feFlood flood-opacity="0" result="BackgroundImageFix"/>
<feGaussianBlur in="BackgroundImage" stdDeviation="2"/>
<feComposite in2="SourceAlpha" operator="in" result="effect1_backgroundBlur_208_768"/>
<feBlend mode="normal" in="SourceGraphic" in2="effect1_backgroundBlur_208_768" result="shape"/>
<feColorMatrix in="SourceAlpha" type="matrix" values="0 0 0 0 0 0 0 0 0 0 0 0 0 0 0 0 0 0 127 0" result="hardAlpha"/>
<feOffset dy="0.5"/>
<feGaussianBlur stdDeviation="1"/>
<feComposite in2="hardAlpha" operator="arithmetic" k2="-1" k3="1"/>
<feColorMatrix type="matrix" values="0 0 0 0 1 0 0 0 0 1 0 0 0 0 1 0 0 0 0.4 0"/>
<feBlend mode="normal" in2="shape" result="effect2_innerShadow_208_768"/>
</filter>
<filter id="filter9_d_208_768" x="82" y="6.56201" width="26" height="24.8757" filterUnits="userSpaceOnUse" color-interpolation-filters="sRGB">
<feFlood flood-opacity="0" result="BackgroundImageFix"/>
<feColorMatrix in="SourceAlpha" type="matrix" values="0 0 0 0 0 0 0 0 0 0 0 0 0 0 0 0 0 0 127 0" result="hardAlpha"/>
<feOffset dy="4"/>
<feGaussianBlur stdDeviation="2"/>
<feComposite in2="hardAlpha" operator="out"/>
<feColorMatrix type="matrix" values="0 0 0 0 0 0 0 0 0 0 0 0 0 0 0 0 0 0 0.01 0"/>
<feBlend mode="normal" in2="BackgroundImageFix" result="effect1_dropShadow_208_768"/>
<feBlend mode="normal" in="SourceGraphic" in2="effect1_dropShadow_208_768" result="shape"/>
</filter>
<filter id="filter10_d_208_768" x="38" y="0" width="38" height="38" filterUnits="userSpaceOnUse" color-interpolation-filters="sRGB">
<feFlood flood-opacity="0" result="BackgroundImageFix"/>
<feColorMatrix in="SourceAlpha" type="matrix" values="0 0 0 0 0 0 0 0 0 0 0 0 0 0 0 0 0 0 127 0" result="hardAlpha"/>
<feOffset dy="4"/>
<feGaussianBlur stdDeviation="2"/>
<feComposite in2="hardAlpha" operator="out"/>
<feColorMatrix type="matrix" values="0 0 0 0 0 0 0 0 0 0 0 0 0 0 0 0 0 0 0.1 0"/>
<feBlend mode="normal" in2="BackgroundImageFix" result="effect1_dropShadow_208_768"/>
<feBlend mode="normal" in="SourceGraphic" in2="effect1_dropShadow_208_768" result="shape"/>
</filter>
<filter id="filter11_bi_208_768" x="38" y="-4" width="38" height="38" filterUnits="userSpaceOnUse" color-interpolation-filters="sRGB">
<feFlood flood-opacity="0" result="BackgroundImageFix"/>
<feGaussianBlur in="BackgroundImage" stdDeviation="2"/>
<feComposite in2="SourceAlpha" operator="in" result="effect1_backgroundBlur_208_768"/>
<feBlend mode="normal" in="SourceGraphic" in2="effect1_backgroundBlur_208_768" result="shape"/>
<feColorMatrix in="SourceAlpha" type="matrix" values="0 0 0 0 0 0 0 0 0 0 0 0 0 0 0 0 0 0 127 0" result="hardAlpha"/>
<feOffset dy="0.5"/>
<feGaussianBlur stdDeviation="1"/>
<feComposite in2="hardAlpha" operator="arithmetic" k2="-1" k3="1"/>
<feColorMatrix type="matrix" values="0 0 0 0 1 0 0 0 0 1 0 0 0 0 1 0 0 0 0.4 0"/>
<feBlend mode="normal" in2="shape" result="effect2_innerShadow_208_768"/>
</filter>
<filter id="filter12_d_208_768" x="45" y="7" width="24" height="24" filterUnits="userSpaceOnUse" color-interpolation-filters="sRGB">
<feFlood flood-opacity="0" result="BackgroundImageFix"/>
<feColorMatrix in="SourceAlpha" type="matrix" values="0 0 0 0 0 0 0 0 0 0 0 0 0 0 0 0 0 0 127 0" result="hardAlpha"/>
<feOffset dy="4"/>
<feGaussianBlur stdDeviation="2"/>
<feComposite in2="hardAlpha" operator="out"/>
<feColorMatrix type="matrix" values="0 0 0 0 0 0 0 0 0 0 0 0 0 0 0 0 0 0 0.1 0"/>
<feBlend mode="normal" in2="BackgroundImageFix" result="effect1_dropShadow_208_768"/>
<feBlend mode="normal" in="SourceGraphic" in2="effect1_dropShadow_208_768" result="shape"/>
</filter>
<filter id="filter13_d_208_768" x="6" y="6" width="26" height="26" filterUnits="userSpaceOnUse" color-interpolation-filters="sRGB">
<feFlood flood-opacity="0" result="BackgroundImageFix"/>
<feColorMatrix in="SourceAlpha" type="matrix" values="0 0 0 0 0 0 0 0 0 0 0 0 0 0 0 0 0 0 127 0" result="hardAlpha"/>
<feOffset dy="4"/>
<feGaussianBlur stdDeviation="2"/>
<feComposite in2="hardAlpha" operator="out"/>
<feColorMatrix type="matrix" values="0 0 0 0 0 0 0 0 0 0 0 0 0 0 0 0 0 0 0.1 0"/>
<feBlend mode="normal" in2="BackgroundImageFix" result="effect1_dropShadow_208_768"/>
<feBlend mode="normal" in="SourceGraphic" in2="effect1_dropShadow_208_768" result="shape"/>
</filter>
<filter id="filter14_d_208_768" x="6" y="8.62451" width="26" height="20.751" filterUnits="userSpaceOnUse" color-interpolation-filters="sRGB">
<feFlood flood-opacity="0" result="BackgroundImageFix"/>
<feColorMatrix in="SourceAlpha" type="matrix" values="0 0 0 0 0 0 0 0 0 0 0 0 0 0 0 0 0 0 127 0" result="hardAlpha"/>
<feOffset dy="4"/>
<feGaussianBlur stdDeviation="2"/>
<feComposite in2="hardAlpha" operator="out"/>
<feColorMatrix type="matrix" values="0 0 0 0 0 0 0 0 0 0 0 0 0 0 0 0 0 0 0.07 0"/>
<feBlend mode="normal" in2="BackgroundImageFix" result="effect1_dropShadow_208_768"/>
<feBlend mode="normal" in="SourceGraphic" in2="effect1_dropShadow_208_768" result="shape"/>
</filter>
<linearGradient id="paint0_linear_208_768" x1="19" y1="0" x2="19" y2="30" gradientUnits="userSpaceOnUse">
<stop stop-color="white" stop-opacity="0.7"/>
<stop offset="1" stop-color="white" stop-opacity="0.1"/>
</linearGradient>
<linearGradient id="paint1_linear_208_768" x1="171" y1="0" x2="171" y2="30" gradientUnits="userSpaceOnUse">
<stop stop-color="white" stop-opacity="0.7"/>
<stop offset="1" stop-color="white" stop-opacity="0.1"/>
</linearGradient>
<linearGradient id="paint2_linear_208_768" x1="133" y1="0" x2="133" y2="30" gradientUnits="userSpaceOnUse">
<stop stop-color="white" stop-opacity="0.7"/>
<stop offset="1" stop-color="white" stop-opacity="0.1"/>
</linearGradient>
<linearGradient id="paint3_linear_208_768" x1="95" y1="0" x2="95" y2="30" gradientUnits="userSpaceOnUse">
<stop stop-color="white" stop-opacity="0.7"/>
<stop offset="1" stop-color="white" stop-opacity="0.1"/>
</linearGradient>
<linearGradient id="paint4_linear_208_768" x1="57" y1="0" x2="57" y2="30" gradientUnits="userSpaceOnUse">
<stop stop-color="white" stop-opacity="0.7"/>
<stop offset="1" stop-color="white" stop-opacity="0.1"/>
</linearGradient>
<clipPath id="clip0_208_768">
<rect width="22" height="22" fill="white" transform="translate(160 4)"/>
</clipPath>
<clipPath id="clip1_208_768">
<rect width="22" height="22" fill="white" transform="translate(122 4)"/>
</clipPath>
<clipPath id="clip2_208_768">
<rect width="18" height="18" fill="white" transform="translate(86 6)"/>
</clipPath>
<clipPath id="clip3_208_768">
<rect width="18" height="18" fill="white" transform="translate(10 6)"/>
</clipPath>
</defs>
</svg>
