<?xml version="1.0" encoding="utf-8"?>
<!-- Generator: Adobe Illustrator 18.0.0, SVG Export Plug-In . SVG Version: 6.00 Build 0)  -->
<!DOCTYPE svg PUBLIC "-//W3C//DTD SVG 1.1//EN" "http://www.w3.org/Graphics/SVG/1.1/DTD/svg11.dtd">
<svg version="1.1" id="Layer_1" xmlns="http://www.w3.org/2000/svg" xmlns:xlink="http://www.w3.org/1999/xlink" x="0px" y="0px"
	 viewBox="0 0 38 38" enable-background="new 0 0 38 38" xml:space="preserve">
<g id="Youtube">
	<g>
		<path shape-rendering="crispEdges" fill="#F1F1F1" fill-opacity="0.1" d="M34,15c0,8.3-6.7,15-15,15S4,23.3,4,15S10.7,0,19,0
			S34,6.7,34,15z"/>
		
			<linearGradient id="SVGID_1_" gradientUnits="userSpaceOnUse" x1="-365.2982" y1="147.6299" x2="-365.2982" y2="152.4376" gradientTransform="matrix(6.24 0 0 6.24 2298.4609 -921.2104)">
			<stop  offset="0" style="stop-color:#FFFFFF;stop-opacity:0.7"/>
			<stop  offset="1" style="stop-color:#FFFFFF;stop-opacity:0.1"/>
		</linearGradient>
		<path shape-rendering="crispEdges" fill="url(#SVGID_1_)" fill-opacity="0.5" d="M34,15c0,8.3-6.7,15-15,15S4,23.3,4,15
			S10.7,0,19,0S34,6.7,34,15z"/>
	</g>
	<path fill="#FFFFFF" d="M27.8,10.7c-0.1-0.8-0.8-1.6-1.6-1.6c-4.7-0.6-9.5-0.6-14.3,0c-0.8,0.1-1.5,0.8-1.6,1.6
		c-0.4,2.9-0.4,5.7,0,8.6c0.1,0.8,0.8,1.6,1.6,1.6c4.7,0.6,9.5,0.6,14.3,0c0.8-0.1,1.5-0.8,1.6-1.6C28.1,16.4,28.1,13.6,27.8,10.7z
		 M17.5,18v-6l4.5,3L17.5,18z"/>
</g>
</svg>
