<svg width="97" height="78" viewBox="0 0 97 78" fill="none" xmlns="http://www.w3.org/2000/svg">
<circle opacity="0.2" cx="35" cy="35" r="35" fill="#7EC287"/>
<g clip-path="url(#clip0_250_1202)">
<path d="M96.9073 70.048C96.9073 70.048 98.2537 68.7016 96.9073 67.9537C96.9073 67.9537 96.9073 67.8041 96.7577 67.8041H93.6163C93.4667 67.8041 93.4667 67.6545 93.4667 67.6545C94.5138 66.7569 95.1122 65.5602 95.561 63.765C95.8602 62.5683 95.7106 61.5211 95.561 60.3244C95.4114 58.9781 95.2618 57.6317 95.7106 55.687C96.0098 54.3407 95.8602 53.2935 94.9626 52.5455C94.0651 51.7976 92.5691 51.648 90.4748 52.3959C89.8764 52.6951 89.2781 52.9943 88.6797 53.4431C87.6325 53.1439 86.2862 52.9943 85.0894 53.1439C82.6959 53.4431 80.6016 54.7894 79.1057 56.8837H78.9561C77.4602 55.9862 75.8146 55.2382 73.8699 54.6398C73.2716 54.4902 72.6732 54.7894 72.5236 55.3878C72.374 55.9862 72.6732 56.5846 73.2716 56.7342C75.0667 57.1829 76.7122 57.9309 78.0585 58.8285C78.0585 58.9781 78.0586 58.9781 77.909 59.1276C77.6098 60.1748 77.4602 61.3715 77.4602 62.4187C77.6098 64.513 78.5073 66.3081 79.8537 67.6545C79.8537 67.6545 79.8537 67.8041 79.7041 67.8041H69.3821C69.3821 67.8041 69.2325 67.8041 69.2325 67.6545V64.513C69.2325 64.513 69.2325 64.3634 69.3821 64.3634H72.2244C72.8228 64.3634 73.2716 63.9146 73.2716 63.3163C73.2716 62.7179 72.8228 62.2691 72.2244 62.2691H59.6585C59.6585 62.2691 59.509 62.2691 59.509 62.1195V58.0805C59.6585 58.0805 59.8081 57.9309 59.9577 57.9309C62.052 56.7341 65.1935 55.9862 68.335 55.9862C68.9333 55.9862 69.3821 55.5374 69.3821 54.939C69.3821 54.3407 68.9333 53.8919 68.335 53.8919C67.1382 53.8919 65.9415 53.8919 64.7447 54.0415C64.7447 54.0415 64.5951 54.0415 64.5951 53.8919V48.2073C64.5951 48.2073 64.5951 48.2073 64.5951 48.0577C65.4927 47.3098 66.3903 46.4122 67.1382 45.2154C68.1854 43.4203 68.1854 42.3732 68.335 40.578C68.335 40.2789 68.335 39.9797 68.335 39.6805V37.1374C68.335 33.8463 65.6423 31.3032 62.5008 31.3032C62.3512 31.3032 62.3512 31.1536 62.3512 31.1536C63.8472 29.5081 64.8943 27.4138 64.8943 25.6187V23.3748C64.8943 20.5325 63.9968 18.139 62.3512 16.4935C60.8553 14.9975 58.761 14.1 56.5171 14.1C54.2732 14.1 52.1789 14.9975 50.6829 16.4935C49.0374 18.139 47.9902 20.6821 47.9902 23.3748V25.6187C47.9902 27.5634 49.0374 29.6577 50.6829 31.3032H50.2342C47.3919 31.3032 46.0455 33.0984 45.148 34.2951L38.865 44.4675C38.865 44.6171 38.7155 44.6171 38.7155 44.4675C37.9675 43.1211 36.1724 40.578 34.2276 40.4284C33.6293 40.4284 32.8813 40.4284 32.4325 40.8772C31.9837 41.4756 31.9837 42.2236 32.1333 42.6724L33.6293 51.4984C33.7789 52.2463 33.9285 52.8447 34.3772 53.2935C34.9756 53.7423 35.574 53.5927 36.322 53.5927C36.4715 53.5927 36.6211 53.5927 36.7707 53.5927C39.7626 53.2935 42.1561 54.1911 42.9041 54.6398C43.8016 55.0886 44.5496 55.5374 45.2976 55.9862C45.2976 55.9862 45.2976 55.9862 45.2976 56.1358V61.8203C45.2976 61.8203 45.2976 61.8203 45.148 61.9699H36.7707C35.4244 61.9699 35.4244 61.9699 35.2748 61.5211C35.1252 61.0724 33.0309 57.0333 30.4878 56.8837C29.8894 56.8837 29.1415 56.8837 28.6927 57.3325C28.2439 57.9309 28.2439 58.5293 28.3935 59.1276L29.8894 67.6545C29.8894 67.6545 29.8894 67.8041 29.7398 67.8041H26.748C26.748 67.8041 26.748 67.9537 26.5984 67.9537C25.252 68.8512 26.5984 69.8984 26.5984 69.8984C26.5984 69.8984 26.5984 70.048 26.748 70.048H31.2358H96.9073ZM36.4715 67.8041H31.9837L30.4878 58.9781C31.3854 59.2772 32.5821 60.9228 33.1805 62.2691C33.9285 63.765 35.1252 63.9146 36.322 63.9146V67.8041H36.4715ZM58.9106 56.1358C58.761 55.9862 58.6114 55.8366 58.4618 55.687C58.3122 55.3878 58.013 55.2382 57.8634 54.7894C57.265 54.0415 56.5171 53.2935 55.6195 52.5455L61.6033 50.152C61.9025 50.0024 62.2016 49.8528 62.6504 49.7033V54.6398C61.1545 54.939 59.9577 55.3878 58.9106 56.1358ZM53.0764 51.0496C52.7772 51.1992 52.3285 51.1992 52.0293 51.0496C51.7301 50.9 51.4309 50.6008 51.2813 50.3016C51.1317 50.0024 51.1317 49.5537 51.2813 49.2545C51.4309 48.9553 51.7301 48.6561 52.0293 48.5065L57.5642 46.113L58.9106 48.6561L53.0764 51.0496ZM56.6667 16.1943C59.3594 16.1943 62.3512 18.139 62.8 22.0284C60.4065 21.5797 55.4699 20.5325 55.0211 20.3829C54.722 20.2333 54.4228 20.2333 54.1236 20.2333C53.0764 20.2333 52.3285 20.6821 51.7301 21.1309C51.2813 21.4301 50.9821 21.5797 50.5333 21.8788C50.9821 18.139 53.974 16.1943 56.6667 16.1943ZM50.3837 25.6187V24.2723C51.5805 23.9732 52.3285 23.5244 52.9268 23.0756C53.6748 22.6268 53.8244 22.4772 54.4228 22.6268C54.8716 22.7764 60.5561 23.8236 62.9496 24.2723V25.6187C62.9496 27.5634 61.1545 30.2561 58.6114 31.4528C58.6114 31.4528 58.6114 31.4528 58.4618 31.4528C58.3122 31.4528 58.1626 31.6024 58.013 31.6024C57.4146 31.752 56.9659 31.9016 56.5171 31.9016C56.0683 31.9016 55.6195 31.752 55.0211 31.6024C54.8716 31.6024 54.722 31.4528 54.5724 31.4528C54.5724 31.4528 54.5724 31.4528 54.4228 31.4528C52.3285 30.2561 50.3837 27.713 50.3837 25.6187ZM59.2098 33.5471V33.8463C59.2098 35.4919 58.013 36.6886 56.6667 36.6886C55.3203 36.6886 54.1236 35.3423 54.1236 33.8463V33.5471C54.2732 33.5471 54.2732 33.6967 54.4228 33.6967C55.1707 33.9959 55.9187 34.1455 56.6667 34.1455C57.4146 34.1455 58.013 33.9959 58.9106 33.6967C59.0602 33.6967 59.0602 33.6967 59.2098 33.5471ZM47.3919 35.4919C48.2894 33.9959 49.187 33.5471 50.5333 33.5471H51.8797V33.8463C51.8797 36.6886 53.974 38.9325 56.6667 38.9325C59.2098 38.9325 61.4537 36.6886 61.4537 33.8463V33.5471H62.8C64.7447 33.5471 66.3903 35.1927 66.3903 37.1374V39.8301C66.3903 40.1293 66.3903 40.4284 66.3903 40.7276C66.3903 42.5228 66.2407 42.9715 65.4927 44.3179C64.5951 45.8138 63.2488 46.861 61.0049 47.9081L59.6585 45.2154C60.1073 44.9163 60.5561 44.6171 61.0049 44.1683L61.1545 44.0187L62.5008 41.7748C62.8 41.326 62.6504 40.578 62.2016 40.2789C61.7529 39.9797 61.0049 40.1293 60.7057 40.578L59.509 42.6724C59.0602 43.1211 58.9106 43.2707 58.3122 43.4203L51.4309 46.4122C50.8325 46.7114 50.2341 47.0106 49.935 47.6089C48.8878 47.0106 47.8407 46.7114 46.7935 46.4122L49.0374 42.8219C49.3366 42.3732 49.187 41.6252 48.7382 41.326C48.2894 41.0268 47.5415 41.1764 47.2423 41.6252L44.2504 45.9634C43.2033 45.8138 42.1561 45.6642 41.1089 45.6642L47.3919 35.4919ZM40.2114 51.648C39.1642 51.4984 38.1171 51.4984 36.9203 51.648C36.7707 51.648 36.322 51.648 36.1724 51.648C36.1724 51.4984 34.6764 42.8219 34.6764 42.8219C35.574 43.1211 36.9203 44.9163 37.5187 46.4122C37.8179 47.1602 38.2667 47.6089 38.865 47.7585C39.613 47.9081 40.0618 47.7585 40.2114 47.9081C40.5106 47.9081 40.8098 47.9081 41.1089 47.9081L40.2114 51.648ZM54.2732 67.8041H38.7155V64.0642H45.5968C49.7854 64.0642 51.2813 63.765 52.1789 63.0171C52.4781 62.7179 52.7772 62.2691 52.6277 61.5211C52.4781 59.4268 49.6358 55.2382 44.1008 52.6951C43.652 52.5455 43.0537 52.2463 42.3057 51.9472L43.3528 48.0577C45.2976 48.3569 47.3919 48.8057 48.8878 49.8528C48.8878 50.3016 49.0374 50.7504 49.187 51.1992C49.4862 52.0967 50.2342 52.6951 51.1317 53.1439C51.5805 53.2935 52.0293 53.4431 52.4781 53.4431C52.6276 53.4431 52.9268 53.4431 53.0764 53.4431C54.1236 54.3407 55.3203 55.3878 55.9187 56.2854C56.2179 56.5846 56.3675 56.8837 56.5171 57.0333C56.8163 57.3325 56.9659 57.6317 57.2651 57.9309V62.4187C55.3203 62.5683 53.6748 64.2138 53.6748 66.3081C53.8244 66.7569 53.974 67.3553 54.2732 67.8041ZM47.8407 61.8203V57.7813C49.4862 59.4268 50.2342 60.9228 50.3837 61.5211C50.0846 61.6707 49.3366 61.8203 47.8407 61.8203ZM67.1382 67.8041H57.5642C56.6667 67.6545 56.0683 67.0561 56.0683 66.1585C56.0683 65.261 56.8163 64.513 57.7138 64.513H67.1382V67.8041ZM83.8927 67.8041C81.6488 66.9065 80.0033 64.8122 79.7041 62.2691C79.5545 61.5211 79.7041 60.7732 80.0033 59.8756C80.7512 57.7813 82.5464 55.687 85.239 55.3878C85.987 55.2382 86.8846 55.3878 87.6325 55.5374C86.8846 57.4821 87.0342 59.8756 88.2309 62.4187C89.1285 64.6626 85.0894 67.0561 83.8927 67.8041ZM87.9317 67.6545C90.9236 64.9618 90.774 62.7179 90.1756 61.3716C89.2781 59.4268 89.1285 57.6317 89.7268 56.2854C90.026 55.3878 90.6244 54.939 91.522 54.6398C92.4195 54.3407 93.0179 54.1911 93.3171 54.1911C93.6163 54.1911 93.7659 54.1911 93.7659 54.3407C93.7659 54.3407 93.9155 54.6398 93.7659 55.3878C93.3171 57.6317 93.4667 59.2772 93.6163 60.7732C93.7659 61.8203 93.7659 62.7179 93.6163 63.4659C93.0179 66.009 91.3724 67.2057 87.9317 67.6545Z" fill="#1A2E35"/>
<path d="M47.3918 35.4916C48.2894 33.9957 49.1869 33.5469 50.5333 33.5469H51.8796V33.8461C51.8796 36.6883 53.9739 38.9322 56.6666 38.9322C59.2097 38.9322 61.4536 36.6883 61.4536 33.8461V33.5469H62.8C64.7447 33.5469 66.3902 35.1924 66.3902 37.1371V39.8298C66.3902 40.129 66.3902 40.4282 66.3902 40.7274C66.3902 42.5225 66.2406 42.9713 65.4926 44.3176C64.5951 45.8135 63.2487 46.8607 61.0048 47.9079L59.6585 45.2152C60.1073 44.916 60.5561 44.6168 61.0048 44.168L61.1544 44.0184L62.5008 41.7745C62.8 41.3257 62.6504 40.5778 62.2016 40.2786C61.7528 39.9794 61.0048 40.129 60.7056 40.5778L59.5089 42.6721C59.0601 43.1209 58.9105 43.2705 58.3121 43.42L51.4308 46.4119C50.8325 46.7111 50.2341 47.0103 49.9349 47.6087C48.8878 47.0103 47.8406 46.7111 46.7934 46.4119L49.0373 42.8217C49.3365 42.3729 49.1869 41.6249 48.7382 41.3257C48.2894 41.0266 47.5414 41.1761 47.2422 41.6249L44.2504 45.9631C43.2032 45.8135 42.156 45.664 41.1089 45.664L47.3918 35.4916Z" fill="url(#paint0_linear_250_1202)"/>
<path d="M62.5009 54.6398C61.1546 54.939 59.9578 55.5374 58.9107 56.1358C58.7611 55.9862 58.6115 55.8366 58.4619 55.687C58.3123 55.3878 58.0131 55.2382 57.8635 54.7894C57.2652 54.0415 56.5172 53.2935 55.6196 52.5455L61.6034 50.152C61.9026 50.0024 62.2017 49.8528 62.6505 49.7032L62.5009 54.6398Z" fill="url(#paint1_linear_250_1202)"/>
</g>
<path d="M20.3238 26.4926H24.6438C25.0518 26.4926 25.2318 26.3126 25.2318 25.9886V25.9166C25.2318 25.6046 25.0518 25.4366 24.6438 25.4366H20.7078C20.7078 25.3166 20.7318 25.1966 20.7558 25.0886C20.9598 24.2606 21.7998 23.8286 22.8198 23.3726C23.9958 22.8326 25.0998 22.2806 25.0998 20.8886C25.0998 19.4486 24.0798 18.5726 22.3878 18.5726C21.4758 18.5726 20.7678 18.8606 20.2998 19.2446C19.8318 19.6286 19.5918 20.1086 19.5918 20.5166C19.5918 21.1646 20.4078 21.1526 20.4078 21.1166C20.6238 20.3246 21.1638 19.6286 22.3038 19.6286C23.2998 19.6286 23.8878 20.1086 23.8878 20.9126C23.8878 21.7526 22.9758 22.1366 21.9558 22.6406C20.7918 23.2166 19.5558 23.9246 19.5558 25.5206V25.8206C19.5558 26.3126 19.7838 26.4926 20.3238 26.4926ZM27.1057 26.4926H31.4257C31.8337 26.4926 32.0137 26.3126 32.0137 25.9886V25.9166C32.0137 25.6046 31.8337 25.4366 31.4257 25.4366H27.4897C27.4897 25.3166 27.5137 25.1966 27.5377 25.0886C27.7417 24.2606 28.5817 23.8286 29.6017 23.3726C30.7777 22.8326 31.8817 22.2806 31.8817 20.8886C31.8817 19.4486 30.8617 18.5726 29.1697 18.5726C28.2577 18.5726 27.5497 18.8606 27.0817 19.2446C26.6137 19.6286 26.3737 20.1086 26.3737 20.5166C26.3737 21.1646 27.1897 21.1526 27.1897 21.1166C27.4057 20.3246 27.9457 19.6286 29.0857 19.6286C30.0817 19.6286 30.6697 20.1086 30.6697 20.9126C30.6697 21.7526 29.7577 22.1366 28.7377 22.6406C27.5737 23.2166 26.3377 23.9246 26.3377 25.5206V25.8206C26.3377 26.3126 26.5657 26.4926 27.1057 26.4926Z" fill="#308BC4"/>
<g opacity="0.5">
<path d="M36.0338 15.0506C33.5792 13.6743 31.0669 13.6509 28.759 14.9765L30.4126 16.6298C31.3605 16.2432 32.3751 16.1669 33.4348 16.4076C34.7756 16.7127 35.6328 17.2822 36.1326 18.199C36.7355 19.3054 36.9139 20.5144 36.6633 21.7907C36.4041 23.1129 35.6942 24.2941 34.3624 25.6201C34.3487 25.6334 34.3346 25.6471 34.3213 25.6608C34.3055 25.6821 34.2887 25.7027 34.2709 25.7223L26.5322 33.461C26.3977 33.5946 26.2173 33.6719 26.0278 33.6773L26.0075 33.6969L26.0016 33.6913L25.9956 33.6969L25.9753 33.6773C25.7858 33.6719 25.6054 33.5946 25.4709 33.461L17.7322 25.7223C17.7144 25.7027 17.6976 25.6821 17.6818 25.6608L17.6407 25.6201C16.3077 24.2941 15.5994 23.1129 15.3398 21.7907C15.0892 20.5125 15.2658 19.3036 15.8705 18.199C16.3703 17.2822 17.2275 16.7127 18.5683 16.4076C19.6269 16.1669 20.6389 16.2425 21.5856 16.6272L23.2393 14.9736C20.9292 13.6513 18.4187 13.675 15.9656 15.0506C13.3081 16.5409 12.7405 19.5679 13.0952 21.9047C13.3804 23.7817 14.3516 25.5001 16.1519 27.3108C16.9813 28.145 17.8474 28.9688 18.6849 29.7653L18.7553 29.8323C19.1381 30.1967 19.5207 30.5616 19.9031 30.9272L22.7713 33.6939C23.5748 34.4683 24.3786 35.2424 25.1829 36.0163C25.4365 36.2599 25.7187 36.3888 25.9997 36.3888C26.2807 36.3888 26.5629 36.2599 26.8165 36.0163C27.6208 35.2424 28.4246 34.4683 29.2281 33.6939L32.0974 30.9298C32.478 30.5633 32.8607 30.1983 33.2452 29.8349L33.3156 29.7679C34.1532 28.9714 35.0189 28.1476 35.8483 27.3133C37.6489 25.5012 38.6202 23.7828 38.9053 21.9073C39.2589 19.5683 38.6909 16.5409 36.0338 15.0506Z" fill="url(#paint2_linear_250_1202)"/>
</g>
<defs>
<linearGradient id="paint0_linear_250_1202" x1="41.1089" y1="40.2002" x2="66.3928" y2="40.4897" gradientUnits="userSpaceOnUse">
<stop offset="0.239583" stop-color="#7EC287"/>
<stop offset="1" stop-color="#308BC4"/>
</linearGradient>
<linearGradient id="paint1_linear_250_1202" x1="55.6196" y1="52.6834" x2="62.6518" y2="52.7334" gradientUnits="userSpaceOnUse">
<stop offset="0.239583" stop-color="#7EC287"/>
<stop offset="1" stop-color="#308BC4"/>
</linearGradient>
<linearGradient id="paint2_linear_250_1202" x1="13" y1="24.3726" x2="39.0046" y2="24.569" gradientUnits="userSpaceOnUse">
<stop stop-color="#308BC4"/>
<stop offset="1" stop-color="#7EC287"/>
</linearGradient>
<clipPath id="clip0_250_1202">
<rect width="71" height="71" fill="white" transform="translate(26 7)"/>
</clipPath>
</defs>
</svg>
