<svg width="70" height="70" viewBox="0 0 70 70" fill="none" xmlns="http://www.w3.org/2000/svg">
<rect width="70" height="70" rx="12" fill="url(#paint0_linear_208_275)"/>
<g clip-path="url(#clip0_208_275)">
<path d="M61.9282 56.84C61.9282 56.84 62.9712 55.7971 61.9282 55.2176C61.9282 55.2176 61.9282 55.1018 61.8123 55.1018H59.3788C59.2629 55.1018 59.2629 54.9859 59.2629 54.9859C60.0741 54.2906 60.5376 53.3635 60.8853 51.9729C61.117 51.0459 61.0012 50.2347 60.8853 49.3076C60.7694 48.2647 60.6535 47.2218 61.0012 45.7153C61.2329 44.6724 61.117 43.8612 60.4217 43.2818C59.7265 42.7024 58.5676 42.5865 56.9453 43.1659C56.4818 43.3976 56.0182 43.6294 55.5547 43.9771C54.7435 43.7453 53.7006 43.6294 52.7735 43.7453C50.9194 43.9771 49.297 45.02 48.1382 46.6424H48.0223C46.8635 45.9471 45.5888 45.3676 44.0823 44.9041C43.6188 44.7882 43.1553 45.02 43.0394 45.4835C42.9235 45.9471 43.1553 46.4106 43.6188 46.5265C45.0094 46.8741 46.2841 47.4535 47.327 48.1488C47.327 48.2647 47.327 48.2647 47.2112 48.3806C46.9794 49.1918 46.8635 50.1188 46.8635 50.93C46.9794 52.5523 47.6747 53.9429 48.7176 54.9859C48.7176 54.9859 48.7176 55.1018 48.6018 55.1018H40.6059C40.6059 55.1018 40.49 55.1018 40.49 54.9859V52.5523C40.49 52.5523 40.49 52.4365 40.6059 52.4365H42.8076C43.2712 52.4365 43.6188 52.0888 43.6188 51.6253C43.6188 51.1618 43.2712 50.8141 42.8076 50.8141H33.0735C33.0735 50.8141 32.9576 50.8141 32.9576 50.6982V47.5694C33.0735 47.5694 33.1894 47.4535 33.3053 47.4535C34.9276 46.5265 37.3612 45.9471 39.7947 45.9471C40.2582 45.9471 40.6059 45.5994 40.6059 45.1359C40.6059 44.6724 40.2582 44.3247 39.7947 44.3247C38.8676 44.3247 37.9406 44.3247 37.0135 44.4406C37.0135 44.4406 36.8976 44.4406 36.8976 44.3247V39.9212C36.8976 39.9212 36.8976 39.9212 36.8976 39.8053C37.5929 39.2259 38.2882 38.5306 38.8676 37.6035C39.6788 36.2129 39.6788 35.4018 39.7947 34.0112C39.7947 33.7794 39.7947 33.5476 39.7947 33.3159V31.3459C39.7947 28.7965 37.7088 26.8265 35.2753 26.8265C35.1594 26.8265 35.1594 26.7106 35.1594 26.7106C36.3182 25.4359 37.1294 23.8135 37.1294 22.4229V20.6847C37.1294 18.4829 36.4341 16.6288 35.1594 15.3541C34.0006 14.1953 32.3782 13.5 30.64 13.5C28.9018 13.5 27.2794 14.1953 26.1206 15.3541C24.8459 16.6288 24.0347 18.5988 24.0347 20.6847V22.4229C24.0347 23.9294 24.8459 25.5518 26.1206 26.8265H25.7729C23.5712 26.8265 22.5282 28.2171 21.8329 29.1441L16.9659 37.0241C16.9659 37.14 16.85 37.14 16.85 37.0241C16.2706 35.9812 14.88 34.0112 13.3735 33.8953C12.91 33.8953 12.3306 33.8953 11.9829 34.2429C11.6353 34.7065 11.6353 35.2859 11.7512 35.6335L12.91 42.4706C13.0259 43.05 13.1418 43.5135 13.4894 43.8612C13.9529 44.2088 14.4165 44.0929 14.9959 44.0929C15.1118 44.0929 15.2276 44.0929 15.3435 44.0929C17.6612 43.8612 19.5153 44.5565 20.0947 44.9041C20.79 45.2518 21.3694 45.5994 21.9488 45.9471C21.9488 45.9471 21.9488 45.9471 21.9488 46.0629V50.4665C21.9488 50.4665 21.9488 50.4665 21.8329 50.5824H15.3435C14.3006 50.5824 14.3006 50.5824 14.1847 50.2347C14.0688 49.8871 12.4465 46.7582 10.4765 46.6424C10.0129 46.6424 9.43353 46.6424 9.08588 46.99C8.73823 47.4535 8.73823 47.9171 8.85412 48.3806L10.0129 54.9859C10.0129 54.9859 10.0129 55.1018 9.89706 55.1018H7.57941C7.57941 55.1018 7.57941 55.2176 7.46353 55.2176C6.42059 55.9129 7.46353 56.7241 7.46353 56.7241C7.46353 56.7241 7.46353 56.84 7.57941 56.84H11.0559H61.9282ZM15.1118 55.1018H11.6353L10.4765 48.2647C11.1718 48.4965 12.0988 49.7712 12.5624 50.8141C13.1418 51.9729 14.0688 52.0888 14.9959 52.0888V55.1018H15.1118ZM32.4941 46.0629C32.3782 45.9471 32.2623 45.8312 32.1465 45.7153C32.0306 45.4835 31.7988 45.3676 31.6829 45.02C31.2194 44.4406 30.64 43.8612 29.9447 43.2818L34.58 41.4276C34.8118 41.3118 35.0435 41.1959 35.3912 41.08V44.9041C34.2323 45.1359 33.3053 45.4835 32.4941 46.0629ZM27.9747 42.1229C27.7429 42.2388 27.3953 42.2388 27.1635 42.1229C26.9318 42.0071 26.7 41.7753 26.5841 41.5435C26.4682 41.3118 26.4682 40.9641 26.5841 40.7324C26.7 40.5006 26.9318 40.2688 27.1635 40.1529L31.4512 38.2988L32.4941 40.2688L27.9747 42.1229ZM30.7559 15.1224C32.8418 15.1224 35.1594 16.6288 35.507 19.6418C33.6529 19.2941 29.8288 18.4829 29.4812 18.3671C29.2494 18.2512 29.0176 18.2512 28.7859 18.2512C27.9747 18.2512 27.3953 18.5988 26.9318 18.9465C26.5841 19.1782 26.3523 19.2941 26.0047 19.5259C26.3523 16.6288 28.67 15.1224 30.7559 15.1224ZM25.8888 22.4229V21.38C26.8159 21.1482 27.3953 20.8006 27.8588 20.4529C28.4382 20.1053 28.5541 19.9894 29.0176 20.1053C29.3653 20.2212 33.7688 21.0324 35.6229 21.38V22.4229C35.6229 23.9294 34.2323 26.0153 32.2623 26.9424C32.2623 26.9424 32.2623 26.9424 32.1465 26.9424C32.0306 26.9424 31.9147 27.0582 31.7988 27.0582C31.3353 27.1741 30.9876 27.29 30.64 27.29C30.2923 27.29 29.9447 27.1741 29.4812 27.0582C29.3653 27.0582 29.2494 26.9424 29.1335 26.9424C29.1335 26.9424 29.1335 26.9424 29.0176 26.9424C27.3953 26.0153 25.8888 24.0453 25.8888 22.4229ZM32.7259 28.5647V28.7965C32.7259 30.0712 31.7988 30.9982 30.7559 30.9982C29.7129 30.9982 28.7859 29.9553 28.7859 28.7965V28.5647C28.9018 28.5647 28.9018 28.6806 29.0176 28.6806C29.5971 28.9124 30.1765 29.0282 30.7559 29.0282C31.3353 29.0282 31.7988 28.9124 32.4941 28.6806C32.61 28.6806 32.61 28.6806 32.7259 28.5647ZM23.5712 30.0712C24.2665 28.9124 24.9618 28.5647 26.0047 28.5647H27.0476V28.7965C27.0476 30.9982 28.67 32.7365 30.7559 32.7365C32.7259 32.7365 34.4641 30.9982 34.4641 28.7965V28.5647H35.507C37.0135 28.5647 38.2882 29.8394 38.2882 31.3459V33.4318C38.2882 33.6635 38.2882 33.8953 38.2882 34.1271C38.2882 35.5176 38.1723 35.8653 37.5929 36.9082C36.8976 38.0671 35.8547 38.8782 34.1165 39.6894L33.0735 37.6035C33.4212 37.3718 33.7688 37.14 34.1165 36.7924L34.2323 36.6765L35.2753 34.9382C35.5071 34.5906 35.3912 34.0112 35.0435 33.7794C34.6959 33.5476 34.1165 33.6635 33.8847 34.0112L32.9576 35.6335C32.61 35.9812 32.4941 36.0971 32.0306 36.2129L26.7 38.5306C26.2365 38.7624 25.7729 38.9941 25.5412 39.4576C24.73 38.9941 23.9188 38.7624 23.1076 38.5306L24.8459 35.7494C25.0776 35.4018 24.9618 34.8224 24.6141 34.5906C24.2665 34.3588 23.6871 34.4747 23.4553 34.8224L21.1376 38.1829C20.3265 38.0671 19.5153 37.9512 18.7041 37.9512L23.5712 30.0712ZM18.0088 42.5865C17.1976 42.4706 16.3865 42.4706 15.4594 42.5865C15.3435 42.5865 14.9959 42.5865 14.88 42.5865C14.88 42.4706 13.7212 35.7494 13.7212 35.7494C14.4165 35.9812 15.4594 37.3718 15.9229 38.5306C16.1547 39.11 16.5023 39.4576 16.9659 39.5735C17.5453 39.6894 17.8929 39.5735 18.0088 39.6894C18.2406 39.6894 18.4723 39.6894 18.7041 39.6894L18.0088 42.5865ZM28.9018 55.1018H16.85V52.2047H22.1806C25.4253 52.2047 26.5841 51.9729 27.2794 51.3935C27.5112 51.1618 27.7429 50.8141 27.6271 50.2347C27.5112 48.6124 25.3094 45.3676 21.0218 43.3976C20.6741 43.2818 20.2106 43.05 19.6312 42.8182L20.4423 39.8053C21.9488 40.0371 23.5712 40.3847 24.73 41.1959C24.73 41.5435 24.8459 41.8912 24.9618 42.2388C25.1935 42.9341 25.7729 43.3976 26.4682 43.7453C26.8159 43.8612 27.1635 43.9771 27.5112 43.9771C27.6271 43.9771 27.8588 43.9771 27.9747 43.9771C28.7859 44.6724 29.7129 45.4835 30.1765 46.1788C30.4082 46.4106 30.5241 46.6423 30.64 46.7582C30.8718 46.99 30.9876 47.2218 31.2194 47.4535V50.93C29.7129 51.0459 28.4382 52.3206 28.4382 53.9429C28.5541 54.2906 28.67 54.7541 28.9018 55.1018ZM23.9188 50.4665V47.3376C25.1935 48.6124 25.7729 49.7712 25.8888 50.2347C25.6571 50.3506 25.0776 50.4665 23.9188 50.4665ZM38.8676 55.1018H31.4512C30.7559 54.9859 30.2923 54.5224 30.2923 53.8271C30.2923 53.1318 30.8718 52.5523 31.5671 52.5523H38.8676V55.1018ZM51.8465 55.1018C50.1082 54.4065 48.8335 52.7841 48.6018 50.8141C48.4859 50.2347 48.6018 49.6553 48.8335 48.96C49.4129 47.3376 50.8035 45.7153 52.8894 45.4835C53.4688 45.3676 54.1641 45.4835 54.7435 45.5994C54.1641 47.1059 54.28 48.96 55.207 50.93C55.9023 52.6682 52.7735 54.5224 51.8465 55.1018ZM54.9753 54.9859C57.2929 52.9 57.177 51.1618 56.7135 50.1188C56.0182 48.6124 55.9023 47.2218 56.3659 46.1788C56.5976 45.4835 57.0612 45.1359 57.7565 44.9041C58.4517 44.6724 58.9153 44.5565 59.147 44.5565C59.3788 44.5565 59.4947 44.5565 59.4947 44.6724C59.4947 44.6724 59.6106 44.9041 59.4947 45.4835C59.147 47.2218 59.2629 48.4965 59.3788 49.6553C59.4947 50.4665 59.4947 51.1618 59.3788 51.7412C58.9153 53.7112 57.6406 54.6382 54.9753 54.9859Z" fill="white"/>
</g>
<defs>
<linearGradient id="paint0_linear_208_275" x1="-6.38581e-07" y1="32.4307" x2="70.0134" y2="32.886" gradientUnits="userSpaceOnUse">
<stop stop-color="#308BC4"/>
<stop offset="1" stop-color="#7EC287"/>
</linearGradient>
<clipPath id="clip0_208_275">
<rect width="55" height="55" fill="white" transform="translate(7 8)"/>
</clipPath>
</defs>
</svg>
