<svg width="114" height="114" viewBox="0 0 114 114" fill="none" xmlns="http://www.w3.org/2000/svg">
<rect y="57.0002" width="80" height="80" rx="20" transform="rotate(-45 0 57.0002)" fill="url(#paint0_linear_208_1455)"/>
<path d="M73.79 76.872H40C39.7348 76.872 39.4804 76.7666 39.2929 76.5791C39.1054 76.3916 39 76.1372 39 75.872V69.872C39.0026 67.0589 40.1213 64.3617 42.1105 62.3725C44.0997 60.3833 46.7969 59.2647 49.61 59.262H52.92C53.0996 59.2577 53.277 59.3019 53.4336 59.3899C53.5902 59.4779 53.7203 59.6064 53.81 59.762L56.76 64.762L59.76 59.762C59.8511 59.6083 59.9816 59.4817 60.1382 59.3955C60.2947 59.3094 60.4714 59.2667 60.65 59.272H64.17C66.9841 59.2746 69.6823 60.393 71.673 62.3819C73.6638 64.3708 74.7847 67.0679 74.79 69.882V75.882C74.79 76.1472 74.6847 76.4016 74.4971 76.5891C74.3096 76.7766 74.0552 76.882 73.79 76.882V76.872ZM41.03 74.812H72.76V69.862C72.7547 67.596 71.8522 65.4244 70.2499 63.8221C68.6476 62.2198 66.476 61.3173 64.21 61.312H61.27L57.65 67.312C57.5551 67.4629 57.4239 67.5876 57.2685 67.675C57.1131 67.7623 56.9383 67.8094 56.76 67.812C56.5806 67.8092 56.4049 67.761 56.2492 67.6718C56.0935 67.5826 55.9631 67.4554 55.87 67.302L52.35 61.302H49.58C47.314 61.3073 45.1424 62.2098 43.5401 63.8121C41.9378 65.4144 41.0353 67.586 41.03 69.852V74.812Z" fill="white"/>
<path d="M47.71 76.8717C47.4447 76.8717 47.1904 76.7664 47.0028 76.5789C46.8153 76.3913 46.71 76.137 46.71 75.8717V71.9617C46.71 71.6872 46.819 71.424 47.0131 71.2299C47.2072 71.0358 47.4705 70.9268 47.745 70.9268C48.0195 70.9268 48.2827 71.0358 48.4768 71.2299C48.6709 71.424 48.7799 71.6872 48.7799 71.9617V75.8417C48.7799 76.107 48.6746 76.3613 48.4871 76.5489C48.2995 76.7364 48.0452 76.8417 47.7799 76.8417" fill="white"/>
<path d="M67.3301 76.8716C67.0649 76.8716 66.8105 76.7663 66.623 76.5788C66.4354 76.3912 66.3301 76.1369 66.3301 75.8716V71.9616C66.3301 71.6885 66.4386 71.4265 66.6317 71.2333C66.8249 71.0402 67.0869 70.9316 67.3601 70.9316C67.6332 70.9316 67.8952 71.0402 68.0884 71.2333C68.2816 71.4265 68.3901 71.6885 68.3901 71.9616V75.8416C68.3901 76.1069 68.2847 76.3612 68.0972 76.5488C67.9096 76.7363 67.6553 76.8416 67.3901 76.8416" fill="white"/>
<path d="M56.92 59.9021C52.32 59.9021 48.01 51.5721 48.01 46.5521C48.01 46.2776 48.1191 46.0143 48.3132 45.8202C48.5073 45.6261 48.7705 45.5171 49.045 45.5171C49.3195 45.5171 49.5828 45.6261 49.7769 45.8202C49.971 46.0143 50.08 46.2776 50.08 46.5521C50.08 51.5521 54.32 57.8321 56.92 57.8321C57.1945 57.8321 57.4578 57.9411 57.6519 58.1352C57.846 58.3293 57.955 58.5926 57.955 58.8671C57.955 59.1416 57.846 59.4048 57.6519 59.5989C57.4578 59.793 57.1945 59.9021 56.92 59.9021Z" fill="white"/>
<path d="M56.92 59.902C56.6455 59.902 56.3823 59.7929 56.1882 59.5988C55.9941 59.4047 55.885 59.1415 55.885 58.867C55.885 58.5925 55.9941 58.3292 56.1882 58.1351C56.3823 57.941 56.6455 57.832 56.92 57.832C59.5 57.832 63.72 51.532 63.72 46.552C63.72 46.2788 63.8285 46.0168 64.0217 45.8237C64.2149 45.6305 64.4768 45.522 64.75 45.522C65.0232 45.522 65.2852 45.6305 65.4783 45.8237C65.6715 46.0168 65.78 46.2788 65.78 46.552C65.78 51.552 61.49 59.902 56.92 59.902Z" fill="white"/>
<path d="M55.17 47.5919H49.04C48.7748 47.5919 48.5205 47.4865 48.3329 47.299C48.1454 47.1115 48.04 46.8571 48.04 46.5919C48.1174 44.287 49.0874 42.1024 50.7452 40.4993C52.403 38.8962 54.6189 38 56.925 38C59.2312 38 61.4471 38.8962 63.1049 40.4993C64.7627 42.1024 65.7327 44.287 65.8101 46.5919C65.8101 46.8571 65.7047 47.1115 65.5172 47.299C65.3296 47.4865 65.0753 47.5919 64.8101 47.5919H55.17ZM50.1501 45.5919H63.64C63.3984 43.9759 62.5846 42.5003 61.3466 41.4337C60.1087 40.3672 58.529 39.7805 56.8951 39.7805C55.2611 39.7805 53.6814 40.3672 52.4435 41.4337C51.2055 42.5003 50.3917 43.9759 50.1501 45.5919Z" fill="white"/>
<defs>
<linearGradient id="paint0_linear_208_1455" x1="-7.29806e-07" y1="94.0639" x2="80.0153" y2="94.5843" gradientUnits="userSpaceOnUse">
<stop stop-color="#308BC4"/>
<stop offset="1" stop-color="#7EC287"/>
</linearGradient>
</defs>
</svg>
