<svg width="70" height="70" viewBox="0 0 70 70" fill="none" xmlns="http://www.w3.org/2000/svg">
<rect width="70" height="70" rx="12" fill="url(#paint0_linear_208_741)"/>
<path d="M35.0901 38.87C33.5201 38.87 32.0201 37.95 30.7401 36.22C29.1033 33.8925 28.1886 31.1343 28.1101 28.29C28.1069 28.1397 28.1375 27.9906 28.1999 27.8539C28.2622 27.7171 28.3546 27.5962 28.4701 27.5L31.7301 24.68C31.8332 24.5913 31.9527 24.5239 32.0819 24.4814C32.211 24.439 32.3473 24.4224 32.4829 24.4326C32.6184 24.4428 32.7507 24.4796 32.872 24.541C32.9933 24.6023 33.1015 24.6869 33.1901 24.79C33.2788 24.8931 33.3462 25.0126 33.3887 25.1418C33.4311 25.2709 33.4477 25.4072 33.4375 25.5428C33.4273 25.6784 33.3904 25.8106 33.3291 25.9319C33.2678 26.0533 33.1832 26.1614 33.0801 26.25L30.1501 28.76C30.3155 31.0002 31.0787 33.155 32.3601 35C32.5762 35.5365 32.9478 35.9962 33.4271 36.3198C33.9065 36.6435 34.4717 36.8165 35.0501 36.8165C35.6285 36.8165 36.1937 36.6435 36.673 36.3198C37.1524 35.9962 37.524 35.5365 37.7401 35C39.1089 33.0266 39.8796 30.7003 39.9601 28.3C39.9601 28.0255 40.0691 27.7622 40.2632 27.5681C40.4573 27.374 40.7206 27.265 40.9951 27.265C41.2696 27.265 41.5328 27.374 41.7269 27.5681C41.921 27.7622 42.0301 28.0255 42.0301 28.3C41.9498 31.144 41.0352 33.9017 39.4001 36.23C38.9386 36.9863 38.303 37.6215 37.5464 38.0824C36.7897 38.5434 35.9339 38.8168 35.0501 38.88" fill="white"/>
<path d="M46.04 36.6799H38.61C38.3355 36.6799 38.0722 36.5709 37.8781 36.3768C37.684 36.1827 37.5749 35.9194 37.5749 35.6449C37.5749 35.3704 37.684 35.1072 37.8781 34.9131C38.0722 34.719 38.3355 34.6099 38.61 34.6099H44.24C43.5773 33.2772 43.2089 31.8175 43.16 30.3299C42.8734 28.9982 42.388 27.7171 41.7199 26.5299H27.92C27.392 27.6283 27.0926 28.8224 27.04 30.0399C26.9944 31.6277 26.6055 33.1868 25.9 34.6099H31.57C31.8445 34.6099 32.1077 34.719 32.3018 34.9131C32.4959 35.1072 32.605 35.3704 32.605 35.6449C32.605 35.9194 32.4959 36.1827 32.3018 36.3768C32.1077 36.5709 31.8445 36.6799 31.57 36.6799H24.15C23.9566 36.6929 23.7636 36.6495 23.5944 36.5548C23.4253 36.4602 23.2873 36.3184 23.1973 36.1468C23.1072 35.9752 23.069 35.7811 23.0872 35.5881C23.1054 35.3952 23.1794 35.2117 23.3 35.0599C24.2772 33.5645 24.8524 31.8424 24.9699 30.0599C25.0431 28.3086 25.5187 26.5977 26.36 25.0599C26.4446 24.892 26.5748 24.7512 26.7358 24.654C26.8968 24.5567 27.0819 24.5067 27.27 24.5099H42.2699C42.4416 24.5079 42.6108 24.55 42.7615 24.6323C42.9121 24.7147 43.039 24.8343 43.13 24.9799C44.1681 26.5937 44.8719 28.3993 45.1999 30.2899C45.2905 32.008 45.8584 33.6668 46.8399 35.0799C46.9517 35.2347 47.0192 35.4171 47.0351 35.6074C47.0509 35.7977 47.0146 35.9887 46.93 36.1599C46.8475 36.3332 46.7169 36.4791 46.5537 36.5801C46.3906 36.6812 46.2019 36.7332 46.01 36.7299" fill="white"/>
<path d="M42.29 26.49H27.29C27.0675 26.49 26.8507 26.4193 26.671 26.2881C26.4913 26.1569 26.3579 25.9719 26.29 25.76L24.4001 19.53C24.2769 19.1211 24.2511 18.689 24.3246 18.2683C24.3981 17.8476 24.569 17.45 24.8235 17.107C25.078 16.7641 25.4092 16.4854 25.7906 16.2932C26.1719 16.101 26.593 16.0006 27.0201 16H42.8601C43.3013 15.9983 43.7364 16.1036 44.1281 16.3068C44.5197 16.51 44.8563 16.8051 45.1089 17.1669C45.3615 17.5286 45.5228 17.9462 45.5787 18.3839C45.6346 18.8216 45.5836 19.2663 45.4301 19.68L43.27 25.84C43.2022 26.0489 43.0676 26.2296 42.8868 26.3543C42.7061 26.479 42.4893 26.5408 42.27 26.53L42.29 26.49ZM28.0201 24.46H41.54L43.46 18.99C43.495 18.8902 43.505 18.7834 43.4893 18.6789C43.4736 18.5743 43.4327 18.4752 43.3701 18.39C43.3085 18.304 43.2275 18.2339 43.1337 18.1852C43.0398 18.1365 42.9357 18.1108 42.83 18.11H27.01C26.9052 18.1096 26.8017 18.1339 26.7079 18.1807C26.6141 18.2276 26.5326 18.2959 26.47 18.38C26.4095 18.4642 26.369 18.5611 26.3517 18.6634C26.3343 18.7657 26.3406 18.8706 26.3701 18.97L28.0201 24.46Z" fill="white"/>
<path d="M27.4299 54.6101C27.1647 54.6101 26.9103 54.5047 26.7228 54.3172C26.5353 54.1297 26.4299 53.8753 26.4299 53.6101V50.7601C26.4299 50.4856 26.539 50.2223 26.7331 50.0282C26.9272 49.8341 27.1904 49.7251 27.4649 49.7251C27.7394 49.7251 28.0027 49.8341 28.1968 50.0282C28.3909 50.2223 28.4999 50.4856 28.4999 50.7601V53.6101C28.4999 53.8753 28.3946 54.1297 28.207 54.3172C28.0195 54.5047 27.7651 54.6101 27.4999 54.6101" fill="white"/>
<path d="M42.48 54.6101C42.2148 54.6101 41.9604 54.5047 41.7729 54.3172C41.5854 54.1297 41.48 53.8753 41.48 53.6101V50.7601C41.48 50.4856 41.589 50.2223 41.7831 50.0282C41.9772 49.8341 42.2405 49.7251 42.515 49.7251C42.7895 49.7251 43.0527 49.8341 43.2468 50.0282C43.4409 50.2223 43.55 50.4856 43.55 50.7601V53.6101C43.55 53.8753 43.4446 54.1297 43.2571 54.3172C43.0695 54.5047 42.8152 54.6101 42.55 54.6101" fill="white"/>
<path d="M31.3899 48.5102C31.2534 48.5105 31.1182 48.4828 30.9928 48.4288C30.8674 48.3748 30.7544 48.2958 30.6607 48.1965C30.567 48.0972 30.4946 47.9797 30.4481 47.8514C30.4015 47.723 30.3817 47.5865 30.3899 47.4502V46.2802C30.432 45.7804 30.2847 45.2829 29.9772 44.8865C29.6698 44.4901 29.2246 44.2237 28.7299 44.1402H28.6299C28.4334 44.1374 28.2384 44.174 28.0563 44.2479C27.8743 44.3218 27.7089 44.4314 27.5699 44.5703C27.1341 45.0096 26.8866 45.6015 26.8799 46.2202V47.3802C26.8799 47.6455 26.7745 47.8998 26.587 48.0873C26.3995 48.2749 26.1451 48.3802 25.8799 48.3802C25.6147 48.3802 25.3603 48.2749 25.1728 48.0873C24.9853 47.8998 24.8799 47.6455 24.8799 47.3802V46.2002C24.8832 45.6194 25.0026 45.0451 25.231 44.511C25.4594 43.977 25.7922 43.4939 26.2099 43.0902C26.5475 42.763 26.9468 42.5061 27.3846 42.3344C27.8223 42.1627 28.2898 42.0797 28.7599 42.0902H28.8899C29.9282 42.187 30.8877 42.6854 31.5639 43.4793C32.2401 44.2732 32.5796 45.2997 32.5099 46.3402V47.5202C32.5099 47.7854 32.4045 48.0398 32.217 48.2274C32.0295 48.4149 31.7751 48.5202 31.5099 48.5202" fill="white"/>
<path d="M41.2501 47.1C41.1137 47.1008 40.9785 47.0737 40.853 47.0204C40.7274 46.9671 40.6141 46.8887 40.52 46.7899L39.91 46.18C39.4455 45.7242 39.1584 45.1181 39.1 44.47C39.0648 44.0254 39.163 43.5805 39.3821 43.1921C39.6013 42.8038 39.9313 42.4896 40.33 42.2899C40.4464 42.2109 40.5319 42.0941 40.572 41.9592C40.6121 41.8243 40.6043 41.6798 40.55 41.55L40.1 40.45C40.0482 40.3245 40.0215 40.1902 40.0216 40.0544C40.0217 39.9187 40.0485 39.7844 40.1005 39.659C40.1525 39.5336 40.2286 39.4197 40.3246 39.3238C40.4207 39.2279 40.5346 39.1518 40.66 39.1C40.7854 39.0481 40.9198 39.0214 41.0555 39.0215C41.1913 39.0216 41.3257 39.0484 41.451 39.1004C41.5764 39.1524 41.6903 39.2285 41.7862 39.3246C41.8821 39.4206 41.9582 39.5346 42.0101 39.66L42.47 40.78C42.7064 41.3652 42.7288 42.015 42.533 42.6151C42.3373 43.2151 41.936 43.7268 41.4 44.06H41.3201C41.1501 44.15 41.16 44.1999 41.16 44.2899C41.1887 44.4434 41.2658 44.5836 41.3801 44.69L41.99 45.3C42.153 45.4374 42.2679 45.6233 42.3177 45.8305C42.3676 46.0378 42.35 46.2556 42.2673 46.4521C42.1847 46.6486 42.0414 46.8136 41.8584 46.923C41.6754 47.0323 41.4623 47.0803 41.2501 47.06V47.1Z" fill="white"/>
<path d="M28.67 44.1399C28.4047 44.1399 28.1504 44.0346 27.9628 43.847C27.7753 43.6595 27.67 43.4051 27.67 43.1399V40.1999C27.6632 40.0644 27.684 39.929 27.7312 39.8019C27.7784 39.6747 27.851 39.5585 27.9445 39.4602C28.0381 39.362 28.1507 39.2839 28.2754 39.2305C28.4001 39.1771 28.5343 39.1497 28.67 39.1499C28.9352 39.1499 29.1895 39.2552 29.377 39.4428C29.5646 39.6303 29.67 39.8847 29.67 40.1499V43.0899C29.67 43.3551 29.5646 43.6095 29.377 43.797C29.1895 43.9845 28.9352 44.0899 28.67 44.0899V44.1399Z" fill="white"/>
<path d="M51.19 54.6102H19C18.7348 54.6102 18.4804 54.5049 18.2929 54.3173C18.1054 54.1298 18 53.8754 18 53.6102V52.4402C18.0053 48.827 19.443 45.3632 21.998 42.8082C24.553 40.2532 28.0167 38.8155 31.63 38.8102C31.8325 38.8052 32.0318 38.8618 32.2014 38.9725C32.3711 39.0832 32.5031 39.2428 32.58 39.4302L35.1 45.2002L37.52 39.4402C37.6042 39.247 37.7446 39.0835 37.9229 38.9712C38.1013 38.8588 38.3093 38.8027 38.52 38.8102H38.66C42.2733 38.8155 45.737 40.2532 48.292 42.8082C50.847 45.3632 52.2847 48.827 52.29 52.4402V53.6102C52.29 53.8754 52.1846 54.1298 51.9971 54.3173C51.8096 54.5049 51.5552 54.6102 51.29 54.6102H51.19ZM20.14 52.5402H50.25V52.4102C50.2485 49.4414 49.1057 46.5867 47.0583 44.4369C45.0108 42.287 42.2153 41.0065 39.25 40.8602L36.17 48.1902C36.0919 48.3879 35.9529 48.5555 35.773 48.6688C35.5932 48.7821 35.382 48.8351 35.17 48.8202C34.9692 48.8233 34.7721 48.7657 34.6045 48.6551C34.4368 48.5445 34.3063 48.386 34.23 48.2002L31.01 40.8702C28.066 41.0436 25.2993 42.3346 23.2752 44.4794C21.2512 46.6243 20.1226 49.4611 20.12 52.4102L20.14 52.5402Z" fill="white"/>
<path d="M42.5801 49.73C42.33 49.7306 42.081 49.697 41.8401 49.6301C41.1817 49.4457 40.6178 49.0184 40.2622 48.4345C39.9066 47.8506 39.7857 47.1535 39.924 46.4839C40.0623 45.8144 40.4494 45.2222 41.0073 44.827C41.5652 44.4317 42.2523 44.2628 42.9298 44.3544C43.6073 44.446 44.2249 44.7912 44.6578 45.3203C45.0908 45.8494 45.3069 46.5231 45.2625 47.2054C45.2181 47.8876 44.9165 48.5276 44.4187 48.9962C43.9208 49.4648 43.2637 49.727 42.5801 49.73ZM42.5801 46.4301C42.4459 46.4298 42.3154 46.4737 42.2088 46.555C42.1021 46.6364 42.0253 46.7506 41.9901 46.8801C41.9672 46.9575 41.9599 47.0388 41.9687 47.1191C41.9775 47.1994 42.0022 47.2771 42.0412 47.3478C42.0803 47.4185 42.133 47.4808 42.1963 47.531C42.2596 47.5811 42.3323 47.6182 42.4101 47.6401C42.4899 47.6683 42.5746 47.6799 42.6591 47.6742C42.7436 47.6684 42.8259 47.6455 42.9012 47.6067C42.9764 47.5679 43.0429 47.5141 43.0965 47.4486C43.1502 47.3831 43.1899 47.3073 43.2132 47.2259C43.2364 47.1445 43.2428 47.0592 43.2318 46.9753C43.2208 46.8913 43.1928 46.8106 43.1494 46.7379C43.106 46.6652 43.0482 46.6021 42.9795 46.5526C42.9109 46.5032 42.8328 46.4682 42.7501 46.45H42.5801V46.4301Z" fill="white"/>
<path d="M25.84 50.5099C25.5649 50.5052 25.2935 50.4463 25.0412 50.3364C24.789 50.2266 24.5609 50.0681 24.3701 49.8699C23.9897 49.468 23.7815 48.9332 23.79 48.3799C23.7938 48.1061 23.8524 47.8359 23.9623 47.5851C24.0722 47.3344 24.2313 47.1082 24.4301 46.9199C24.6274 46.7283 24.8606 46.5776 25.1163 46.4764C25.3719 46.3751 25.6451 46.3254 25.9201 46.3299C26.1938 46.3336 26.4641 46.3922 26.7148 46.5021C26.9656 46.6121 27.1918 46.7711 27.38 46.9699C27.5702 47.1677 27.7194 47.4012 27.8189 47.6569C27.9185 47.9127 27.9665 48.1855 27.9601 48.4599C27.9592 48.7341 27.9019 49.0052 27.7918 49.2564C27.6817 49.5075 27.5211 49.7334 27.32 49.9199C26.9363 50.2982 26.4189 50.5101 25.88 50.5099H25.84Z" fill="white"/>
<path d="M31.39 50.6202C31.1151 50.6164 30.8437 50.558 30.5915 50.4486C30.3394 50.3392 30.1113 50.1809 29.9207 49.9828C29.7301 49.7848 29.5806 49.5508 29.4809 49.2946C29.3812 49.0385 29.3333 48.7651 29.34 48.4902C29.3632 47.9517 29.5936 47.4429 29.9831 47.0702C30.3725 46.6975 30.8909 46.4897 31.43 46.4902C31.9746 46.5111 32.4894 46.7449 32.8634 47.1414C33.2374 47.5379 33.4409 48.0653 33.43 48.6102C33.4195 49.1558 33.1961 49.6757 32.8074 50.0588C32.4188 50.4419 31.8957 50.6577 31.35 50.6602L31.39 50.6202Z" fill="white"/>
<path d="M41.0301 29.3199C40.7883 29.3224 40.5539 29.2371 40.3701 29.0799L36.9701 26.2499C36.7592 26.0736 36.6271 25.8206 36.6027 25.5468C36.5783 25.273 36.6637 25.0008 36.8401 24.7899C37.0165 24.5791 37.2693 24.4469 37.5432 24.4225C37.817 24.3982 38.0893 24.4836 38.3001 24.6599L41.6901 27.4999C41.8727 27.6253 42.0086 27.8078 42.0763 28.0187C42.144 28.2296 42.1397 28.457 42.0642 28.6653C41.9887 28.8735 41.8462 29.0508 41.659 29.1693C41.4718 29.2878 41.2506 29.3408 41.0301 29.3199Z" fill="white"/>
<defs>
<linearGradient id="paint0_linear_208_741" x1="-6.38581e-07" y1="32.4307" x2="70.0134" y2="32.886" gradientUnits="userSpaceOnUse">
<stop stop-color="#308BC4"/>
<stop offset="1" stop-color="#7EC287"/>
</linearGradient>
</defs>
</svg>
